G04 #@! TF.FileFunction,Soldermask,Top*
%FSLAX46Y46*%
G04 Gerber Fmt 4.6, Leading zero omitted, Abs format (unit mm)*
G04 Created by KiCad (PCBNEW (2015-07-29 BZR 6016)-product) date Sat 12 Mar 2016 01:35:21 AM PST*
%MOMM*%
G01*
G04 APERTURE LIST*
%ADD10C,0.150000*%
%ADD11C,0.010000*%
%ADD12R,0.900000X1.700000*%
%ADD13C,2.500000*%
%ADD14R,1.143000X0.508000*%
%ADD15R,1.600000X1.000000*%
%ADD16O,1.506220X3.014980*%
%ADD17R,1.350000X0.400000*%
%ADD18C,1.250000*%
%ADD19C,1.550000*%
%ADD20R,0.600000X1.550000*%
%ADD21O,2.400000X1.100000*%
%ADD22R,1.100000X2.400000*%
%ADD23O,1.100000X2.400000*%
%ADD24R,0.590000X0.450000*%
%ADD25R,1.000000X1.600000*%
%ADD26R,1.600200X1.198880*%
%ADD27R,1.727200X2.032000*%
%ADD28O,1.727200X2.032000*%
%ADD29R,1.727200X1.727200*%
%ADD30O,1.727200X1.727200*%
%ADD31R,1.700000X0.900000*%
%ADD32R,2.100580X5.600700*%
%ADD33R,0.240000X0.900000*%
%ADD34R,0.900000X0.240000*%
%ADD35R,1.000000X2.900000*%
%ADD36R,1.800860X1.597660*%
%ADD37R,0.450000X0.590000*%
%ADD38R,0.800100X0.800100*%
%ADD39R,1.060000X0.650000*%
%ADD40R,0.700000X0.200000*%
%ADD41R,1.650000X2.500000*%
%ADD42R,0.398780X0.749300*%
G04 APERTURE END LIST*
D10*
D11*
G36*
X63938164Y-81737621D02*
X63984486Y-81780125D01*
X64022169Y-81836935D01*
X64048672Y-81902087D01*
X64061452Y-81969619D01*
X64059841Y-82023043D01*
X64041998Y-82084157D01*
X64009612Y-82140908D01*
X63966834Y-82187198D01*
X63932211Y-82210484D01*
X63913135Y-82219779D01*
X63894919Y-82226725D01*
X63874061Y-82231730D01*
X63847060Y-82235203D01*
X63810416Y-82237551D01*
X63760628Y-82239181D01*
X63694195Y-82240502D01*
X63671205Y-82240888D01*
X63462781Y-82244317D01*
X63467629Y-82722429D01*
X63469858Y-82915234D01*
X63472502Y-83088093D01*
X63475670Y-83242225D01*
X63479474Y-83378849D01*
X63484024Y-83499184D01*
X63489431Y-83604448D01*
X63495807Y-83695861D01*
X63503262Y-83774641D01*
X63511906Y-83842006D01*
X63521852Y-83899177D01*
X63533209Y-83947371D01*
X63546089Y-83987807D01*
X63560603Y-84021705D01*
X63576861Y-84050282D01*
X63590126Y-84068779D01*
X63623596Y-84100794D01*
X63662327Y-84116517D01*
X63708646Y-84116038D01*
X63764878Y-84099450D01*
X63812813Y-84077582D01*
X63840525Y-84065217D01*
X63858783Y-84060248D01*
X63863084Y-84062082D01*
X63854687Y-84084772D01*
X63832349Y-84114015D01*
X63800343Y-84145588D01*
X63762944Y-84175265D01*
X63725020Y-84198521D01*
X63658271Y-84226813D01*
X63592011Y-84241564D01*
X63518849Y-84243998D01*
X63472113Y-84240439D01*
X63378812Y-84221226D01*
X63297555Y-84184618D01*
X63228365Y-84130642D01*
X63171267Y-84059326D01*
X63126285Y-83970697D01*
X63093444Y-83864784D01*
X63079617Y-83793209D01*
X63077459Y-83770172D01*
X63075015Y-83727909D01*
X63072346Y-83668359D01*
X63069515Y-83593458D01*
X63066584Y-83505145D01*
X63063616Y-83405357D01*
X63060673Y-83296033D01*
X63057816Y-83179109D01*
X63055109Y-83056525D01*
X63053665Y-82985311D01*
X63051175Y-82862613D01*
X63048649Y-82746170D01*
X63046135Y-82637704D01*
X63043681Y-82538934D01*
X63041333Y-82451580D01*
X63039140Y-82377362D01*
X63037149Y-82318000D01*
X63035408Y-82275215D01*
X63033965Y-82250725D01*
X63033191Y-82245413D01*
X63021376Y-82243573D01*
X62991286Y-82241560D01*
X62945811Y-82239490D01*
X62887843Y-82237480D01*
X62820270Y-82235646D01*
X62757179Y-82234307D01*
X62487250Y-82229283D01*
X62487250Y-82404508D01*
X62481506Y-82650773D01*
X62464497Y-82889405D01*
X62436562Y-83118619D01*
X62398039Y-83336631D01*
X62349266Y-83541655D01*
X62290581Y-83731907D01*
X62222321Y-83905601D01*
X62189872Y-83975239D01*
X62163064Y-84025712D01*
X62133289Y-84075188D01*
X62104869Y-84116760D01*
X62088958Y-84136508D01*
X62036268Y-84184399D01*
X61976730Y-84220675D01*
X61914356Y-84244167D01*
X61853157Y-84253707D01*
X61797143Y-84248126D01*
X61759549Y-84232474D01*
X61716051Y-84195947D01*
X61692067Y-84152271D01*
X61687833Y-84103035D01*
X61703586Y-84049827D01*
X61726676Y-84011008D01*
X61846201Y-83829953D01*
X61951314Y-83640157D01*
X62043086Y-83439233D01*
X62122589Y-83224796D01*
X62190894Y-82994461D01*
X62201322Y-82954130D01*
X62225729Y-82848299D01*
X62247735Y-82734443D01*
X62266573Y-82617939D01*
X62281475Y-82504160D01*
X62291674Y-82398482D01*
X62296404Y-82306278D01*
X62296641Y-82286331D01*
X62296750Y-82239954D01*
X62071854Y-82245741D01*
X61987931Y-82248312D01*
X61921234Y-82251428D01*
X61867826Y-82255442D01*
X61823769Y-82260708D01*
X61785123Y-82267579D01*
X61757719Y-82273898D01*
X61690596Y-82294062D01*
X61625254Y-82319668D01*
X61567547Y-82348066D01*
X61523333Y-82376607D01*
X61514523Y-82383946D01*
X61498377Y-82396811D01*
X61494483Y-82395929D01*
X61501109Y-82383441D01*
X61516525Y-82361491D01*
X61539003Y-82332223D01*
X61566810Y-82297781D01*
X61598218Y-82260307D01*
X61631496Y-82221945D01*
X61664914Y-82184839D01*
X61696742Y-82151132D01*
X61724935Y-82123264D01*
X61782898Y-82072694D01*
X61839147Y-82033227D01*
X61903354Y-81998122D01*
X61907422Y-81996128D01*
X61938495Y-81980910D01*
X61966155Y-81967656D01*
X61992042Y-81956213D01*
X62017798Y-81946429D01*
X62045062Y-81938152D01*
X62075476Y-81931230D01*
X62110680Y-81925510D01*
X62152314Y-81920841D01*
X62202020Y-81917070D01*
X62261439Y-81914045D01*
X62332210Y-81911615D01*
X62415974Y-81909625D01*
X62514372Y-81907926D01*
X62629045Y-81906363D01*
X62761633Y-81904786D01*
X62910584Y-81903079D01*
X63084879Y-81900901D01*
X63238051Y-81898635D01*
X63370141Y-81896283D01*
X63481191Y-81893841D01*
X63571245Y-81891310D01*
X63640345Y-81888687D01*
X63688532Y-81885973D01*
X63715850Y-81883166D01*
X63720209Y-81882243D01*
X63779836Y-81855332D01*
X63832825Y-81809690D01*
X63866894Y-81765777D01*
X63902119Y-81713471D01*
X63938164Y-81737621D01*
X63938164Y-81737621D01*
G37*
X63938164Y-81737621D02*
X63984486Y-81780125D01*
X64022169Y-81836935D01*
X64048672Y-81902087D01*
X64061452Y-81969619D01*
X64059841Y-82023043D01*
X64041998Y-82084157D01*
X64009612Y-82140908D01*
X63966834Y-82187198D01*
X63932211Y-82210484D01*
X63913135Y-82219779D01*
X63894919Y-82226725D01*
X63874061Y-82231730D01*
X63847060Y-82235203D01*
X63810416Y-82237551D01*
X63760628Y-82239181D01*
X63694195Y-82240502D01*
X63671205Y-82240888D01*
X63462781Y-82244317D01*
X63467629Y-82722429D01*
X63469858Y-82915234D01*
X63472502Y-83088093D01*
X63475670Y-83242225D01*
X63479474Y-83378849D01*
X63484024Y-83499184D01*
X63489431Y-83604448D01*
X63495807Y-83695861D01*
X63503262Y-83774641D01*
X63511906Y-83842006D01*
X63521852Y-83899177D01*
X63533209Y-83947371D01*
X63546089Y-83987807D01*
X63560603Y-84021705D01*
X63576861Y-84050282D01*
X63590126Y-84068779D01*
X63623596Y-84100794D01*
X63662327Y-84116517D01*
X63708646Y-84116038D01*
X63764878Y-84099450D01*
X63812813Y-84077582D01*
X63840525Y-84065217D01*
X63858783Y-84060248D01*
X63863084Y-84062082D01*
X63854687Y-84084772D01*
X63832349Y-84114015D01*
X63800343Y-84145588D01*
X63762944Y-84175265D01*
X63725020Y-84198521D01*
X63658271Y-84226813D01*
X63592011Y-84241564D01*
X63518849Y-84243998D01*
X63472113Y-84240439D01*
X63378812Y-84221226D01*
X63297555Y-84184618D01*
X63228365Y-84130642D01*
X63171267Y-84059326D01*
X63126285Y-83970697D01*
X63093444Y-83864784D01*
X63079617Y-83793209D01*
X63077459Y-83770172D01*
X63075015Y-83727909D01*
X63072346Y-83668359D01*
X63069515Y-83593458D01*
X63066584Y-83505145D01*
X63063616Y-83405357D01*
X63060673Y-83296033D01*
X63057816Y-83179109D01*
X63055109Y-83056525D01*
X63053665Y-82985311D01*
X63051175Y-82862613D01*
X63048649Y-82746170D01*
X63046135Y-82637704D01*
X63043681Y-82538934D01*
X63041333Y-82451580D01*
X63039140Y-82377362D01*
X63037149Y-82318000D01*
X63035408Y-82275215D01*
X63033965Y-82250725D01*
X63033191Y-82245413D01*
X63021376Y-82243573D01*
X62991286Y-82241560D01*
X62945811Y-82239490D01*
X62887843Y-82237480D01*
X62820270Y-82235646D01*
X62757179Y-82234307D01*
X62487250Y-82229283D01*
X62487250Y-82404508D01*
X62481506Y-82650773D01*
X62464497Y-82889405D01*
X62436562Y-83118619D01*
X62398039Y-83336631D01*
X62349266Y-83541655D01*
X62290581Y-83731907D01*
X62222321Y-83905601D01*
X62189872Y-83975239D01*
X62163064Y-84025712D01*
X62133289Y-84075188D01*
X62104869Y-84116760D01*
X62088958Y-84136508D01*
X62036268Y-84184399D01*
X61976730Y-84220675D01*
X61914356Y-84244167D01*
X61853157Y-84253707D01*
X61797143Y-84248126D01*
X61759549Y-84232474D01*
X61716051Y-84195947D01*
X61692067Y-84152271D01*
X61687833Y-84103035D01*
X61703586Y-84049827D01*
X61726676Y-84011008D01*
X61846201Y-83829953D01*
X61951314Y-83640157D01*
X62043086Y-83439233D01*
X62122589Y-83224796D01*
X62190894Y-82994461D01*
X62201322Y-82954130D01*
X62225729Y-82848299D01*
X62247735Y-82734443D01*
X62266573Y-82617939D01*
X62281475Y-82504160D01*
X62291674Y-82398482D01*
X62296404Y-82306278D01*
X62296641Y-82286331D01*
X62296750Y-82239954D01*
X62071854Y-82245741D01*
X61987931Y-82248312D01*
X61921234Y-82251428D01*
X61867826Y-82255442D01*
X61823769Y-82260708D01*
X61785123Y-82267579D01*
X61757719Y-82273898D01*
X61690596Y-82294062D01*
X61625254Y-82319668D01*
X61567547Y-82348066D01*
X61523333Y-82376607D01*
X61514523Y-82383946D01*
X61498377Y-82396811D01*
X61494483Y-82395929D01*
X61501109Y-82383441D01*
X61516525Y-82361491D01*
X61539003Y-82332223D01*
X61566810Y-82297781D01*
X61598218Y-82260307D01*
X61631496Y-82221945D01*
X61664914Y-82184839D01*
X61696742Y-82151132D01*
X61724935Y-82123264D01*
X61782898Y-82072694D01*
X61839147Y-82033227D01*
X61903354Y-81998122D01*
X61907422Y-81996128D01*
X61938495Y-81980910D01*
X61966155Y-81967656D01*
X61992042Y-81956213D01*
X62017798Y-81946429D01*
X62045062Y-81938152D01*
X62075476Y-81931230D01*
X62110680Y-81925510D01*
X62152314Y-81920841D01*
X62202020Y-81917070D01*
X62261439Y-81914045D01*
X62332210Y-81911615D01*
X62415974Y-81909625D01*
X62514372Y-81907926D01*
X62629045Y-81906363D01*
X62761633Y-81904786D01*
X62910584Y-81903079D01*
X63084879Y-81900901D01*
X63238051Y-81898635D01*
X63370141Y-81896283D01*
X63481191Y-81893841D01*
X63571245Y-81891310D01*
X63640345Y-81888687D01*
X63688532Y-81885973D01*
X63715850Y-81883166D01*
X63720209Y-81882243D01*
X63779836Y-81855332D01*
X63832825Y-81809690D01*
X63866894Y-81765777D01*
X63902119Y-81713471D01*
X63938164Y-81737621D01*
D12*
X103750000Y-81200000D03*
X106650000Y-81200000D03*
D13*
X124000000Y-39100000D03*
X123900000Y-84100000D03*
X53700000Y-84000000D03*
X53800000Y-39300000D03*
D14*
X72925000Y-77045000D03*
X72925000Y-74505000D03*
X72925000Y-73235000D03*
X72925000Y-71965000D03*
X72925000Y-70695000D03*
X72925000Y-69425000D03*
X72925000Y-68155000D03*
X79275000Y-68155000D03*
X79275000Y-69425000D03*
X79275000Y-70695000D03*
X79275000Y-71965000D03*
X79275000Y-73235000D03*
X79275000Y-74505000D03*
X79275000Y-75775000D03*
X79275000Y-77045000D03*
X72925000Y-75775000D03*
D12*
X66550000Y-68800000D03*
X69450000Y-68800000D03*
D15*
X68450000Y-55850000D03*
X68450000Y-58850000D03*
D16*
X71970000Y-39800000D03*
X69430000Y-39800000D03*
D17*
X54562540Y-60399100D03*
X54562540Y-61049100D03*
X54562540Y-61699100D03*
X54562540Y-62349100D03*
X54562540Y-62999100D03*
D18*
X54562540Y-59199100D03*
X54562540Y-64199100D03*
D19*
X51862540Y-58199100D03*
X51862540Y-65199100D03*
D20*
X98605000Y-66500000D03*
X97335000Y-66500000D03*
X96065000Y-66500000D03*
X94795000Y-66500000D03*
X94795000Y-71900000D03*
X96065000Y-71900000D03*
X97335000Y-71900000D03*
X98605000Y-71900000D03*
D21*
X102650000Y-64990000D03*
X102650000Y-66990000D03*
X102650000Y-68990000D03*
X102650000Y-70990000D03*
X102650000Y-72990000D03*
X102650000Y-74990000D03*
D22*
X118400000Y-62000000D03*
D23*
X116400000Y-62000000D03*
X114400000Y-62000000D03*
X112400000Y-62000000D03*
X110400000Y-62000000D03*
X108400000Y-62000000D03*
X106400000Y-62000000D03*
X104400000Y-62000000D03*
X104400000Y-78000000D03*
X106400000Y-78000000D03*
X108400000Y-78000000D03*
X110400000Y-78000000D03*
X112400000Y-78000000D03*
X114400000Y-78000000D03*
X116400000Y-78000000D03*
X118400000Y-78000000D03*
D24*
X95455000Y-44400000D03*
X93345000Y-44400000D03*
D15*
X75450000Y-55750000D03*
X75450000Y-58750000D03*
D25*
X74600000Y-79900000D03*
X77600000Y-79900000D03*
X104400000Y-58800000D03*
X107400000Y-58800000D03*
X95600000Y-74500000D03*
X98600000Y-74500000D03*
X112000000Y-47300000D03*
X115000000Y-47300000D03*
X55400000Y-55600000D03*
X52400000Y-55600000D03*
D15*
X80800000Y-42400000D03*
X80800000Y-45400000D03*
D25*
X74600000Y-82700000D03*
X77600000Y-82700000D03*
X74600000Y-85500000D03*
X77600000Y-85500000D03*
D15*
X98100000Y-46600000D03*
X98100000Y-49600000D03*
X120100000Y-59500000D03*
X120100000Y-56500000D03*
X77900000Y-42300000D03*
X77900000Y-45300000D03*
X87500000Y-72600000D03*
X87500000Y-69600000D03*
X87600000Y-62900000D03*
X87600000Y-65900000D03*
X95200000Y-46500000D03*
X95200000Y-49500000D03*
D26*
X87899140Y-44400000D03*
X91500860Y-44400000D03*
D27*
X89800000Y-85800000D03*
D28*
X92340000Y-85800000D03*
X94880000Y-85800000D03*
X97420000Y-85800000D03*
X99960000Y-85800000D03*
X102500000Y-85800000D03*
X105040000Y-85800000D03*
X107580000Y-85800000D03*
X110120000Y-85800000D03*
X112660000Y-85800000D03*
X115200000Y-85800000D03*
X117740000Y-85800000D03*
D29*
X122900000Y-45100000D03*
D30*
X125440000Y-45100000D03*
X122900000Y-47640000D03*
X125440000Y-47640000D03*
X122900000Y-50180000D03*
X125440000Y-50180000D03*
X122900000Y-52720000D03*
X125440000Y-52720000D03*
X122900000Y-55260000D03*
X125440000Y-55260000D03*
X122900000Y-57800000D03*
X125440000Y-57800000D03*
D12*
X69550000Y-77100000D03*
X66650000Y-77100000D03*
X110850000Y-58800000D03*
X113750000Y-58800000D03*
D31*
X75000000Y-45250000D03*
X75000000Y-42350000D03*
D12*
X86550000Y-39700000D03*
X83650000Y-39700000D03*
X66550000Y-74400000D03*
X69450000Y-74400000D03*
X100850000Y-46400000D03*
X103750000Y-46400000D03*
X103750000Y-49400000D03*
X100850000Y-49400000D03*
X66550000Y-71600000D03*
X69450000Y-71600000D03*
X103850000Y-42600000D03*
X106750000Y-42600000D03*
D31*
X106600000Y-37250000D03*
X106600000Y-40150000D03*
X97300000Y-37450000D03*
X97300000Y-40350000D03*
X109500000Y-40150000D03*
X109500000Y-37250000D03*
D12*
X112150000Y-44800000D03*
X115050000Y-44800000D03*
X116750000Y-44800000D03*
X119650000Y-44800000D03*
X66550000Y-65800000D03*
X69450000Y-65800000D03*
X58050000Y-72100000D03*
X55150000Y-72100000D03*
X57550000Y-78300000D03*
X60450000Y-78300000D03*
D32*
X83400000Y-72648860D03*
X83400000Y-62951140D03*
D33*
X115650000Y-49600000D03*
X116150000Y-49600000D03*
D34*
X117200000Y-50150000D03*
X117200000Y-50650000D03*
X117200000Y-51150000D03*
X117200000Y-51650000D03*
X117200000Y-52150000D03*
X117200000Y-52650000D03*
X117200000Y-53150000D03*
X117200000Y-53650000D03*
D33*
X116150000Y-54200000D03*
X115650000Y-54200000D03*
D34*
X114600000Y-53650000D03*
X114600000Y-53150000D03*
X114600000Y-52650000D03*
X114600000Y-52150000D03*
X114600000Y-51650000D03*
X114600000Y-51150000D03*
X114600000Y-50650000D03*
X114600000Y-50150000D03*
D35*
X115900000Y-51900000D03*
D25*
X117000000Y-47300000D03*
X120000000Y-47300000D03*
X61400000Y-48900000D03*
X64400000Y-48900000D03*
X64500000Y-42500000D03*
X61500000Y-42500000D03*
D15*
X68600000Y-45200000D03*
X68600000Y-48200000D03*
X71600000Y-45200000D03*
X71600000Y-48200000D03*
D36*
X52900000Y-46419860D03*
X52900000Y-43580140D03*
X52800000Y-52219860D03*
X52800000Y-49380140D03*
D37*
X92600000Y-70845000D03*
X92600000Y-72955000D03*
D26*
X77800860Y-48300000D03*
X74199140Y-48300000D03*
D38*
X101900760Y-43050000D03*
X101900760Y-41150000D03*
X99901780Y-42100000D03*
X111499240Y-37250000D03*
X111499240Y-39150000D03*
X113498220Y-38200000D03*
X99999240Y-37450000D03*
X99999240Y-39350000D03*
X101998220Y-38400000D03*
X85750000Y-42399240D03*
X83850000Y-42399240D03*
X84800000Y-44398220D03*
X90550000Y-48400760D03*
X92450000Y-48400760D03*
X91500000Y-46401780D03*
X91350000Y-77900760D03*
X93250000Y-77900760D03*
X92300000Y-75901780D03*
X58750000Y-76100760D03*
X60650000Y-76100760D03*
X59700000Y-74101780D03*
X56950000Y-74099240D03*
X55050000Y-74099240D03*
X56000000Y-76098220D03*
D12*
X61400000Y-40000000D03*
X64300000Y-40000000D03*
X61300000Y-51800000D03*
X64200000Y-51800000D03*
X68550000Y-50700000D03*
X71450000Y-50700000D03*
D31*
X55700000Y-43850000D03*
X55700000Y-46750000D03*
X55500000Y-49700000D03*
X55500000Y-52600000D03*
D12*
X93750000Y-80300000D03*
X90850000Y-80300000D03*
D31*
X96400000Y-81050000D03*
X96400000Y-78150000D03*
D39*
X70900000Y-56350000D03*
X70900000Y-57300000D03*
X70900000Y-58250000D03*
X73100000Y-58250000D03*
X73100000Y-56350000D03*
D40*
X61400000Y-44600000D03*
X61400000Y-45000000D03*
X61400000Y-45400000D03*
X61400000Y-45800000D03*
X61400000Y-46200000D03*
X61400000Y-46600000D03*
X61400000Y-47000000D03*
X64400000Y-47000000D03*
X64400000Y-46600000D03*
X64400000Y-46200000D03*
X64400000Y-45800000D03*
X64400000Y-45400000D03*
X64400000Y-45000000D03*
X64400000Y-44600000D03*
D41*
X62900000Y-45800000D03*
D42*
X117650240Y-57050040D03*
X117000000Y-57050040D03*
X116349760Y-57050040D03*
X116349760Y-58949960D03*
X117000000Y-58949960D03*
X117650240Y-58949960D03*
D31*
X52600000Y-68850000D03*
X52600000Y-71750000D03*
M02*
