M48
;DRILL file {KiCad 4.0.4+e1-6308~48~ubuntu16.04.1-stable} date Fri Oct  7 16:46:31 2016
;FORMAT={2:4/ absolute / inch / keep zeros}
FMAT,2
INCH,TZ
T1C0.013
T2C0.033
T3C0.039
T4C0.040
T5C0.045
%
G90
G05
M72
T1
X022047Y-030512
X022677Y-017323
X022717Y-019803
X023701Y-017638
X023701Y-018346
X024567Y-020433
X024764Y-016937
X024843Y-019291
X025354Y-019812
X025630Y-025315
X025785Y-018223
X025787Y-018622
X025999Y-017933
X026267Y-018575
X026969Y-019449
X027374Y-022744
X027992Y-017244
X028661Y-021339
X028976Y-019961
X029685Y-023622
X031220Y-018228
X031299Y-031496
X031496Y-032677
X032795Y-021102
X034449Y-026593
X035787Y-026024
X036398Y-019783
X036457Y-032402
X036614Y-027559
X036614Y-027559
X036890Y-031220
X037316Y-032921
X037362Y-027520
X037595Y-030463
X037675Y-020029
X037835Y-021969
X037835Y-032835
X037963Y-030463
X038289Y-028976
X038343Y-027081
X038423Y-032777
X038622Y-020118
X038675Y-032008
X038853Y-027213
X038858Y-027672
X039055Y-021349
X039331Y-027913
X039422Y-031956
X039551Y-020289
X039646Y-027126
X039724Y-021693
X039724Y-032598
X040000Y-022244
X040079Y-030748
X041192Y-019438
X041453Y-022991
X041465Y-028590
X042411Y-022688
X042598Y-025512
X043189Y-032756
X043494Y-017306
X043528Y-029116
X043740Y-033150
X043788Y-025725
X044252Y-022756
X045118Y-015039
X045157Y-015551
X045315Y-023425
X045354Y-031881
X045433Y-021732
X045472Y-025354
X045669Y-020472
X046063Y-016024
X046417Y-016969
X046535Y-022638
X046772Y-018071
X047835Y-023425
X049016Y-031535
T2
X021481Y-023307
X021481Y-025275
T3
X027335Y-015669
X028335Y-015669
T4
X035354Y-033780
X036354Y-033780
X037354Y-033780
X038354Y-033780
X039354Y-033780
X040354Y-033780
X041354Y-033780
X042354Y-033780
X043354Y-033780
X044354Y-033780
X045354Y-033780
X046354Y-033780
X048386Y-017756
X048386Y-018756
X048386Y-019756
X048386Y-020756
X048386Y-021756
X048386Y-022756
X049386Y-017756
X049386Y-018756
X049386Y-019756
X049386Y-020756
X049386Y-021756
X049386Y-022756
T5
X020418Y-022913
X020418Y-025669
T0
M30
