G04 #@! TF.FileFunction,Copper,L1,Top,Signal*
%FSLAX46Y46*%
G04 Gerber Fmt 4.6, Leading zero omitted, Abs format (unit mm)*
G04 Created by KiCad (PCBNEW 4.0.4+e1-6308~48~ubuntu16.04.1-stable) date Fri Oct  7 16:46:28 2016*
%MOMM*%
%LPD*%
G01*
G04 APERTURE LIST*
%ADD10C,0.150000*%
%ADD11R,1.727200X2.032000*%
%ADD12O,1.727200X2.032000*%
%ADD13R,0.900000X1.700000*%
%ADD14C,2.500000*%
%ADD15R,1.143000X0.508000*%
%ADD16R,1.600000X1.000000*%
%ADD17O,1.506220X3.014980*%
%ADD18R,1.350000X0.400000*%
%ADD19C,1.250000*%
%ADD20C,1.550000*%
%ADD21R,0.600000X1.550000*%
%ADD22O,2.400000X1.100000*%
%ADD23R,1.100000X2.400000*%
%ADD24O,1.100000X2.400000*%
%ADD25R,0.590000X0.450000*%
%ADD26R,1.000000X1.600000*%
%ADD27R,1.600200X1.198880*%
%ADD28R,1.727200X1.727200*%
%ADD29O,1.727200X1.727200*%
%ADD30R,1.700000X0.900000*%
%ADD31R,2.100580X5.600700*%
%ADD32R,1.800860X1.597660*%
%ADD33R,0.800100X0.800100*%
%ADD34R,1.060000X0.650000*%
%ADD35R,0.700000X0.200000*%
%ADD36R,1.650000X2.500000*%
%ADD37R,0.398780X0.749300*%
%ADD38C,5.000000*%
%ADD39R,1.450000X0.450000*%
%ADD40C,0.762000*%
%ADD41C,0.152400*%
%ADD42C,0.381000*%
%ADD43C,0.254000*%
G04 APERTURE END LIST*
D10*
D11*
X89800000Y-85800000D03*
D12*
X92340000Y-85800000D03*
X94880000Y-85800000D03*
X97420000Y-85800000D03*
X99960000Y-85800000D03*
X102500000Y-85800000D03*
X105040000Y-85800000D03*
X107580000Y-85800000D03*
X110120000Y-85800000D03*
X112660000Y-85800000D03*
X115200000Y-85800000D03*
X117740000Y-85800000D03*
D13*
X103750000Y-81200000D03*
X106650000Y-81200000D03*
D14*
X124000000Y-39100000D03*
X123900000Y-84100000D03*
X53700000Y-84000000D03*
X53800000Y-39300000D03*
D15*
X72925000Y-77045000D03*
X72925000Y-74505000D03*
X72925000Y-73235000D03*
X72925000Y-71965000D03*
X72925000Y-70695000D03*
X72925000Y-69425000D03*
X72925000Y-68155000D03*
X79275000Y-68155000D03*
X79275000Y-69425000D03*
X79275000Y-70695000D03*
X79275000Y-71965000D03*
X79275000Y-73235000D03*
X79275000Y-74505000D03*
X79275000Y-75775000D03*
X79275000Y-77045000D03*
X72925000Y-75775000D03*
D13*
X66550000Y-68800000D03*
X69450000Y-68800000D03*
D16*
X68450000Y-55850000D03*
X68450000Y-58850000D03*
D17*
X71970000Y-39800000D03*
X69430000Y-39800000D03*
D18*
X54562540Y-60399100D03*
X54562540Y-61049100D03*
X54562540Y-61699100D03*
X54562540Y-62349100D03*
X54562540Y-62999100D03*
D19*
X54562540Y-59199100D03*
X54562540Y-64199100D03*
D20*
X51862540Y-58199100D03*
X51862540Y-65199100D03*
D21*
X98605000Y-66500000D03*
X97335000Y-66500000D03*
X96065000Y-66500000D03*
X94795000Y-66500000D03*
X94795000Y-71900000D03*
X96065000Y-71900000D03*
X97335000Y-71900000D03*
X98605000Y-71900000D03*
D22*
X102650000Y-64990000D03*
X102650000Y-66990000D03*
X102650000Y-68990000D03*
X102650000Y-70990000D03*
X102650000Y-72990000D03*
X102650000Y-74990000D03*
D23*
X118400000Y-62000000D03*
D24*
X116400000Y-62000000D03*
X114400000Y-62000000D03*
X112400000Y-62000000D03*
X110400000Y-62000000D03*
X108400000Y-62000000D03*
X106400000Y-62000000D03*
X104400000Y-62000000D03*
X104400000Y-78000000D03*
X106400000Y-78000000D03*
X108400000Y-78000000D03*
X110400000Y-78000000D03*
X112400000Y-78000000D03*
X114400000Y-78000000D03*
X116400000Y-78000000D03*
X118400000Y-78000000D03*
D25*
X95455000Y-44400000D03*
X93345000Y-44400000D03*
D16*
X75450000Y-55750000D03*
X75450000Y-58750000D03*
D26*
X74600000Y-79900000D03*
X77600000Y-79900000D03*
X104400000Y-58800000D03*
X107400000Y-58800000D03*
X95600000Y-74500000D03*
X98600000Y-74500000D03*
X112000000Y-45900000D03*
X115000000Y-45900000D03*
X55400000Y-55600000D03*
X52400000Y-55600000D03*
D16*
X80800000Y-42400000D03*
X80800000Y-45400000D03*
D26*
X74600000Y-82700000D03*
X77600000Y-82700000D03*
X74600000Y-85500000D03*
X77600000Y-85500000D03*
D16*
X98100000Y-46600000D03*
X98100000Y-49600000D03*
X120100000Y-59500000D03*
X120100000Y-56500000D03*
X77900000Y-42300000D03*
X77900000Y-45300000D03*
X87500000Y-72600000D03*
X87500000Y-69600000D03*
X87600000Y-62900000D03*
X87600000Y-65900000D03*
X95200000Y-46500000D03*
X95200000Y-49500000D03*
D27*
X87899140Y-44400000D03*
X91500860Y-44400000D03*
D28*
X122900000Y-45100000D03*
D29*
X125440000Y-45100000D03*
X122900000Y-47640000D03*
X125440000Y-47640000D03*
X122900000Y-50180000D03*
X125440000Y-50180000D03*
X122900000Y-52720000D03*
X125440000Y-52720000D03*
X122900000Y-55260000D03*
X125440000Y-55260000D03*
X122900000Y-57800000D03*
X125440000Y-57800000D03*
D13*
X69550000Y-77100000D03*
X66650000Y-77100000D03*
X110850000Y-58800000D03*
X113750000Y-58800000D03*
D30*
X75000000Y-45250000D03*
X75000000Y-42350000D03*
D13*
X86550000Y-39700000D03*
X83650000Y-39700000D03*
X66550000Y-74400000D03*
X69450000Y-74400000D03*
X100850000Y-46400000D03*
X103750000Y-46400000D03*
X103750000Y-49400000D03*
X100850000Y-49400000D03*
X66550000Y-71600000D03*
X69450000Y-71600000D03*
X103850000Y-42600000D03*
X106750000Y-42600000D03*
D30*
X106600000Y-37250000D03*
X106600000Y-40150000D03*
X97300000Y-37450000D03*
X97300000Y-40350000D03*
X109500000Y-40150000D03*
X109500000Y-37250000D03*
D13*
X112100000Y-43100000D03*
X115000000Y-43100000D03*
X116800000Y-43100000D03*
X119700000Y-43100000D03*
X66550000Y-65800000D03*
X69450000Y-65800000D03*
X58050000Y-72100000D03*
X55150000Y-72100000D03*
X57550000Y-78300000D03*
X60450000Y-78300000D03*
D31*
X83400000Y-72648860D03*
X83400000Y-62951140D03*
D26*
X116800000Y-45900000D03*
X119800000Y-45900000D03*
X61400000Y-48900000D03*
X64400000Y-48900000D03*
X64500000Y-42500000D03*
X61500000Y-42500000D03*
D16*
X68600000Y-45200000D03*
X68600000Y-48200000D03*
X71600000Y-45200000D03*
X71600000Y-48200000D03*
D32*
X52900000Y-46419860D03*
X52900000Y-43580140D03*
X52800000Y-52219860D03*
X52800000Y-49380140D03*
D33*
X101900760Y-43050000D03*
X101900760Y-41150000D03*
X99901780Y-42100000D03*
X111499240Y-37250000D03*
X111499240Y-39150000D03*
X113498220Y-38200000D03*
X99999240Y-37450000D03*
X99999240Y-39350000D03*
X101998220Y-38400000D03*
X85750000Y-42399240D03*
X83850000Y-42399240D03*
X84800000Y-44398220D03*
X90550000Y-48400760D03*
X92450000Y-48400760D03*
X91500000Y-46401780D03*
X58750000Y-76100760D03*
X60650000Y-76100760D03*
X59700000Y-74101780D03*
X56950000Y-74099240D03*
X55050000Y-74099240D03*
X56000000Y-76098220D03*
D13*
X61400000Y-40000000D03*
X64300000Y-40000000D03*
X61300000Y-51800000D03*
X64200000Y-51800000D03*
X68550000Y-50700000D03*
X71450000Y-50700000D03*
D30*
X55700000Y-43850000D03*
X55700000Y-46750000D03*
X55500000Y-49700000D03*
X55500000Y-52600000D03*
D13*
X119950000Y-80100000D03*
X122850000Y-80100000D03*
D34*
X70900000Y-56350000D03*
X70900000Y-57300000D03*
X70900000Y-58250000D03*
X73100000Y-58250000D03*
X73100000Y-56350000D03*
D35*
X61400000Y-44600000D03*
X61400000Y-45000000D03*
X61400000Y-45400000D03*
X61400000Y-45800000D03*
X61400000Y-46200000D03*
X61400000Y-46600000D03*
X61400000Y-47000000D03*
X64400000Y-47000000D03*
X64400000Y-46600000D03*
X64400000Y-46200000D03*
X64400000Y-45800000D03*
X64400000Y-45400000D03*
X64400000Y-45000000D03*
X64400000Y-44600000D03*
D36*
X62900000Y-45800000D03*
D37*
X117650240Y-57050040D03*
X117000000Y-57050040D03*
X116349760Y-57050040D03*
X116349760Y-58949960D03*
X117000000Y-58949960D03*
X117650240Y-58949960D03*
D30*
X52600000Y-68850000D03*
X52600000Y-71750000D03*
D38*
X62900000Y-83100000D03*
D26*
X111200000Y-54300000D03*
X108200000Y-54300000D03*
D13*
X110800000Y-56900000D03*
X113700000Y-56900000D03*
D39*
X114050000Y-48075000D03*
X114050000Y-48725000D03*
X114050000Y-49375000D03*
X114050000Y-50025000D03*
X114050000Y-50675000D03*
X114050000Y-51325000D03*
X114050000Y-51975000D03*
X114050000Y-52625000D03*
X114050000Y-53275000D03*
X114050000Y-53925000D03*
X119950000Y-53925000D03*
X119950000Y-53275000D03*
X119950000Y-52625000D03*
X119950000Y-51975000D03*
X119950000Y-51325000D03*
X119950000Y-50675000D03*
X119950000Y-50025000D03*
X119950000Y-49375000D03*
X119950000Y-48725000D03*
X119950000Y-48075000D03*
D26*
X115500000Y-40600000D03*
X118500000Y-40600000D03*
D40*
X105321853Y-72617722D03*
X105291211Y-58396818D03*
X72800000Y-54200006D03*
X101599976Y-56500000D03*
X109700000Y-83200000D03*
X57600000Y-44000000D03*
X57700000Y-50300000D03*
X116000000Y-52000000D03*
X93700000Y-79300000D03*
X93000000Y-70000000D03*
X93000000Y-70000000D03*
X124500000Y-80100000D03*
X100459558Y-51534766D03*
X98100000Y-51100000D03*
X95693675Y-50874675D03*
X92450000Y-50250000D03*
X79300000Y-46300000D03*
X118800000Y-45900000D03*
X117000000Y-40700000D03*
X107723450Y-57627188D03*
X101800004Y-78100000D03*
X62900000Y-43019000D03*
X64400000Y-50322480D03*
X110475898Y-43956898D03*
X80000000Y-83000000D03*
X79500000Y-80000000D03*
X87500000Y-67546756D03*
X65100000Y-64300000D03*
X75400000Y-60000000D03*
X69529063Y-57770937D03*
X73600000Y-50700000D03*
X114700000Y-39500000D03*
X121500000Y-59500000D03*
X100900000Y-55100000D03*
X108200000Y-64800000D03*
X98686009Y-69120077D03*
X98235658Y-81300000D03*
X92600000Y-82300000D03*
X56000000Y-77500000D03*
X111220960Y-65341160D03*
X99200000Y-54226485D03*
X115400000Y-55200000D03*
X104626414Y-49372935D03*
X117900000Y-43100000D03*
X118200000Y-57500000D03*
X115200000Y-80977740D03*
X96100000Y-55800000D03*
X98700000Y-70286773D03*
X100900000Y-82800000D03*
X97390390Y-68784814D03*
X100700000Y-68900000D03*
X97595109Y-83252649D03*
X100131058Y-81168938D03*
X99900000Y-70900000D03*
X95490380Y-77376090D03*
X94900000Y-69900000D03*
X94783210Y-83619238D03*
X111099996Y-84200000D03*
X83300000Y-53600000D03*
X112400000Y-57800000D03*
X110561551Y-73954750D03*
X90900000Y-66100000D03*
X114600000Y-38200000D03*
X66719221Y-47179836D03*
X71100000Y-43800000D03*
X60199992Y-44800000D03*
X60200000Y-46600000D03*
X63100000Y-49000000D03*
X65500000Y-47300000D03*
X65495076Y-46285602D03*
X62400000Y-51900000D03*
X66036383Y-45548625D03*
X68500000Y-49400000D03*
X96425845Y-77376090D03*
X97253991Y-73600000D03*
X96100000Y-83400000D03*
X115100000Y-59500000D03*
X115500000Y-64400000D03*
D41*
X66682956Y-44634214D02*
X67248742Y-45200000D01*
X65251732Y-45000000D02*
X65617518Y-44634214D01*
D42*
X67248742Y-53767742D02*
X68450000Y-54969000D01*
X67443122Y-47527309D02*
X67248742Y-47721689D01*
X67443122Y-45394380D02*
X67443122Y-47527309D01*
D41*
X64400000Y-45000000D02*
X65251732Y-45000000D01*
D42*
X67248742Y-47721689D02*
X67248742Y-53767742D01*
X67248742Y-45200000D02*
X67443122Y-45394380D01*
D41*
X65617518Y-44634214D02*
X66682956Y-44634214D01*
D42*
X68450000Y-54969000D02*
X68450000Y-55850000D01*
D43*
X67238742Y-45190000D02*
X67248742Y-45200000D01*
D42*
X70900000Y-56350000D02*
X71422222Y-56350000D01*
X71422222Y-56350000D02*
X71772901Y-56700679D01*
X71772901Y-56700679D02*
X71772901Y-57899321D01*
X71772901Y-57899321D02*
X71422222Y-58250000D01*
X71422222Y-58250000D02*
X70900000Y-58250000D01*
X68450000Y-55850000D02*
X70400000Y-55850000D01*
X70400000Y-55850000D02*
X70900000Y-56350000D01*
X67248742Y-45200000D02*
X68600000Y-45200000D01*
X75000000Y-45250000D02*
X74600000Y-45250000D01*
X74600000Y-45250000D02*
X73807099Y-46042901D01*
X73807099Y-46042901D02*
X70623901Y-46042901D01*
X70623901Y-46042901D02*
X69781000Y-45200000D01*
X69781000Y-45200000D02*
X68600000Y-45200000D01*
D41*
X102942895Y-82909619D02*
X101946389Y-81913113D01*
X114697409Y-79453711D02*
X114528620Y-79453712D01*
X101946389Y-81913113D02*
X101946389Y-80901714D01*
X115178610Y-78972510D02*
X114697409Y-79453711D01*
X108442833Y-81980781D02*
X107513995Y-82909619D01*
X79592500Y-74505000D02*
X79275000Y-74505000D01*
X112001551Y-81980781D02*
X108442833Y-81980781D01*
X99712198Y-80254525D02*
X98845259Y-81121464D01*
X101946389Y-80901714D02*
X101299200Y-80254525D01*
X116077490Y-76571390D02*
X115178610Y-77470270D01*
X118400000Y-78000000D02*
X118400000Y-77350000D01*
X93631065Y-83200000D02*
X88287500Y-83200000D01*
X107513995Y-82909619D02*
X102942895Y-82909619D01*
X101299200Y-80254525D02*
X99712198Y-80254525D01*
X88287500Y-83200000D02*
X79592500Y-74505000D01*
X98099647Y-82338221D02*
X94492844Y-82338221D01*
X117621390Y-76571390D02*
X116077490Y-76571390D01*
X94492844Y-82338221D02*
X93631065Y-83200000D01*
X114528620Y-79453712D02*
X112001551Y-81980781D01*
X118400000Y-77350000D02*
X117621390Y-76571390D01*
X98845259Y-81592609D02*
X98099647Y-82338221D01*
X98845259Y-81121464D02*
X98845259Y-81592609D01*
X115178610Y-77470270D02*
X115178610Y-78972510D01*
X109407391Y-82590399D02*
X107580000Y-84417790D01*
X112254065Y-82590399D02*
X109407391Y-82590399D01*
X116986670Y-80063330D02*
X114781134Y-80063330D01*
X118400000Y-78650000D02*
X116986670Y-80063330D01*
X118400000Y-78000000D02*
X118400000Y-78650000D01*
X114781134Y-80063330D02*
X112254065Y-82590399D01*
X107580000Y-84631600D02*
X107580000Y-85800000D01*
X107580000Y-84417790D02*
X107580000Y-84631600D01*
X99150070Y-81247720D02*
X99150070Y-81718865D01*
X101641578Y-81777246D02*
X100423668Y-80559336D01*
X93757322Y-83504811D02*
X87322310Y-83504810D01*
X105040000Y-85647600D02*
X101641578Y-82249178D01*
X98225903Y-82643032D02*
X94619100Y-82643032D01*
X94619100Y-82643032D02*
X93757322Y-83504811D01*
X79592500Y-75775000D02*
X79275000Y-75775000D01*
X87322310Y-83504810D02*
X79592500Y-75775000D01*
X101641578Y-82249178D02*
X101641578Y-81777246D01*
X100423668Y-80559336D02*
X99838454Y-80559336D01*
X99150070Y-81718865D02*
X98225903Y-82643032D01*
X99838454Y-80559336D02*
X99150070Y-81247720D01*
X105919124Y-85647600D02*
X105040000Y-85647600D01*
X114654877Y-79758521D02*
X112127808Y-82285590D01*
X116400000Y-78650000D02*
X115291479Y-79758521D01*
X115291479Y-79758521D02*
X114654877Y-79758521D01*
X109281134Y-82285590D02*
X105919124Y-85647600D01*
X112127808Y-82285590D02*
X109281134Y-82285590D01*
X116400000Y-78000000D02*
X116400000Y-78650000D01*
X105040000Y-85647600D02*
X105040000Y-85800000D01*
D42*
X98600000Y-74500000D02*
X97719000Y-74500000D01*
X95719000Y-76500000D02*
X91361189Y-76500000D01*
X97719000Y-74500000D02*
X95719000Y-76500000D01*
X117292910Y-59783892D02*
X117292910Y-63019855D01*
X109635622Y-63542910D02*
X109573601Y-63480889D01*
X117292910Y-63019855D02*
X116769855Y-63542910D01*
X116769855Y-63542910D02*
X109635622Y-63542910D01*
X108831876Y-63480889D02*
X108769855Y-63542910D01*
X109573601Y-63480889D02*
X108831876Y-63480889D01*
X101971540Y-56500000D02*
X101599976Y-56500000D01*
X114119000Y-45900000D02*
X108385955Y-51633045D01*
X115000000Y-45900000D02*
X114119000Y-45900000D01*
X108385955Y-51633045D02*
X106838494Y-51633045D01*
X106838494Y-51633045D02*
X101971540Y-56500000D01*
X114050000Y-48725000D02*
X114967222Y-48725000D01*
X114967222Y-48725000D02*
X115881000Y-47811222D01*
X115881000Y-47811222D02*
X115881000Y-47081000D01*
X115881000Y-47081000D02*
X115000000Y-46200000D01*
X115000000Y-46200000D02*
X115000000Y-45900000D01*
X110800000Y-56900000D02*
X110800000Y-58750000D01*
X110800000Y-58750000D02*
X110850000Y-58800000D01*
X110750000Y-58700000D02*
X110850000Y-58800000D01*
X105702852Y-63952852D02*
X105702852Y-72236723D01*
X105702852Y-72236723D02*
X105321853Y-72617722D01*
X105200000Y-63450000D02*
X105702852Y-63952852D01*
X105291211Y-58789789D02*
X105291211Y-58396818D01*
X104400000Y-58800000D02*
X105281000Y-58800000D01*
X105281000Y-58800000D02*
X105291211Y-58789789D01*
X73338815Y-54200006D02*
X72800000Y-54200006D01*
X73600006Y-54200006D02*
X73338815Y-54200006D01*
X75150000Y-55750000D02*
X73600006Y-54200006D01*
X75450000Y-55750000D02*
X75150000Y-55750000D01*
X91557049Y-67802498D02*
X91557049Y-66542927D01*
X101218977Y-56880999D02*
X101599976Y-56500000D01*
X91557049Y-66542927D02*
X101218977Y-56880999D01*
X91557049Y-76304140D02*
X91557049Y-67802498D01*
X88742901Y-62125679D02*
X82367222Y-55750000D01*
X91557049Y-67802498D02*
X88742901Y-64988350D01*
X76631000Y-55750000D02*
X75450000Y-55750000D01*
X88742901Y-64988350D02*
X88742901Y-62125679D01*
X82367222Y-55750000D02*
X76631000Y-55750000D01*
X82857500Y-76500000D02*
X91361189Y-76500000D01*
X91361189Y-76500000D02*
X91557049Y-76304140D01*
X79592500Y-73235000D02*
X82857500Y-76500000D01*
X110120000Y-83620000D02*
X109700000Y-83200000D01*
X110120000Y-85800000D02*
X110120000Y-83620000D01*
X71972500Y-77680000D02*
X72607500Y-77045000D01*
X72607500Y-77045000D02*
X72925000Y-77045000D01*
X69730000Y-77680000D02*
X71972500Y-77680000D01*
X69550000Y-77500000D02*
X69730000Y-77680000D01*
X69550000Y-77100000D02*
X69550000Y-77500000D01*
X74600000Y-85500000D02*
X74600000Y-82700000D01*
X74512500Y-77045000D02*
X74600000Y-77132500D01*
X74600000Y-77132500D02*
X74600000Y-82700000D01*
X74600000Y-77132500D02*
X74600000Y-79900000D01*
X79275000Y-73235000D02*
X78322500Y-73235000D01*
X78322500Y-73235000D02*
X74512500Y-77045000D01*
X74512500Y-77045000D02*
X73877500Y-77045000D01*
X73877500Y-77045000D02*
X72925000Y-77045000D01*
X79592500Y-73235000D02*
X79275000Y-73235000D01*
X57600000Y-44000000D02*
X55850000Y-44000000D01*
X55850000Y-44000000D02*
X55700000Y-43850000D01*
X57700000Y-50300000D02*
X56100000Y-50300000D01*
X56100000Y-50300000D02*
X55500000Y-49700000D01*
X73100000Y-56350000D02*
X74850000Y-56350000D01*
X74850000Y-56350000D02*
X75450000Y-55750000D01*
X117292910Y-59783892D02*
X118635108Y-59783892D01*
X118635108Y-59783892D02*
X118919000Y-59500000D01*
X118919000Y-59500000D02*
X120100000Y-59500000D01*
X117000000Y-58949960D02*
X117000000Y-59490982D01*
X117000000Y-59490982D02*
X117292910Y-59783892D01*
X105200000Y-63450000D02*
X105292910Y-63542910D01*
X105292910Y-63542910D02*
X108769855Y-63542910D01*
X108769855Y-63542910D02*
X109292910Y-63019855D01*
X109292910Y-60757090D02*
X110850000Y-59200000D01*
X109292910Y-63019855D02*
X109292910Y-60757090D01*
X110850000Y-59200000D02*
X110850000Y-58800000D01*
X98600000Y-74500000D02*
X98600000Y-71905000D01*
X98600000Y-71905000D02*
X98605000Y-71900000D01*
X104400000Y-62650000D02*
X105200000Y-63450000D01*
X104400000Y-62000000D02*
X104400000Y-62650000D01*
X104400000Y-62000000D02*
X104400000Y-58800000D01*
X117502123Y-55792267D02*
X117502123Y-53502123D01*
X117502123Y-53502123D02*
X116000000Y-52000000D01*
X94900000Y-78100000D02*
X93700000Y-79300000D01*
X101800004Y-78100000D02*
X94900000Y-78100000D01*
X93000000Y-70000000D02*
X93000000Y-72781000D01*
X93000000Y-72781000D02*
X94719000Y-74500000D01*
X94719000Y-74500000D02*
X95600000Y-74500000D01*
X94795000Y-66500000D02*
X94795000Y-68205000D01*
X94795000Y-68205000D02*
X93000000Y-70000000D01*
X122850000Y-80100000D02*
X124500000Y-80100000D01*
X108200000Y-54300000D02*
X107723450Y-54776550D01*
X107723450Y-54776550D02*
X107723450Y-57627188D01*
X79300000Y-46300000D02*
X78000000Y-46300000D01*
X78000000Y-46300000D02*
X73600000Y-50700000D01*
X79300000Y-45400000D02*
X78000000Y-45400000D01*
X80800000Y-45400000D02*
X79300000Y-45400000D01*
X79300000Y-45400000D02*
X79300000Y-46300000D01*
X78000000Y-45400000D02*
X77900000Y-45300000D01*
X110475898Y-43956898D02*
X110475898Y-44375898D01*
X110475898Y-44375898D02*
X112000000Y-45900000D01*
X110475898Y-43956898D02*
X111243102Y-43956898D01*
X111243102Y-43956898D02*
X112100000Y-43100000D01*
X119800000Y-45900000D02*
X118800000Y-45900000D01*
X121674499Y-46306501D02*
X121267998Y-45900000D01*
X121267998Y-45900000D02*
X119800000Y-45900000D01*
X119950000Y-53925000D02*
X119950000Y-56350000D01*
X119950000Y-56350000D02*
X120100000Y-56500000D01*
X118500000Y-40600000D02*
X117100000Y-40600000D01*
X117100000Y-40600000D02*
X117000000Y-40700000D01*
X107723450Y-58476550D02*
X107723450Y-58166003D01*
X107723450Y-58166003D02*
X107723450Y-57627188D01*
X107400000Y-58800000D02*
X107723450Y-58476550D01*
X117502123Y-55792267D02*
X118082733Y-55792267D01*
X118211267Y-55792267D02*
X117502123Y-55792267D01*
X117502123Y-55792267D02*
X117000000Y-56294390D01*
X117000000Y-56294390D02*
X117000000Y-57050040D01*
X117000000Y-57050040D02*
X117023901Y-57026139D01*
X104400000Y-78000000D02*
X101900004Y-78000000D01*
X101900004Y-78000000D02*
X101800004Y-78100000D01*
X64400000Y-50322480D02*
X64400000Y-51600000D01*
X64400000Y-48900000D02*
X64400000Y-50322480D01*
X108307099Y-41788099D02*
X110475898Y-43956898D01*
X108307099Y-39939877D02*
X108307099Y-41788099D01*
X101900760Y-41150000D02*
X102681810Y-41150000D01*
X102681810Y-41150000D02*
X104474711Y-39357099D01*
X104474711Y-39357099D02*
X107724321Y-39357099D01*
X107724321Y-39357099D02*
X108307099Y-39939877D01*
X71450000Y-50700000D02*
X71450000Y-48350000D01*
X71450000Y-48350000D02*
X71600000Y-48200000D01*
X78781000Y-83000000D02*
X80000000Y-83000000D01*
X77600000Y-82700000D02*
X78481000Y-82700000D01*
X78481000Y-82700000D02*
X78781000Y-83000000D01*
X77600000Y-79900000D02*
X79400000Y-79900000D01*
X79400000Y-79900000D02*
X79500000Y-80000000D01*
X87500000Y-67546756D02*
X87500000Y-66000000D01*
X87500000Y-69600000D02*
X87500000Y-67546756D01*
X87500000Y-66000000D02*
X87600000Y-65900000D01*
X66550000Y-71600000D02*
X66550000Y-65750000D01*
X66550000Y-65750000D02*
X65100000Y-64300000D01*
X66550000Y-71600000D02*
X66550000Y-65800000D01*
X66550000Y-71600000D02*
X66550000Y-68800000D01*
X66550000Y-74400000D02*
X66550000Y-71600000D01*
X77600000Y-79900000D02*
X77600000Y-78720000D01*
X77600000Y-78720000D02*
X79275000Y-77045000D01*
X77600000Y-82700000D02*
X77600000Y-79900000D01*
X77600000Y-85500000D02*
X77600000Y-82700000D01*
X52600000Y-68850000D02*
X52600000Y-65936560D01*
X52600000Y-65936560D02*
X51862540Y-65199100D01*
X54562540Y-64199100D02*
X52862540Y-64199100D01*
X52862540Y-64199100D02*
X51862540Y-65199100D01*
X54562540Y-64199100D02*
X54562540Y-62999100D01*
X51862540Y-58199100D02*
X51862540Y-65199100D01*
X51862540Y-58199100D02*
X53562540Y-58199100D01*
X53562540Y-58199100D02*
X54562540Y-59199100D01*
X52400000Y-55600000D02*
X52400000Y-57661640D01*
X52400000Y-57661640D02*
X51862540Y-58199100D01*
D43*
X61400000Y-45800000D02*
X62900000Y-45800000D01*
D42*
X61500000Y-42500000D02*
X61500000Y-42200000D01*
X63700000Y-40000000D02*
X64300000Y-40000000D01*
X61500000Y-42200000D02*
X63700000Y-40000000D01*
X64400000Y-51600000D02*
X64200000Y-51800000D01*
X62900000Y-45800000D02*
X62900000Y-43019000D01*
X62900000Y-43019000D02*
X62381000Y-42500000D01*
X62381000Y-42500000D02*
X61500000Y-42500000D01*
X62900000Y-45800000D02*
X62900000Y-47400000D01*
X62900000Y-47400000D02*
X64400000Y-48900000D01*
X75450000Y-58750000D02*
X75450000Y-59950000D01*
X75450000Y-59950000D02*
X75400000Y-60000000D01*
X69529063Y-57770937D02*
X69529063Y-58309752D01*
X69529063Y-58309752D02*
X70850311Y-59631000D01*
X70850311Y-59631000D02*
X74269000Y-59631000D01*
X74269000Y-59631000D02*
X75150000Y-58750000D01*
X75150000Y-58750000D02*
X75450000Y-58750000D01*
X69529063Y-57770937D02*
X70000000Y-57300000D01*
X68450000Y-58850000D02*
X69529063Y-57770937D01*
X70000000Y-57300000D02*
X70900000Y-57300000D01*
X71450000Y-50700000D02*
X73600000Y-50700000D01*
X71450000Y-50300000D02*
X71450000Y-50700000D01*
X71600000Y-48200000D02*
X68600000Y-48200000D01*
X71700000Y-48100000D02*
X71600000Y-48200000D01*
X99999240Y-39350000D02*
X100100760Y-39350000D01*
X100100760Y-39350000D02*
X101900760Y-41150000D01*
X103750000Y-81200000D02*
X103750000Y-78650000D01*
X103750000Y-78650000D02*
X104400000Y-78000000D01*
X120100000Y-56500000D02*
X121400000Y-57800000D01*
X121400000Y-57800000D02*
X122900000Y-57800000D01*
X125440000Y-45100000D02*
X124233499Y-46306501D01*
X124233499Y-46306501D02*
X121674499Y-46306501D01*
X118211267Y-55792267D02*
X118919000Y-56500000D01*
X118919000Y-56500000D02*
X120100000Y-56500000D01*
X95693675Y-50874675D02*
X95725325Y-50874675D01*
X95200000Y-50381000D02*
X95693675Y-50874675D01*
X95200000Y-49500000D02*
X95200000Y-50381000D01*
X80800000Y-45501520D02*
X80800000Y-45400000D01*
X77900000Y-45300000D02*
X78200000Y-45300000D01*
X100459558Y-50995951D02*
X100459558Y-51534766D01*
X100459558Y-49790442D02*
X100459558Y-50995951D01*
X100850000Y-49400000D02*
X100459558Y-49790442D01*
X92450000Y-48400760D02*
X92450000Y-50250000D01*
X92450000Y-50250000D02*
X92400000Y-50300000D01*
X98100000Y-49600000D02*
X98100000Y-51100000D01*
X119700000Y-43100000D02*
X119700000Y-43500000D01*
X119700000Y-43500000D02*
X117300000Y-45900000D01*
X117300000Y-45900000D02*
X116800000Y-45900000D01*
X122900000Y-45100000D02*
X122900000Y-43855400D01*
X122900000Y-43855400D02*
X122144600Y-43100000D01*
X122144600Y-43100000D02*
X120531000Y-43100000D01*
X120531000Y-43100000D02*
X119700000Y-43100000D01*
X119950000Y-48725000D02*
X118844000Y-48725000D01*
X116800000Y-46681000D02*
X116800000Y-45900000D01*
X118844000Y-48725000D02*
X116800000Y-46681000D01*
X122600000Y-44800000D02*
X122900000Y-45100000D01*
X78322500Y-70695000D02*
X79275000Y-70695000D01*
X68676600Y-61049100D02*
X78322500Y-70695000D01*
X54562540Y-61049100D02*
X68676600Y-61049100D01*
X54562540Y-61699100D02*
X67911822Y-61699100D01*
X67911822Y-61699100D02*
X78177722Y-71965000D01*
X78177722Y-71965000D02*
X78322500Y-71965000D01*
X78322500Y-71965000D02*
X79275000Y-71965000D01*
D41*
X116349760Y-58949960D02*
X116349760Y-61949760D01*
X116349760Y-61949760D02*
X116400000Y-62000000D01*
X113750000Y-58800000D02*
X114352400Y-58800000D01*
X114352400Y-58800000D02*
X114400000Y-58847600D01*
X114400000Y-58847600D02*
X114400000Y-60647600D01*
X114400000Y-60647600D02*
X114400000Y-62000000D01*
X108873800Y-60173800D02*
X108400000Y-60647600D01*
X108873800Y-55768749D02*
X108873800Y-60173800D01*
X110004811Y-54637738D02*
X108873800Y-55768749D01*
X110004811Y-53352640D02*
X110004811Y-54637738D01*
X110732451Y-52625000D02*
X110004811Y-53352640D01*
X108400000Y-60647600D02*
X108400000Y-62000000D01*
X114050000Y-52625000D02*
X110732451Y-52625000D01*
X106400000Y-62000000D02*
X106400000Y-61350000D01*
X110951384Y-51975000D02*
X114050000Y-51975000D01*
X106400000Y-61350000D02*
X107102400Y-60647600D01*
X107102400Y-60647600D02*
X107752400Y-60647600D01*
X107752400Y-60647600D02*
X108394942Y-60005058D01*
X108394942Y-60005058D02*
X108394942Y-55816540D01*
X108394942Y-55816540D02*
X109700000Y-54511482D01*
X109700000Y-54511482D02*
X109700000Y-53226384D01*
X109700000Y-53226384D02*
X110951384Y-51975000D01*
X119950000Y-48075000D02*
X122465000Y-48075000D01*
X122465000Y-48075000D02*
X122900000Y-47640000D01*
X119950000Y-49375000D02*
X120827400Y-49375000D01*
X120827400Y-49375000D02*
X121470199Y-48732201D01*
X121470199Y-48732201D02*
X124347799Y-48732201D01*
X124347799Y-48732201D02*
X124576401Y-48503599D01*
X124576401Y-48503599D02*
X125440000Y-47640000D01*
X119950000Y-50025000D02*
X122745000Y-50025000D01*
X122745000Y-50025000D02*
X122900000Y-50180000D01*
X119950000Y-50675000D02*
X120827400Y-50675000D01*
X120827400Y-50675000D02*
X121424601Y-51272201D01*
X121424601Y-51272201D02*
X124347799Y-51272201D01*
X124347799Y-51272201D02*
X124576401Y-51043599D01*
X124576401Y-51043599D02*
X125440000Y-50180000D01*
X119950000Y-51325000D02*
X120827400Y-51325000D01*
X120827400Y-51325000D02*
X121358801Y-51856401D01*
X121358801Y-51856401D02*
X122036401Y-51856401D01*
X122036401Y-51856401D02*
X122900000Y-52720000D01*
X122705000Y-52525000D02*
X122900000Y-52720000D01*
X122330000Y-52150000D02*
X122900000Y-52720000D01*
X124347799Y-53812201D02*
X124576401Y-53583599D01*
X120608466Y-51975000D02*
X122445667Y-53812201D01*
X119950000Y-51975000D02*
X120608466Y-51975000D01*
X124576401Y-53583599D02*
X125440000Y-52720000D01*
X122445667Y-53812201D02*
X124347799Y-53812201D01*
X122900000Y-54697600D02*
X122900000Y-55260000D01*
X120827400Y-52625000D02*
X122900000Y-54697600D01*
X119950000Y-52625000D02*
X120827400Y-52625000D01*
D42*
X119950000Y-80100000D02*
X119950000Y-61050000D01*
X119950000Y-61050000D02*
X120000000Y-61000000D01*
X120000000Y-82143000D02*
X119950000Y-82093000D01*
X119950000Y-82093000D02*
X119950000Y-80100000D01*
X113800000Y-39500000D02*
X114700000Y-39500000D01*
X115500000Y-40600000D02*
X114900000Y-40600000D01*
X114900000Y-40600000D02*
X113800000Y-39500000D01*
X109500000Y-39319000D02*
X109500000Y-40150000D01*
X104253766Y-38823689D02*
X109004689Y-38823689D01*
X101347534Y-39166636D02*
X103910819Y-39166636D01*
X99158829Y-38773089D02*
X99731918Y-38200000D01*
X99731918Y-38200000D02*
X100380898Y-38200000D01*
X103910819Y-39166636D02*
X104253766Y-38823689D01*
X100850000Y-46400000D02*
X100850000Y-45169000D01*
X109004689Y-38823689D02*
X109500000Y-39319000D01*
X100850000Y-45169000D02*
X99158829Y-43477829D01*
X99158829Y-43477829D02*
X99158829Y-38773089D01*
X100380898Y-38200000D02*
X101347534Y-39166636D01*
X113800000Y-39500000D02*
X111849240Y-39500000D01*
X111849240Y-39500000D02*
X111499240Y-39150000D01*
X120000000Y-61000000D02*
X120517222Y-61000000D01*
X120517222Y-61000000D02*
X121500000Y-60017222D01*
X121500000Y-60017222D02*
X121500000Y-59500000D01*
X117740000Y-85800000D02*
X117740000Y-84403000D01*
X117740000Y-84403000D02*
X120000000Y-82143000D01*
X98100000Y-46600000D02*
X99281000Y-46600000D01*
X99281000Y-46600000D02*
X99481000Y-46400000D01*
X99481000Y-46400000D02*
X100850000Y-46400000D01*
X95200000Y-46500000D02*
X98000000Y-46500000D01*
X98000000Y-46500000D02*
X98100000Y-46600000D01*
X95455000Y-44400000D02*
X95455000Y-46245000D01*
X95455000Y-46245000D02*
X95200000Y-46500000D01*
X111499240Y-39150000D02*
X110500000Y-39150000D01*
X110500000Y-39150000D02*
X109500000Y-40150000D01*
D41*
X106750000Y-48757288D02*
X101280999Y-54226289D01*
X101280999Y-54719001D02*
X100900000Y-55100000D01*
X101280999Y-54226289D02*
X101280999Y-54719001D01*
X106750000Y-42600000D02*
X106750000Y-48757288D01*
X107819001Y-65180999D02*
X108200000Y-64800000D01*
X107819001Y-67552277D02*
X107819001Y-65180999D01*
X108400000Y-78000000D02*
X108400000Y-68133276D01*
X108400000Y-68133276D02*
X107819001Y-67552277D01*
X98605000Y-69039068D02*
X98686009Y-69120077D01*
X98605000Y-66500000D02*
X98605000Y-69039068D01*
X103069151Y-82604808D02*
X107147592Y-82604808D01*
X98235658Y-81300000D02*
X99585944Y-79949714D01*
X99585944Y-79949714D02*
X101425456Y-79949714D01*
X102251200Y-81786857D02*
X103069151Y-82604808D01*
X107147592Y-82604808D02*
X110400000Y-79352400D01*
X102251200Y-80775458D02*
X102251200Y-81786857D01*
X110400000Y-79352400D02*
X110400000Y-78000000D01*
X101425456Y-79949714D02*
X102251200Y-80775458D01*
X97502247Y-82033411D02*
X98235658Y-81300000D01*
X93138815Y-82300000D02*
X93405404Y-82033411D01*
X92600000Y-82300000D02*
X93138815Y-82300000D01*
X93405404Y-82033411D02*
X97502247Y-82033411D01*
X110400000Y-78000000D02*
X110400000Y-77350000D01*
X56000000Y-76098220D02*
X56000000Y-77500000D01*
X98605000Y-66500000D02*
X98605000Y-66025000D01*
X111601959Y-65722159D02*
X111220960Y-65341160D01*
X114400000Y-68520200D02*
X111601959Y-65722159D01*
X114400000Y-78000000D02*
X114400000Y-68520200D01*
X98143275Y-54226485D02*
X99200000Y-54226485D01*
X97300000Y-41376482D02*
X94171399Y-44505083D01*
X94171399Y-50254609D02*
X98143275Y-54226485D01*
X94171399Y-44505083D02*
X94171399Y-50254609D01*
X97300000Y-40350000D02*
X97300000Y-41376482D01*
X103850000Y-42600000D02*
X102350760Y-42600000D01*
X102350760Y-42600000D02*
X101900760Y-43050000D01*
X100454230Y-42100000D02*
X99901780Y-42100000D01*
X106200000Y-40150000D02*
X105597600Y-40752400D01*
X102692711Y-42100000D02*
X100454230Y-42100000D01*
X106600000Y-40150000D02*
X106200000Y-40150000D01*
X105597600Y-40752400D02*
X104040311Y-40752400D01*
X104040311Y-40752400D02*
X102692711Y-42100000D01*
X111499240Y-37250000D02*
X106600000Y-37250000D01*
X111499240Y-37250000D02*
X110946790Y-37250000D01*
X110946790Y-37250000D02*
X109500000Y-37250000D01*
X99999240Y-37450000D02*
X99446790Y-37450000D01*
X99446790Y-37450000D02*
X97300000Y-37450000D01*
D42*
X115780999Y-55580999D02*
X115400000Y-55200000D01*
X116349760Y-56149760D02*
X115780999Y-55580999D01*
X116349760Y-57050040D02*
X116349760Y-56149760D01*
X104599349Y-49400000D02*
X104626414Y-49372935D01*
X103750000Y-49400000D02*
X104599349Y-49400000D01*
X103750000Y-46400000D02*
X103750000Y-49400000D01*
X84800000Y-44398220D02*
X87897360Y-44398220D01*
X87897360Y-44398220D02*
X87899140Y-44400000D01*
D41*
X84801780Y-44400000D02*
X84800000Y-44398220D01*
X116800000Y-43100000D02*
X116197600Y-43100000D01*
X116197600Y-43100000D02*
X115000000Y-43100000D01*
X116800000Y-43100000D02*
X117900000Y-43100000D01*
X117650240Y-57050040D02*
X117750040Y-57050040D01*
X117750040Y-57050040D02*
X118200000Y-57500000D01*
X83400000Y-72648860D02*
X87451140Y-72648860D01*
X87451140Y-72648860D02*
X87500000Y-72600000D01*
X79275000Y-69425000D02*
X81926200Y-69425000D01*
X81926200Y-69425000D02*
X83400000Y-70898800D01*
X83400000Y-70898800D02*
X83400000Y-72648860D01*
X79275000Y-68155000D02*
X79946200Y-68155000D01*
X79946200Y-68155000D02*
X83400000Y-64701200D01*
X83400000Y-64701200D02*
X83400000Y-62951140D01*
X83400000Y-62951140D02*
X87548860Y-62951140D01*
X87548860Y-62951140D02*
X87600000Y-62900000D01*
D42*
X115200000Y-85800000D02*
X115200000Y-80977740D01*
X96100000Y-55800000D02*
X95561185Y-55800000D01*
X95561185Y-55800000D02*
X91500000Y-51738815D01*
X91500000Y-51738815D02*
X91500000Y-47182830D01*
X91500000Y-47182830D02*
X91500000Y-46401780D01*
X91500860Y-44400000D02*
X93345000Y-44400000D01*
X91500000Y-46401780D02*
X91500000Y-44400860D01*
X91500000Y-44400860D02*
X91500860Y-44400000D01*
D41*
X98076399Y-69663172D02*
X98076399Y-68168799D01*
X98700000Y-70286773D02*
X98076399Y-69663172D01*
X98076399Y-68168799D02*
X97335000Y-67427400D01*
X97335000Y-67427400D02*
X97335000Y-66500000D01*
X102500000Y-85800000D02*
X102500000Y-84400000D01*
X102500000Y-84400000D02*
X100900000Y-82800000D01*
X97335000Y-66500000D02*
X97335000Y-66975000D01*
X102000000Y-66990000D02*
X102650000Y-66990000D01*
X102185569Y-59302949D02*
X97335000Y-64153518D01*
X107012095Y-52052155D02*
X102185569Y-56878681D01*
X108559557Y-52052155D02*
X107012095Y-52052155D01*
X112536712Y-48075000D02*
X108559557Y-52052155D01*
X102185569Y-56878681D02*
X102185569Y-59302949D01*
X114050000Y-48075000D02*
X112536712Y-48075000D01*
X99163518Y-64153518D02*
X102000000Y-66990000D01*
X97335000Y-64153518D02*
X99163518Y-64153518D01*
X103300000Y-66990000D02*
X102650000Y-66990000D01*
X97335000Y-65572600D02*
X97335000Y-66500000D01*
X97335000Y-64153518D02*
X97335000Y-65572600D01*
X97610004Y-68990000D02*
X97404818Y-68784814D01*
X97404818Y-68784814D02*
X97390390Y-68784814D01*
X102000000Y-70990000D02*
X100700000Y-69690000D01*
X100700000Y-69690000D02*
X100700000Y-68900000D01*
X114050000Y-50025000D02*
X111448846Y-50025000D01*
X104383421Y-66541234D02*
X104383421Y-69906579D01*
X103011768Y-56914616D02*
X103011768Y-63600648D01*
X104290378Y-66448191D02*
X104383421Y-66541234D01*
X104383421Y-69906579D02*
X103300000Y-70990000D01*
X108812069Y-52661777D02*
X107264607Y-52661777D01*
X107264607Y-52661777D02*
X103011768Y-56914616D01*
X103300000Y-70990000D02*
X102650000Y-70990000D01*
X103011768Y-63600648D02*
X104290378Y-64879258D01*
X111448846Y-50025000D02*
X108812069Y-52661777D01*
X104290378Y-64879258D02*
X104290378Y-66448191D01*
X97420000Y-83427758D02*
X97595109Y-83252649D01*
X97420000Y-85800000D02*
X97420000Y-83427758D01*
X96065000Y-66500000D02*
X96065000Y-67427400D01*
X102000000Y-70990000D02*
X102650000Y-70990000D01*
X96065000Y-67427400D02*
X97627600Y-68990000D01*
X99357584Y-70896399D02*
X99361185Y-70900000D01*
X97863601Y-70896399D02*
X99357584Y-70896399D01*
X97335000Y-71425000D02*
X97863601Y-70896399D01*
X99960000Y-81339996D02*
X100131058Y-81168938D01*
X97335000Y-71900000D02*
X97335000Y-71425000D01*
X99960000Y-85800000D02*
X99960000Y-81339996D01*
X99361185Y-70900000D02*
X99900000Y-70900000D01*
X100507390Y-68190398D02*
X101200398Y-68190398D01*
X99900000Y-68797788D02*
X100507390Y-68190398D01*
X99900000Y-70900000D02*
X99900000Y-68797788D01*
X101200398Y-68190398D02*
X102000000Y-68990000D01*
X102000000Y-68990000D02*
X102650000Y-68990000D01*
X108685813Y-52356966D02*
X107138351Y-52356966D01*
X102590378Y-56904939D02*
X102590378Y-62058502D01*
X104078610Y-66667490D02*
X104078610Y-68211390D01*
X101708879Y-65800000D02*
X103211120Y-65800000D01*
X107138351Y-52356966D02*
X102590378Y-56904939D01*
X103211120Y-65800000D02*
X104078610Y-66667490D01*
X111667779Y-49375000D02*
X108685813Y-52356966D01*
X114050000Y-49375000D02*
X111667779Y-49375000D01*
X102590378Y-62058502D02*
X101221390Y-63427490D01*
X101221390Y-63427490D02*
X101221390Y-65312511D01*
X103300000Y-68990000D02*
X102650000Y-68990000D01*
X104078610Y-68211390D02*
X103300000Y-68990000D01*
X101221390Y-65312511D02*
X101708879Y-65800000D01*
X102650000Y-68852874D02*
X102650000Y-68990000D01*
X97335000Y-71900000D02*
X97335000Y-72375000D01*
X96099982Y-76766488D02*
X95871379Y-76995091D01*
X95871379Y-76995091D02*
X95490380Y-77376090D01*
X102000000Y-72990000D02*
X98223512Y-76766488D01*
X98223512Y-76766488D02*
X96099982Y-76766488D01*
X102650000Y-72990000D02*
X102000000Y-72990000D01*
X94795000Y-71900000D02*
X94795000Y-70005000D01*
X94795000Y-70005000D02*
X94900000Y-69900000D01*
X94795000Y-71900000D02*
X94795000Y-72043219D01*
X104595189Y-66321935D02*
X104688232Y-66414978D01*
X104595189Y-64753002D02*
X104595189Y-66321935D01*
X107390863Y-52966588D02*
X103316579Y-57040872D01*
X108938325Y-52966588D02*
X107390863Y-52966588D01*
X111229913Y-50675000D02*
X108938325Y-52966588D01*
X103300000Y-72990000D02*
X102650000Y-72990000D01*
X114050000Y-50675000D02*
X111229913Y-50675000D01*
X103316579Y-63474392D02*
X104595189Y-64753002D01*
X104688232Y-71601768D02*
X103300000Y-72990000D01*
X103316579Y-57040872D02*
X103316579Y-63474392D01*
X104688232Y-66414978D02*
X104688232Y-71601768D01*
X103300000Y-72990000D02*
X102650000Y-72990000D01*
X92340000Y-85647600D02*
X94368362Y-83619238D01*
X94368362Y-83619238D02*
X94783210Y-83619238D01*
X92340000Y-85800000D02*
X92340000Y-85647600D01*
X111480995Y-83819001D02*
X111099996Y-84200000D01*
X114931857Y-80368139D02*
X111480995Y-83819001D01*
X119178610Y-79060205D02*
X117870676Y-80368139D01*
X118400000Y-62000000D02*
X118400000Y-63352400D01*
X118400000Y-63352400D02*
X119178610Y-64131010D01*
X117870676Y-80368139D02*
X114931857Y-80368139D01*
X119178610Y-64131010D02*
X119178610Y-79060205D01*
X61428601Y-86528601D02*
X52600000Y-77700000D01*
X52600000Y-77700000D02*
X52600000Y-71750000D01*
X89800000Y-85800000D02*
X88784000Y-85800000D01*
X88784000Y-85800000D02*
X88055399Y-86528601D01*
X88055399Y-86528601D02*
X61428601Y-86528601D01*
D42*
X66650000Y-77100000D02*
X65819000Y-77100000D01*
X65819000Y-77100000D02*
X63678054Y-74959054D01*
X63678054Y-74959054D02*
X60707652Y-74959054D01*
X59700000Y-74882830D02*
X59700000Y-74101780D01*
X60707652Y-74959054D02*
X59776224Y-74959054D01*
X61645045Y-74021661D02*
X60707652Y-74959054D01*
X61645045Y-71514758D02*
X61645045Y-74021661D01*
X59437156Y-69306869D02*
X61645045Y-71514758D01*
X53000000Y-71750000D02*
X55443131Y-69306869D01*
X52600000Y-71750000D02*
X53000000Y-71750000D01*
X59776224Y-74959054D02*
X59700000Y-74882830D01*
X55443131Y-69306869D02*
X59437156Y-69306869D01*
D41*
X85750000Y-42399240D02*
X85750000Y-39897600D01*
X85750000Y-39897600D02*
X85947600Y-39700000D01*
X85947600Y-39700000D02*
X86550000Y-39700000D01*
X83300000Y-53061185D02*
X83300000Y-53600000D01*
X85197550Y-42399240D02*
X83300000Y-44296790D01*
X85750000Y-42399240D02*
X85197550Y-42399240D01*
X83300000Y-44296790D02*
X83300000Y-53061185D01*
X112400000Y-62000000D02*
X112400000Y-57800000D01*
X112400000Y-78000000D02*
X112400000Y-75793199D01*
X110942550Y-74335749D02*
X110561551Y-73954750D01*
X112400000Y-75793199D02*
X110942550Y-74335749D01*
X90900000Y-66100000D02*
X90900000Y-48750760D01*
X90900000Y-48750760D02*
X90550000Y-48400760D01*
D42*
X58750000Y-76100760D02*
X58750000Y-72800000D01*
X58750000Y-72800000D02*
X58050000Y-72100000D01*
X69450000Y-74400000D02*
X70281000Y-74400000D01*
X70281000Y-74400000D02*
X72716000Y-71965000D01*
X72716000Y-71965000D02*
X72925000Y-71965000D01*
X69450000Y-71600000D02*
X70281000Y-71600000D01*
X70281000Y-71600000D02*
X71186000Y-70695000D01*
X71186000Y-70695000D02*
X71972500Y-70695000D01*
X71972500Y-70695000D02*
X72925000Y-70695000D01*
X69450000Y-68800000D02*
X72300000Y-68800000D01*
X72300000Y-68800000D02*
X72925000Y-69425000D01*
X69450000Y-65800000D02*
X69450000Y-66200000D01*
X69450000Y-66200000D02*
X71405000Y-68155000D01*
X71405000Y-68155000D02*
X71972500Y-68155000D01*
X71972500Y-68155000D02*
X72925000Y-68155000D01*
D41*
X119950000Y-53275000D02*
X120827400Y-53275000D01*
X120827400Y-53275000D02*
X121807799Y-54255399D01*
X121807799Y-55784257D02*
X122375743Y-56352201D01*
X121807799Y-54255399D02*
X121807799Y-55784257D01*
X122375743Y-56352201D02*
X124347799Y-56352201D01*
X124347799Y-56352201D02*
X124576401Y-56123599D01*
X124576401Y-56123599D02*
X125440000Y-55260000D01*
X101998220Y-38400000D02*
X113298220Y-38400000D01*
X113298220Y-38400000D02*
X113498220Y-38200000D01*
X114600000Y-38200000D02*
X113498220Y-38200000D01*
D42*
X80800000Y-42400000D02*
X75050000Y-42400000D01*
X75050000Y-42400000D02*
X75000000Y-42350000D01*
X80800000Y-42400000D02*
X78000000Y-42400000D01*
X78000000Y-42400000D02*
X77900000Y-42300000D01*
X83850000Y-42399240D02*
X80800760Y-42399240D01*
X80800760Y-42399240D02*
X80800000Y-42400000D01*
X83850000Y-42399240D02*
X83850000Y-39900000D01*
X83850000Y-39900000D02*
X83650000Y-39700000D01*
D41*
X114050000Y-53275000D02*
X113172600Y-53275000D01*
X110471399Y-53317119D02*
X110471399Y-55282881D01*
X111528601Y-55917119D02*
X111528601Y-60221399D01*
X113172600Y-53275000D02*
X113168999Y-53271399D01*
X113168999Y-53271399D02*
X110517119Y-53271399D01*
X110471399Y-55282881D02*
X111009917Y-55821399D01*
X110517119Y-53271399D02*
X110471399Y-53317119D01*
X111009917Y-55821399D02*
X111432881Y-55821399D01*
X111432881Y-55821399D02*
X111528601Y-55917119D01*
X111528601Y-60221399D02*
X110400000Y-61350000D01*
X110400000Y-61350000D02*
X110400000Y-62000000D01*
X65989456Y-47909601D02*
X66338222Y-47560835D01*
X65057201Y-47909601D02*
X65989456Y-47909601D01*
X64400000Y-47000000D02*
X64400000Y-47252400D01*
X65311607Y-45371191D02*
X65743774Y-44939024D01*
X64902400Y-45400000D02*
X64931209Y-45371191D01*
X64400000Y-45400000D02*
X64902400Y-45400000D01*
X65743774Y-44939024D02*
X66328992Y-44939024D01*
X66328992Y-44939024D02*
X66719221Y-45329253D01*
X66338222Y-47560835D02*
X66719221Y-47179836D01*
X64931209Y-45371191D02*
X65311607Y-45371191D01*
X66719221Y-45329253D02*
X66719221Y-46641021D01*
X64400000Y-47252400D02*
X65057201Y-47909601D01*
X66719221Y-46641021D02*
X66719221Y-47179836D01*
D43*
X71970000Y-43742350D02*
X71970000Y-44830000D01*
X71970000Y-39800000D02*
X71970000Y-43742350D01*
X71970000Y-43742350D02*
X71157650Y-43742350D01*
X71157650Y-43742350D02*
X71100000Y-43800000D01*
X71970000Y-44830000D02*
X71600000Y-45200000D01*
D41*
X60399992Y-45000000D02*
X60199992Y-44800000D01*
X61400000Y-45000000D02*
X60399992Y-45000000D01*
X60200000Y-46600000D02*
X61400000Y-46600000D01*
D42*
X55400000Y-55600000D02*
X55400000Y-55900000D01*
X55400000Y-55900000D02*
X55530441Y-56030441D01*
X55530441Y-56030441D02*
X55530441Y-59663693D01*
X55530441Y-59663693D02*
X54795034Y-60399100D01*
X54795034Y-60399100D02*
X54562540Y-60399100D01*
X55400000Y-55600000D02*
X55400000Y-55200000D01*
X55400000Y-55200000D02*
X61400000Y-49200000D01*
X61400000Y-49200000D02*
X61400000Y-48900000D01*
D41*
X63100000Y-49000000D02*
X61500000Y-49000000D01*
X61500000Y-49000000D02*
X61400000Y-48900000D01*
X61400000Y-46600000D02*
X61400000Y-47000000D01*
X61400000Y-48900000D02*
X61400000Y-47000000D01*
X64400000Y-46600000D02*
X64800000Y-46600000D01*
X64800000Y-46600000D02*
X65500000Y-47300000D01*
X64500000Y-42500000D02*
X64500000Y-44500000D01*
X64500000Y-44500000D02*
X64400000Y-44600000D01*
X52800000Y-46400000D02*
X53150000Y-46750000D01*
X53150000Y-46750000D02*
X55700000Y-46750000D01*
X60602210Y-45400000D02*
X60492609Y-45509601D01*
X59807391Y-45509601D02*
X59683379Y-45385589D01*
X61400000Y-45400000D02*
X60602210Y-45400000D01*
X60492609Y-45509601D02*
X59807391Y-45509601D01*
X59683379Y-45385589D02*
X54807049Y-45385589D01*
X54807049Y-45385589D02*
X53001600Y-43580140D01*
X53001600Y-43580140D02*
X52900000Y-43580140D01*
X52800000Y-52219860D02*
X55119860Y-52219860D01*
X55119860Y-52219860D02*
X55500000Y-52600000D01*
X54489741Y-47690399D02*
X53066333Y-49113807D01*
X59907391Y-45990399D02*
X58207391Y-47690399D01*
X60492609Y-45990399D02*
X59907391Y-45990399D01*
X58207391Y-47690399D02*
X54489741Y-47690399D01*
X60702210Y-46200000D02*
X60492609Y-45990399D01*
X61400000Y-46200000D02*
X60702210Y-46200000D01*
X52901600Y-49380140D02*
X52800000Y-49380140D01*
X67282881Y-78178601D02*
X63280291Y-78178601D01*
X61202450Y-76100760D02*
X60650000Y-76100760D01*
X70125911Y-75716589D02*
X68790862Y-75716590D01*
X67328601Y-78132881D02*
X67282881Y-78178601D01*
X67328601Y-77178851D02*
X67328601Y-78132881D01*
X72925000Y-73235000D02*
X72607500Y-73235000D01*
X63280291Y-78178601D02*
X61202450Y-76100760D01*
X68790862Y-75716590D02*
X67328601Y-77178851D01*
X72607500Y-73235000D02*
X70125911Y-75716589D01*
D42*
X60650000Y-76100760D02*
X60650000Y-78100000D01*
X60650000Y-78100000D02*
X60450000Y-78300000D01*
X56950000Y-74099240D02*
X56950000Y-77700000D01*
X56950000Y-77700000D02*
X57550000Y-78300000D01*
D41*
X66192548Y-79700000D02*
X57238518Y-79700000D01*
X57238518Y-79700000D02*
X55050000Y-77511482D01*
X55050000Y-77511482D02*
X55050000Y-74651690D01*
X55050000Y-74651690D02*
X55050000Y-74099240D01*
X72925000Y-74505000D02*
X72607500Y-74505000D01*
X72607500Y-74505000D02*
X71091101Y-76021399D01*
X67633410Y-78259138D02*
X66192548Y-79700000D01*
X71091101Y-76021399D02*
X68917119Y-76021399D01*
X68917119Y-76021399D02*
X67633411Y-77305107D01*
X67633411Y-77305107D02*
X67633410Y-78259138D01*
D42*
X55050000Y-74099240D02*
X55050000Y-72200000D01*
X55050000Y-72200000D02*
X55150000Y-72100000D01*
D41*
X61400000Y-40000000D02*
X60797600Y-40000000D01*
X60797600Y-40000000D02*
X60771399Y-40026201D01*
X60771399Y-40026201D02*
X60771399Y-43718999D01*
X60771399Y-43718999D02*
X61400000Y-44347600D01*
X61400000Y-44347600D02*
X61400000Y-44600000D01*
X64400000Y-46200000D02*
X65409474Y-46200000D01*
X65409474Y-46200000D02*
X65495076Y-46285602D01*
X62400000Y-51900000D02*
X61400000Y-51900000D01*
X61400000Y-51900000D02*
X61300000Y-51800000D01*
X64400000Y-45800000D02*
X65078468Y-45800000D01*
X65078468Y-45800000D02*
X65202467Y-45676001D01*
X65909007Y-45676001D02*
X66036383Y-45548625D01*
X65202467Y-45676001D02*
X65909007Y-45676001D01*
X68500000Y-49400000D02*
X68500000Y-50650000D01*
X68500000Y-50650000D02*
X68550000Y-50700000D01*
X113700000Y-56900000D02*
X113700000Y-54275000D01*
X113700000Y-54275000D02*
X114050000Y-53925000D01*
X114050000Y-53925000D02*
X111575000Y-53925000D01*
X111575000Y-53925000D02*
X111200000Y-54300000D01*
X113350000Y-56600000D02*
X113650000Y-56900000D01*
X101297600Y-74990000D02*
X98911510Y-77376090D01*
X98911510Y-77376090D02*
X96964660Y-77376090D01*
X96964660Y-77376090D02*
X96425845Y-77376090D01*
X102650000Y-74990000D02*
X101297600Y-74990000D01*
X94880000Y-85800000D02*
X94880000Y-84620000D01*
X94880000Y-84620000D02*
X96100000Y-83400000D01*
X97253991Y-73563991D02*
X97253991Y-73600000D01*
X96065000Y-71900000D02*
X96065000Y-72375000D01*
X96065000Y-72375000D02*
X97253991Y-73563991D01*
X103621390Y-63121390D02*
X104900000Y-64400000D01*
X111010980Y-51325000D02*
X109064581Y-53271399D01*
X114050000Y-51325000D02*
X111010980Y-51325000D01*
X103621390Y-57167128D02*
X103621390Y-63121390D01*
X107517119Y-53271399D02*
X103621390Y-57167128D01*
X109064581Y-53271399D02*
X107517119Y-53271399D01*
X104900000Y-64400000D02*
X104900000Y-66195679D01*
X104900000Y-66195679D02*
X104993043Y-66288722D01*
X104993043Y-66288722D02*
X104993043Y-72006957D01*
X104993043Y-72006957D02*
X104078610Y-72921390D01*
X104078610Y-72921390D02*
X104078610Y-74211390D01*
X104078610Y-74211390D02*
X103300000Y-74990000D01*
X103300000Y-74990000D02*
X102650000Y-74990000D01*
X96065000Y-71900000D02*
X96065000Y-71425000D01*
X102000000Y-74990000D02*
X102650000Y-74990000D01*
X115100000Y-59500000D02*
X115480999Y-59119001D01*
X117574039Y-58346709D02*
X117650240Y-58422910D01*
X117650240Y-58422910D02*
X117650240Y-58949960D01*
X115480999Y-59119001D02*
X115480999Y-58833199D01*
X115480999Y-58833199D02*
X115967489Y-58346709D01*
X115967489Y-58346709D02*
X117574039Y-58346709D01*
X109621390Y-66078610D02*
X111700000Y-64000000D01*
X111700000Y-64000000D02*
X115100000Y-64000000D01*
X115100000Y-64000000D02*
X115500000Y-64400000D01*
X106650000Y-81200000D02*
X107252400Y-81200000D01*
X107252400Y-81200000D02*
X109621390Y-78831010D01*
X109621390Y-78831010D02*
X109621390Y-66078610D01*
X106400000Y-77350000D02*
X106400000Y-78000000D01*
X117700200Y-58900000D02*
X117650240Y-58949960D01*
X106650000Y-81200000D02*
X106650000Y-78250000D01*
X106650000Y-78250000D02*
X106400000Y-78000000D01*
M02*
