G04 #@! TF.FileFunction,Copper,L2,Bot,Signal*
%FSLAX46Y46*%
G04 Gerber Fmt 4.6, Leading zero omitted, Abs format (unit mm)*
G04 Created by KiCad (PCBNEW 4.0.4+e1-6308~48~ubuntu16.04.1-stable) date Fri Oct  7 16:46:28 2016*
%MOMM*%
%LPD*%
G01*
G04 APERTURE LIST*
%ADD10C,0.150000*%
%ADD11R,1.727200X2.032000*%
%ADD12O,1.727200X2.032000*%
%ADD13C,2.500000*%
%ADD14O,1.506220X3.014980*%
%ADD15C,1.250000*%
%ADD16C,1.550000*%
%ADD17R,1.727200X1.727200*%
%ADD18O,1.727200X1.727200*%
%ADD19C,0.762000*%
%ADD20C,0.381000*%
%ADD21C,0.152400*%
%ADD22C,0.254000*%
G04 APERTURE END LIST*
D10*
D11*
X89800000Y-85800000D03*
D12*
X92340000Y-85800000D03*
X94880000Y-85800000D03*
X97420000Y-85800000D03*
X99960000Y-85800000D03*
X102500000Y-85800000D03*
X105040000Y-85800000D03*
X107580000Y-85800000D03*
X110120000Y-85800000D03*
X112660000Y-85800000D03*
X115200000Y-85800000D03*
X117740000Y-85800000D03*
D13*
X124000000Y-39100000D03*
X123900000Y-84100000D03*
X53700000Y-84000000D03*
X53800000Y-39300000D03*
D14*
X71970000Y-39800000D03*
X69430000Y-39800000D03*
D15*
X54562540Y-59199100D03*
X54562540Y-64199100D03*
D16*
X51862540Y-58199100D03*
X51862540Y-65199100D03*
D17*
X122900000Y-45100000D03*
D18*
X125440000Y-45100000D03*
X122900000Y-47640000D03*
X125440000Y-47640000D03*
X122900000Y-50180000D03*
X125440000Y-50180000D03*
X122900000Y-52720000D03*
X125440000Y-52720000D03*
X122900000Y-55260000D03*
X125440000Y-55260000D03*
X122900000Y-57800000D03*
X125440000Y-57800000D03*
D19*
X105321853Y-72617722D03*
X105291211Y-58396818D03*
X72800000Y-54200006D03*
X101599976Y-56500000D03*
X109700000Y-83200000D03*
X57600000Y-44000000D03*
X57700000Y-50300000D03*
X116000000Y-52000000D03*
X93700000Y-79300000D03*
X93000000Y-70000000D03*
X93000000Y-70000000D03*
X124500000Y-80100000D03*
X100459558Y-51534766D03*
X98100000Y-51100000D03*
X95693675Y-50874675D03*
X92450000Y-50250000D03*
X79300000Y-46300000D03*
X118800000Y-45900000D03*
X117000000Y-40700000D03*
X107723450Y-57627188D03*
X101800004Y-78100000D03*
X62900000Y-43019000D03*
X64400000Y-50322480D03*
X110475898Y-43956898D03*
X80000000Y-83000000D03*
X79500000Y-80000000D03*
X87500000Y-67546756D03*
X65100000Y-64300000D03*
X75400000Y-60000000D03*
X69529063Y-57770937D03*
X73600000Y-50700000D03*
X114700000Y-39500000D03*
X121500000Y-59500000D03*
X100900000Y-55100000D03*
X108200000Y-64800000D03*
X98686009Y-69120077D03*
X98235658Y-81300000D03*
X92600000Y-82300000D03*
X56000000Y-77500000D03*
X111220960Y-65341160D03*
X99200000Y-54226485D03*
X115400000Y-55200000D03*
X104626414Y-49372935D03*
X117900000Y-43100000D03*
X118200000Y-57500000D03*
X115200000Y-80977740D03*
X96100000Y-55800000D03*
X98700000Y-70286773D03*
X100900000Y-82800000D03*
X97390390Y-68784814D03*
X100700000Y-68900000D03*
X97595109Y-83252649D03*
X100131058Y-81168938D03*
X99900000Y-70900000D03*
X95490380Y-77376090D03*
X94900000Y-69900000D03*
X94783210Y-83619238D03*
X111099996Y-84200000D03*
X83300000Y-53600000D03*
X112400000Y-57800000D03*
X110561551Y-73954750D03*
X90900000Y-66100000D03*
X114600000Y-38200000D03*
X66719221Y-47179836D03*
X71100000Y-43800000D03*
X60199992Y-44800000D03*
X60200000Y-46600000D03*
X63100000Y-49000000D03*
X65500000Y-47300000D03*
X65495076Y-46285602D03*
X62400000Y-51900000D03*
X66036383Y-45548625D03*
X68500000Y-49400000D03*
X96425845Y-77376090D03*
X97253991Y-73600000D03*
X96100000Y-83400000D03*
X115100000Y-59500000D03*
X115500000Y-64400000D03*
D20*
X101599976Y-56500000D02*
X103394393Y-56500000D01*
X109700000Y-76995869D02*
X105702852Y-72998721D01*
X109700000Y-83200000D02*
X109700000Y-76995869D01*
X105702852Y-72998721D02*
X105321853Y-72617722D01*
X104910212Y-58015819D02*
X105291211Y-58396818D01*
X103394393Y-56500000D02*
X104910212Y-58015819D01*
X72261185Y-54200006D02*
X72800000Y-54200006D01*
X61600006Y-54200006D02*
X72261185Y-54200006D01*
X57700000Y-50300000D02*
X61600006Y-54200006D01*
X57319001Y-44280999D02*
X57600000Y-44000000D01*
X57319001Y-49919001D02*
X57319001Y-44280999D01*
X57700000Y-50300000D02*
X57319001Y-49919001D01*
X114700000Y-39500000D02*
X118700000Y-39500000D01*
X121500000Y-59500000D02*
X121500000Y-42300000D01*
X121500000Y-42300000D02*
X118700000Y-39500000D01*
D21*
X100900000Y-55100000D02*
X101438815Y-55100000D01*
X101438815Y-55100000D02*
X101454836Y-55083979D01*
X101454836Y-55083979D02*
X103132231Y-55083979D01*
X103132231Y-55083979D02*
X108200000Y-60151748D01*
X108200000Y-60151748D02*
X108200000Y-64800000D01*
X98006023Y-69800063D02*
X98305010Y-69501076D01*
X98305010Y-69501076D02*
X98686009Y-69120077D01*
X98006023Y-70495024D02*
X98006023Y-69800063D01*
X98235658Y-81300000D02*
X98235658Y-70724659D01*
X98235658Y-70724659D02*
X98006023Y-70495024D01*
X56000000Y-77500000D02*
X87800000Y-77500000D01*
X87800000Y-77500000D02*
X92600000Y-82300000D01*
X111220960Y-62536455D02*
X111220960Y-64802345D01*
X111220960Y-64802345D02*
X111220960Y-65341160D01*
X102910990Y-54226485D02*
X111220960Y-62536455D01*
X99200000Y-54226485D02*
X102910990Y-54226485D01*
D20*
X104626414Y-49372935D02*
X109572935Y-49372935D01*
X115019001Y-54819001D02*
X115400000Y-55200000D01*
X109572935Y-49372935D02*
X115019001Y-54819001D01*
D21*
X117900000Y-43100000D02*
X117900000Y-44700000D01*
X117900000Y-44700000D02*
X117800000Y-44800000D01*
X117800000Y-56561185D02*
X117800000Y-44800000D01*
X118200000Y-57500000D02*
X118200000Y-56961185D01*
X118200000Y-56961185D02*
X117800000Y-56561185D01*
D20*
X115200000Y-80977740D02*
X115200000Y-74900000D01*
X115200000Y-74900000D02*
X96100000Y-55800000D01*
D21*
X100900000Y-82800000D02*
X98700000Y-80600000D01*
X98700000Y-80600000D02*
X98700000Y-70286773D01*
X97930847Y-80702599D02*
X97930847Y-70850915D01*
X97595109Y-81038337D02*
X97930847Y-80702599D01*
X97595109Y-83252649D02*
X97595109Y-81038337D01*
X97771389Y-68403815D02*
X97390390Y-68784814D01*
X100700000Y-68900000D02*
X100203815Y-68403815D01*
X97390390Y-69323629D02*
X97390390Y-68784814D01*
X97390390Y-70310458D02*
X97390390Y-69323629D01*
X97930847Y-70850915D02*
X97390390Y-70310458D01*
X100203815Y-68403815D02*
X97771389Y-68403815D01*
X99900000Y-71438815D02*
X100131058Y-71669873D01*
X100131058Y-71669873D02*
X100131058Y-81168938D01*
X99900000Y-70900000D02*
X99900000Y-71438815D01*
X94783210Y-83619238D02*
X95490380Y-82912068D01*
X95490380Y-77914905D02*
X95490380Y-77376090D01*
X94900000Y-69900000D02*
X95490380Y-70490380D01*
X95490380Y-70490380D02*
X95490380Y-76837275D01*
X95490380Y-76837275D02*
X95490380Y-77376090D01*
X95490380Y-82912068D02*
X95490380Y-77914905D01*
X110488960Y-84272221D02*
X110561181Y-84200000D01*
X89800000Y-85800000D02*
X89800000Y-85647600D01*
X110561181Y-84200000D02*
X111099996Y-84200000D01*
X89800000Y-85647600D02*
X91175379Y-84272221D01*
X91175379Y-84272221D02*
X110488960Y-84272221D01*
X83838815Y-53600000D02*
X83300000Y-53600000D01*
X108200000Y-53600000D02*
X83838815Y-53600000D01*
X112400000Y-57800000D02*
X108200000Y-53600000D01*
X110180552Y-73573751D02*
X110561551Y-73954750D01*
X90900000Y-66100000D02*
X102706801Y-66100000D01*
X102706801Y-66100000D02*
X110180552Y-73573751D01*
X114600000Y-38200000D02*
X118700000Y-38200000D01*
X124227480Y-43727480D02*
X125683938Y-43727480D01*
X118700000Y-38200000D02*
X124227480Y-43727480D01*
X125683938Y-43727480D02*
X126532201Y-44575743D01*
X126532201Y-44575743D02*
X126532201Y-56707799D01*
X126532201Y-56707799D02*
X125440000Y-57800000D01*
D22*
X71100000Y-43800000D02*
X70099057Y-43800000D01*
X67100220Y-46798837D02*
X66719221Y-47179836D01*
X70099057Y-43800000D02*
X67100220Y-46798837D01*
D21*
X60200000Y-44800008D02*
X60199992Y-44800000D01*
X60200000Y-46600000D02*
X60200000Y-44800008D01*
X65500000Y-47300000D02*
X63800000Y-49000000D01*
X63800000Y-49000000D02*
X63100000Y-49000000D01*
X64912188Y-46285602D02*
X64956261Y-46285602D01*
X62400000Y-48797790D02*
X64912188Y-46285602D01*
X62400000Y-51900000D02*
X62400000Y-48797790D01*
X64956261Y-46285602D02*
X65495076Y-46285602D01*
X66109601Y-47548416D02*
X66109601Y-45621843D01*
X67961185Y-49400000D02*
X66109601Y-47548416D01*
X68500000Y-49400000D02*
X67961185Y-49400000D01*
X66109601Y-45621843D02*
X66036383Y-45548625D01*
X96100000Y-77701935D02*
X96425845Y-77376090D01*
X96100000Y-83400000D02*
X96100000Y-77701935D01*
X96425845Y-76837275D02*
X96425845Y-77376090D01*
X96425845Y-74428146D02*
X96425845Y-76837275D01*
X97253991Y-73600000D02*
X96425845Y-74428146D01*
X115500000Y-64400000D02*
X115100000Y-64000000D01*
X115100000Y-64000000D02*
X115100000Y-59500000D01*
D22*
G36*
X75673000Y-54100000D02*
X75683006Y-54149410D01*
X75711447Y-54191035D01*
X75753841Y-54218315D01*
X75800000Y-54227000D01*
X82490318Y-54227000D01*
X82723731Y-54460821D01*
X83097018Y-54615824D01*
X83501208Y-54616176D01*
X83874766Y-54461825D01*
X84025654Y-54311200D01*
X98183925Y-54311200D01*
X98183824Y-54427693D01*
X98338175Y-54801251D01*
X98623731Y-55087306D01*
X98997018Y-55242309D01*
X99401208Y-55242661D01*
X99774766Y-55088310D01*
X99884104Y-54979162D01*
X99883824Y-55301208D01*
X100038175Y-55674766D01*
X100323731Y-55960821D01*
X100664924Y-56102497D01*
X100584152Y-56297018D01*
X100583800Y-56701208D01*
X100738151Y-57074766D01*
X101023707Y-57360821D01*
X101396994Y-57515824D01*
X101801184Y-57516176D01*
X102174742Y-57361825D01*
X102211130Y-57325500D01*
X103052459Y-57325500D01*
X104275078Y-58548118D01*
X104275035Y-58598026D01*
X104429386Y-58971584D01*
X104714942Y-59257639D01*
X105088229Y-59412642D01*
X105492419Y-59412994D01*
X105865977Y-59258643D01*
X106083732Y-59041268D01*
X107488800Y-60446337D01*
X107488800Y-64074371D01*
X107339179Y-64223731D01*
X107184176Y-64597018D01*
X107183824Y-65001208D01*
X107338175Y-65374766D01*
X107623731Y-65660821D01*
X107997018Y-65815824D01*
X108401208Y-65816176D01*
X108774766Y-65661825D01*
X109060821Y-65376269D01*
X109215824Y-65002982D01*
X109216176Y-64598792D01*
X109061825Y-64225234D01*
X108911200Y-64074346D01*
X108911200Y-61232484D01*
X110509760Y-62831044D01*
X110509760Y-64615531D01*
X110360139Y-64764891D01*
X110205136Y-65138178D01*
X110204784Y-65542368D01*
X110359135Y-65915926D01*
X110644691Y-66201981D01*
X111017978Y-66356984D01*
X111422168Y-66357336D01*
X111795726Y-66202985D01*
X112081781Y-65917429D01*
X112236784Y-65544142D01*
X112237136Y-65139952D01*
X112082785Y-64766394D01*
X111932160Y-64615506D01*
X111932160Y-62536455D01*
X111878023Y-62264291D01*
X111878023Y-62264290D01*
X111723854Y-62033560D01*
X109391502Y-59701208D01*
X114083824Y-59701208D01*
X114238175Y-60074766D01*
X114388800Y-60225654D01*
X114388800Y-64000000D01*
X114442937Y-64272165D01*
X114484057Y-64333705D01*
X114483824Y-64601208D01*
X114638175Y-64974766D01*
X114923731Y-65260821D01*
X115297018Y-65415824D01*
X115701208Y-65416176D01*
X116074766Y-65261825D01*
X116360821Y-64976269D01*
X116515824Y-64602982D01*
X116516176Y-64198792D01*
X116361825Y-63825234D01*
X116076269Y-63539179D01*
X115811200Y-63429112D01*
X115811200Y-60225629D01*
X115960821Y-60076269D01*
X116115824Y-59702982D01*
X116116176Y-59298792D01*
X115961825Y-58925234D01*
X115676269Y-58639179D01*
X115302982Y-58484176D01*
X114898792Y-58483824D01*
X114525234Y-58638175D01*
X114239179Y-58923731D01*
X114084176Y-59297018D01*
X114083824Y-59701208D01*
X109391502Y-59701208D01*
X104001493Y-54311200D01*
X107905412Y-54311200D01*
X111384008Y-57789796D01*
X111383824Y-58001208D01*
X111538175Y-58374766D01*
X111823731Y-58660821D01*
X112197018Y-58815824D01*
X112601208Y-58816176D01*
X112974766Y-58661825D01*
X113260821Y-58376269D01*
X113415824Y-58002982D01*
X113416176Y-57598792D01*
X113261825Y-57225234D01*
X112976269Y-56939179D01*
X112602982Y-56784176D01*
X112389778Y-56783990D01*
X108702894Y-53097106D01*
X108527000Y-52979577D01*
X108527000Y-50198435D01*
X109231001Y-50198435D01*
X114383867Y-55351300D01*
X114383824Y-55401208D01*
X114538175Y-55774766D01*
X114823731Y-56060821D01*
X115197018Y-56215824D01*
X115601208Y-56216176D01*
X115974766Y-56061825D01*
X116260821Y-55776269D01*
X116415824Y-55402982D01*
X116416176Y-54998792D01*
X116261825Y-54625234D01*
X115976269Y-54339179D01*
X115602982Y-54184176D01*
X115551564Y-54184131D01*
X110156652Y-48789218D01*
X109888841Y-48610272D01*
X109572935Y-48547435D01*
X108527000Y-48547435D01*
X108527000Y-43627000D01*
X114700000Y-43627000D01*
X114749410Y-43616994D01*
X114791035Y-43588553D01*
X114818315Y-43546159D01*
X114827000Y-43500000D01*
X114827000Y-43301208D01*
X116883824Y-43301208D01*
X117038175Y-43674766D01*
X117188800Y-43825654D01*
X117188800Y-44459197D01*
X117142937Y-44527835D01*
X117116285Y-44661825D01*
X117088800Y-44800000D01*
X117088800Y-56561185D01*
X117142937Y-56833350D01*
X117287112Y-57049122D01*
X117184176Y-57297018D01*
X117183824Y-57701208D01*
X117338175Y-58074766D01*
X117623731Y-58360821D01*
X117997018Y-58515824D01*
X118401208Y-58516176D01*
X118774766Y-58361825D01*
X119060821Y-58076269D01*
X119215824Y-57702982D01*
X119216176Y-57298792D01*
X119061825Y-56925234D01*
X118864787Y-56727852D01*
X118857063Y-56689021D01*
X118771646Y-56561185D01*
X118702894Y-56458290D01*
X118511200Y-56266596D01*
X118511200Y-45040803D01*
X118557063Y-44972164D01*
X118611200Y-44700000D01*
X118611200Y-43825629D01*
X118760821Y-43676269D01*
X118915824Y-43302982D01*
X118916176Y-42898792D01*
X118761825Y-42525234D01*
X118476269Y-42239179D01*
X118102982Y-42084176D01*
X117698792Y-42083824D01*
X117325234Y-42238175D01*
X117039179Y-42523731D01*
X116884176Y-42897018D01*
X116883824Y-43301208D01*
X114827000Y-43301208D01*
X114827000Y-40516111D01*
X114901208Y-40516176D01*
X115274766Y-40361825D01*
X115311154Y-40325500D01*
X118358066Y-40325500D01*
X120674500Y-42641934D01*
X120674500Y-58888472D01*
X120639179Y-58923731D01*
X120484176Y-59297018D01*
X120483824Y-59701208D01*
X120638175Y-60074766D01*
X120923731Y-60360821D01*
X121297018Y-60515824D01*
X121701208Y-60516176D01*
X122074766Y-60361825D01*
X122360821Y-60076269D01*
X122515824Y-59702982D01*
X122516176Y-59298792D01*
X122487764Y-59230030D01*
X122540973Y-59254968D01*
X122773000Y-59134469D01*
X122773000Y-57927000D01*
X122753000Y-57927000D01*
X122753000Y-57673000D01*
X122773000Y-57673000D01*
X122773000Y-57653000D01*
X123027000Y-57653000D01*
X123027000Y-57673000D01*
X123047000Y-57673000D01*
X123047000Y-57927000D01*
X123027000Y-57927000D01*
X123027000Y-59134469D01*
X123259027Y-59254968D01*
X123788490Y-59006821D01*
X124170008Y-58588839D01*
X124350971Y-58859670D01*
X124837152Y-59184526D01*
X125410641Y-59298600D01*
X125469359Y-59298600D01*
X126042848Y-59184526D01*
X126325000Y-58995998D01*
X126325000Y-60673000D01*
X120900000Y-60673000D01*
X120850590Y-60683006D01*
X120808965Y-60711447D01*
X120781685Y-60753841D01*
X120773000Y-60800000D01*
X120773000Y-78800000D01*
X120783006Y-78849410D01*
X120811447Y-78891035D01*
X120853841Y-78918315D01*
X120900000Y-78927000D01*
X126325000Y-78927000D01*
X126325000Y-86435000D01*
X119149039Y-86435000D01*
X119238600Y-85984745D01*
X119238600Y-85615255D01*
X119124526Y-85041766D01*
X118799670Y-84555585D01*
X118676530Y-84473305D01*
X122014674Y-84473305D01*
X122301043Y-85166372D01*
X122830839Y-85697093D01*
X123523405Y-85984672D01*
X124273305Y-85985326D01*
X124966372Y-85698957D01*
X125497093Y-85169161D01*
X125784672Y-84476595D01*
X125785326Y-83726695D01*
X125498957Y-83033628D01*
X124969161Y-82502907D01*
X124276595Y-82215328D01*
X123526695Y-82214674D01*
X122833628Y-82501043D01*
X122302907Y-83030839D01*
X122015328Y-83723405D01*
X122014674Y-84473305D01*
X118676530Y-84473305D01*
X118313489Y-84230729D01*
X117740000Y-84116655D01*
X117166511Y-84230729D01*
X116680330Y-84555585D01*
X116470000Y-84870366D01*
X116259670Y-84555585D01*
X115773489Y-84230729D01*
X115200000Y-84116655D01*
X114626511Y-84230729D01*
X114140330Y-84555585D01*
X113933539Y-84865069D01*
X113562036Y-84449268D01*
X113034791Y-84195291D01*
X113019026Y-84192642D01*
X112787000Y-84313783D01*
X112787000Y-85673000D01*
X112807000Y-85673000D01*
X112807000Y-85927000D01*
X112787000Y-85927000D01*
X112787000Y-85947000D01*
X112533000Y-85947000D01*
X112533000Y-85927000D01*
X112513000Y-85927000D01*
X112513000Y-85673000D01*
X112533000Y-85673000D01*
X112533000Y-84313783D01*
X112300974Y-84192642D01*
X112285209Y-84195291D01*
X112115930Y-84276834D01*
X112116172Y-83998792D01*
X111961821Y-83625234D01*
X111676265Y-83339179D01*
X111302978Y-83184176D01*
X110898788Y-83183824D01*
X110715949Y-83259371D01*
X110716176Y-82998792D01*
X110561825Y-82625234D01*
X110525500Y-82588846D01*
X110525500Y-76995874D01*
X110525501Y-76995869D01*
X110462663Y-76679963D01*
X110283717Y-76412152D01*
X106337986Y-72466421D01*
X106338029Y-72416514D01*
X106183678Y-72042956D01*
X105898122Y-71756901D01*
X105524835Y-71601898D01*
X105120645Y-71601546D01*
X104747087Y-71755897D01*
X104461032Y-72041453D01*
X104306029Y-72414740D01*
X104305677Y-72818930D01*
X104460028Y-73192488D01*
X104745584Y-73478543D01*
X105118871Y-73633546D01*
X105170288Y-73633591D01*
X108874500Y-77337803D01*
X108874500Y-82588472D01*
X108839179Y-82623731D01*
X108684176Y-82997018D01*
X108683824Y-83401208D01*
X108749857Y-83561021D01*
X101575746Y-83561021D01*
X101760821Y-83376269D01*
X101915824Y-83002982D01*
X101916176Y-82598792D01*
X101761825Y-82225234D01*
X101476269Y-81939179D01*
X101102982Y-81784176D01*
X100952973Y-81784045D01*
X100991879Y-81745207D01*
X101146882Y-81371920D01*
X101147234Y-80967730D01*
X100992883Y-80594172D01*
X100842258Y-80443284D01*
X100842258Y-71669873D01*
X100789844Y-71406373D01*
X100915824Y-71102982D01*
X100916176Y-70698792D01*
X100761825Y-70325234D01*
X100476269Y-70039179D01*
X100102982Y-69884176D01*
X99698792Y-69883824D01*
X99642439Y-69907108D01*
X99561825Y-69712007D01*
X99546510Y-69696665D01*
X99546830Y-69696346D01*
X99701833Y-69323059D01*
X99701988Y-69145168D01*
X99838175Y-69474766D01*
X100123731Y-69760821D01*
X100497018Y-69915824D01*
X100901208Y-69916176D01*
X101274766Y-69761825D01*
X101560821Y-69476269D01*
X101715824Y-69102982D01*
X101716176Y-68698792D01*
X101561825Y-68325234D01*
X101276269Y-68039179D01*
X100902982Y-67884176D01*
X100681360Y-67883983D01*
X100475980Y-67746752D01*
X100203815Y-67692615D01*
X97771389Y-67692615D01*
X97499224Y-67746752D01*
X97466109Y-67768879D01*
X97189182Y-67768638D01*
X96815624Y-67922989D01*
X96529569Y-68208545D01*
X96374566Y-68581832D01*
X96374214Y-68986022D01*
X96528565Y-69359580D01*
X96679190Y-69510468D01*
X96679190Y-70310458D01*
X96733327Y-70582623D01*
X96887496Y-70813352D01*
X97219647Y-71145504D01*
X97219647Y-72583969D01*
X97052783Y-72583824D01*
X96679225Y-72738175D01*
X96393170Y-73023731D01*
X96238167Y-73397018D01*
X96237981Y-73610221D01*
X96201580Y-73646623D01*
X96201580Y-70490380D01*
X96147443Y-70218216D01*
X96069261Y-70101208D01*
X95993274Y-69987485D01*
X95915992Y-69910203D01*
X95916176Y-69698792D01*
X95761825Y-69325234D01*
X95476269Y-69039179D01*
X95102982Y-68884176D01*
X94698792Y-68883824D01*
X94325234Y-69038175D01*
X94039179Y-69323731D01*
X93884176Y-69697018D01*
X93883824Y-70101208D01*
X94038175Y-70474766D01*
X94323731Y-70760821D01*
X94697018Y-70915824D01*
X94779180Y-70915896D01*
X94779180Y-76650461D01*
X94629559Y-76799821D01*
X94474556Y-77173108D01*
X94474204Y-77577298D01*
X94628555Y-77950856D01*
X94779180Y-78101744D01*
X94779180Y-82603234D01*
X94582002Y-82603062D01*
X94208444Y-82757413D01*
X93922389Y-83042969D01*
X93767386Y-83416256D01*
X93767260Y-83561021D01*
X91175379Y-83561021D01*
X90903215Y-83615158D01*
X90672485Y-83769326D01*
X90305251Y-84136560D01*
X88936400Y-84136560D01*
X88701083Y-84180838D01*
X88484959Y-84319910D01*
X88339969Y-84532110D01*
X88288960Y-84784000D01*
X88288960Y-86435000D01*
X51495000Y-86435000D01*
X51495000Y-84373305D01*
X51814674Y-84373305D01*
X52101043Y-85066372D01*
X52630839Y-85597093D01*
X53323405Y-85884672D01*
X54073305Y-85885326D01*
X54766372Y-85598957D01*
X55297093Y-85069161D01*
X55584672Y-84376595D01*
X55585326Y-83626695D01*
X55298957Y-82933628D01*
X54769161Y-82402907D01*
X54076595Y-82115328D01*
X53326695Y-82114674D01*
X52633628Y-82401043D01*
X52102907Y-82930839D01*
X51815328Y-83623405D01*
X51814674Y-84373305D01*
X51495000Y-84373305D01*
X51495000Y-77701208D01*
X54983824Y-77701208D01*
X55138175Y-78074766D01*
X55423731Y-78360821D01*
X55797018Y-78515824D01*
X56201208Y-78516176D01*
X56574766Y-78361825D01*
X56725654Y-78211200D01*
X87505412Y-78211200D01*
X91584008Y-82289796D01*
X91583824Y-82501208D01*
X91738175Y-82874766D01*
X92023731Y-83160821D01*
X92397018Y-83315824D01*
X92801208Y-83316176D01*
X93174766Y-83161825D01*
X93460821Y-82876269D01*
X93615824Y-82502982D01*
X93616176Y-82098792D01*
X93461825Y-81725234D01*
X93176269Y-81439179D01*
X92802982Y-81284176D01*
X92589778Y-81283990D01*
X88302894Y-76997106D01*
X88072165Y-76842937D01*
X87800000Y-76788800D01*
X56725629Y-76788800D01*
X56576269Y-76639179D01*
X56202982Y-76484176D01*
X55798792Y-76483824D01*
X55425234Y-76638175D01*
X55139179Y-76923731D01*
X54984176Y-77297018D01*
X54983824Y-77701208D01*
X51495000Y-77701208D01*
X51495000Y-66565120D01*
X51651737Y-66621184D01*
X52211991Y-66593606D01*
X52601505Y-66432263D01*
X52639747Y-66301208D01*
X89883824Y-66301208D01*
X90038175Y-66674766D01*
X90323731Y-66960821D01*
X90697018Y-67115824D01*
X91101208Y-67116176D01*
X91474766Y-66961825D01*
X91625654Y-66811200D01*
X102412213Y-66811200D01*
X109545559Y-73944546D01*
X109545375Y-74155958D01*
X109699726Y-74529516D01*
X109985282Y-74815571D01*
X110358569Y-74970574D01*
X110762759Y-74970926D01*
X111136317Y-74816575D01*
X111422372Y-74531019D01*
X111577375Y-74157732D01*
X111577727Y-73753542D01*
X111423376Y-73379984D01*
X111137820Y-73093929D01*
X110764533Y-72938926D01*
X110551329Y-72938740D01*
X103209695Y-65597106D01*
X102978966Y-65442937D01*
X102706801Y-65388800D01*
X91625629Y-65388800D01*
X91476269Y-65239179D01*
X91102982Y-65084176D01*
X90698792Y-65083824D01*
X90325234Y-65238175D01*
X90039179Y-65523731D01*
X89884176Y-65897018D01*
X89883824Y-66301208D01*
X52639747Y-66301208D01*
X52672568Y-66188733D01*
X51862540Y-65378705D01*
X51848398Y-65392848D01*
X51668793Y-65213243D01*
X51682935Y-65199100D01*
X52042145Y-65199100D01*
X52852173Y-66009128D01*
X53095703Y-65938065D01*
X53284624Y-65409903D01*
X53268384Y-65079978D01*
X53861267Y-65079978D01*
X53913865Y-65307990D01*
X54387596Y-65471817D01*
X54887960Y-65441885D01*
X55211215Y-65307990D01*
X55263813Y-65079978D01*
X54562540Y-64378705D01*
X53861267Y-65079978D01*
X53268384Y-65079978D01*
X53257046Y-64849649D01*
X53095703Y-64460135D01*
X52852173Y-64389072D01*
X52042145Y-65199100D01*
X51682935Y-65199100D01*
X51668793Y-65184958D01*
X51848398Y-65005353D01*
X51862540Y-65019495D01*
X52672568Y-64209467D01*
X52618494Y-64024156D01*
X53289823Y-64024156D01*
X53319755Y-64524520D01*
X53453650Y-64847775D01*
X53681662Y-64900373D01*
X54382935Y-64199100D01*
X54742145Y-64199100D01*
X55443418Y-64900373D01*
X55671430Y-64847775D01*
X55835257Y-64374044D01*
X55805325Y-63873680D01*
X55671430Y-63550425D01*
X55443418Y-63497827D01*
X54742145Y-64199100D01*
X54382935Y-64199100D01*
X53681662Y-63497827D01*
X53453650Y-63550425D01*
X53289823Y-64024156D01*
X52618494Y-64024156D01*
X52601505Y-63965937D01*
X52073343Y-63777016D01*
X51513089Y-63804594D01*
X51495000Y-63812087D01*
X51495000Y-63318222D01*
X53861267Y-63318222D01*
X54562540Y-64019495D01*
X55263813Y-63318222D01*
X55211215Y-63090210D01*
X54737484Y-62926383D01*
X54237120Y-62956315D01*
X53913865Y-63090210D01*
X53861267Y-63318222D01*
X51495000Y-63318222D01*
X51495000Y-60079978D01*
X53861267Y-60079978D01*
X53913865Y-60307990D01*
X54387596Y-60471817D01*
X54887960Y-60441885D01*
X55211215Y-60307990D01*
X55263813Y-60079978D01*
X54562540Y-59378705D01*
X53861267Y-60079978D01*
X51495000Y-60079978D01*
X51495000Y-59565120D01*
X51651737Y-59621184D01*
X52211991Y-59593606D01*
X52601505Y-59432263D01*
X52672568Y-59188733D01*
X52507991Y-59024156D01*
X53289823Y-59024156D01*
X53319755Y-59524520D01*
X53453650Y-59847775D01*
X53681662Y-59900373D01*
X54382935Y-59199100D01*
X54742145Y-59199100D01*
X55443418Y-59900373D01*
X55671430Y-59847775D01*
X55835257Y-59374044D01*
X55805325Y-58873680D01*
X55671430Y-58550425D01*
X55443418Y-58497827D01*
X54742145Y-59199100D01*
X54382935Y-59199100D01*
X53681662Y-58497827D01*
X53453650Y-58550425D01*
X53289823Y-59024156D01*
X52507991Y-59024156D01*
X51862540Y-58378705D01*
X51848398Y-58392848D01*
X51668793Y-58213243D01*
X51682935Y-58199100D01*
X52042145Y-58199100D01*
X52852173Y-59009128D01*
X53095703Y-58938065D01*
X53284624Y-58409903D01*
X53280112Y-58318222D01*
X53861267Y-58318222D01*
X54562540Y-59019495D01*
X55263813Y-58318222D01*
X55211215Y-58090210D01*
X54737484Y-57926383D01*
X54237120Y-57956315D01*
X53913865Y-58090210D01*
X53861267Y-58318222D01*
X53280112Y-58318222D01*
X53257046Y-57849649D01*
X53095703Y-57460135D01*
X52852173Y-57389072D01*
X52042145Y-58199100D01*
X51682935Y-58199100D01*
X51668793Y-58184958D01*
X51848398Y-58005353D01*
X51862540Y-58019495D01*
X52672568Y-57209467D01*
X52601505Y-56965937D01*
X52073343Y-56777016D01*
X51513089Y-56804594D01*
X51495000Y-56812087D01*
X51495000Y-56001208D01*
X95083824Y-56001208D01*
X95238175Y-56374766D01*
X95523731Y-56660821D01*
X95897018Y-56815824D01*
X95948435Y-56815869D01*
X114374500Y-75241934D01*
X114374500Y-80366212D01*
X114339179Y-80401471D01*
X114184176Y-80774758D01*
X114183824Y-81178948D01*
X114338175Y-81552506D01*
X114623731Y-81838561D01*
X114997018Y-81993564D01*
X115401208Y-81993916D01*
X115774766Y-81839565D01*
X116060821Y-81554009D01*
X116215824Y-81180722D01*
X116216176Y-80776532D01*
X116061825Y-80402974D01*
X116025500Y-80366586D01*
X116025500Y-74900000D01*
X115968974Y-74615824D01*
X115962663Y-74584094D01*
X115783717Y-74316283D01*
X97116133Y-55648699D01*
X97116176Y-55598792D01*
X96961825Y-55225234D01*
X96676269Y-54939179D01*
X96302982Y-54784176D01*
X95898792Y-54783824D01*
X95525234Y-54938175D01*
X95239179Y-55223731D01*
X95084176Y-55597018D01*
X95083824Y-56001208D01*
X51495000Y-56001208D01*
X51495000Y-44280999D01*
X56493501Y-44280999D01*
X56493501Y-49919001D01*
X56556338Y-50234907D01*
X56683890Y-50425801D01*
X56683824Y-50501208D01*
X56838175Y-50874766D01*
X57123731Y-51160821D01*
X57497018Y-51315824D01*
X57548435Y-51315869D01*
X61016287Y-54783720D01*
X61016289Y-54783723D01*
X61284101Y-54962669D01*
X61600006Y-55025506D01*
X72188472Y-55025506D01*
X72223731Y-55060827D01*
X72597018Y-55215830D01*
X73001208Y-55216182D01*
X73374766Y-55061831D01*
X73660821Y-54776275D01*
X73815824Y-54402988D01*
X73816176Y-53998798D01*
X73661825Y-53625240D01*
X73376269Y-53339185D01*
X73002982Y-53184182D01*
X72598792Y-53183830D01*
X72225234Y-53338181D01*
X72188846Y-53374506D01*
X61941939Y-53374506D01*
X60668642Y-52101208D01*
X61383824Y-52101208D01*
X61538175Y-52474766D01*
X61823731Y-52760821D01*
X62197018Y-52915824D01*
X62601208Y-52916176D01*
X62974766Y-52761825D01*
X63260821Y-52476269D01*
X63415824Y-52102982D01*
X63416176Y-51698792D01*
X63261825Y-51325234D01*
X63111200Y-51174346D01*
X63111200Y-50016011D01*
X63301208Y-50016176D01*
X63674766Y-49861825D01*
X63832038Y-49704827D01*
X64072165Y-49657063D01*
X64302894Y-49502894D01*
X65489796Y-48315992D01*
X65701208Y-48316176D01*
X65821761Y-48266364D01*
X67458291Y-49902894D01*
X67689020Y-50057063D01*
X67728085Y-50064833D01*
X67923731Y-50260821D01*
X68297018Y-50415824D01*
X68701208Y-50416176D01*
X69074766Y-50261825D01*
X69360821Y-49976269D01*
X69515824Y-49602982D01*
X69516176Y-49198792D01*
X69361825Y-48825234D01*
X69076269Y-48539179D01*
X68702982Y-48384176D01*
X68298792Y-48383824D01*
X68052544Y-48485571D01*
X67451448Y-47884475D01*
X67580042Y-47756105D01*
X67735045Y-47382818D01*
X67735168Y-47241519D01*
X70414687Y-44562000D01*
X70425082Y-44562000D01*
X70523731Y-44660821D01*
X70897018Y-44815824D01*
X71301208Y-44816176D01*
X71674766Y-44661825D01*
X71960821Y-44376269D01*
X72115824Y-44002982D01*
X72116176Y-43598792D01*
X71961825Y-43225234D01*
X71676269Y-42939179D01*
X71302982Y-42784176D01*
X70898792Y-42783824D01*
X70525234Y-42938175D01*
X70425235Y-43038000D01*
X70099057Y-43038000D01*
X69807452Y-43096004D01*
X69595933Y-43237337D01*
X69560242Y-43261185D01*
X67039700Y-45781727D01*
X67052207Y-45751607D01*
X67052559Y-45347417D01*
X66898208Y-44973859D01*
X66612652Y-44687804D01*
X66239365Y-44532801D01*
X65835175Y-44532449D01*
X65461617Y-44686800D01*
X65175562Y-44972356D01*
X65020559Y-45345643D01*
X65020527Y-45382368D01*
X64920310Y-45423777D01*
X64733895Y-45609867D01*
X64640024Y-45628539D01*
X64640022Y-45628540D01*
X64640023Y-45628540D01*
X64409293Y-45782708D01*
X61897106Y-48294896D01*
X61742937Y-48525625D01*
X61708317Y-48699670D01*
X61688800Y-48797790D01*
X61688800Y-51174371D01*
X61539179Y-51323731D01*
X61384176Y-51697018D01*
X61383824Y-52101208D01*
X60668642Y-52101208D01*
X58716133Y-50148699D01*
X58716176Y-50098792D01*
X58561825Y-49725234D01*
X58276269Y-49439179D01*
X58144501Y-49384464D01*
X58144501Y-45001208D01*
X59183816Y-45001208D01*
X59338167Y-45374766D01*
X59488800Y-45525662D01*
X59488800Y-45874371D01*
X59339179Y-46023731D01*
X59184176Y-46397018D01*
X59183824Y-46801208D01*
X59338175Y-47174766D01*
X59623731Y-47460821D01*
X59997018Y-47615824D01*
X60401208Y-47616176D01*
X60774766Y-47461825D01*
X61060821Y-47176269D01*
X61215824Y-46802982D01*
X61216176Y-46398792D01*
X61061825Y-46025234D01*
X60911200Y-45874346D01*
X60911200Y-45525621D01*
X61060813Y-45376269D01*
X61215816Y-45002982D01*
X61216168Y-44598792D01*
X61061817Y-44225234D01*
X60776261Y-43939179D01*
X60402974Y-43784176D01*
X59998784Y-43783824D01*
X59625226Y-43938175D01*
X59339171Y-44223731D01*
X59184168Y-44597018D01*
X59183816Y-45001208D01*
X58144501Y-45001208D01*
X58144501Y-44874330D01*
X58174766Y-44861825D01*
X58460821Y-44576269D01*
X58615824Y-44202982D01*
X58616176Y-43798792D01*
X58461825Y-43425234D01*
X58176269Y-43139179D01*
X57802982Y-42984176D01*
X57398792Y-42983824D01*
X57025234Y-43138175D01*
X56739179Y-43423731D01*
X56584176Y-43797018D01*
X56584066Y-43923596D01*
X56556338Y-43965093D01*
X56526356Y-44115824D01*
X56493501Y-44280999D01*
X51495000Y-44280999D01*
X51495000Y-39673305D01*
X51914674Y-39673305D01*
X52201043Y-40366372D01*
X52730839Y-40897093D01*
X53423405Y-41184672D01*
X54173305Y-41185326D01*
X54866372Y-40898957D01*
X55397093Y-40369161D01*
X55580694Y-39927000D01*
X68041890Y-39927000D01*
X68041890Y-40681380D01*
X68196154Y-41202919D01*
X68538260Y-41625724D01*
X69016125Y-41885427D01*
X69088326Y-41899783D01*
X69303000Y-41777162D01*
X69303000Y-39927000D01*
X68041890Y-39927000D01*
X55580694Y-39927000D01*
X55684672Y-39676595D01*
X55685326Y-38926695D01*
X55681990Y-38918620D01*
X68041890Y-38918620D01*
X68041890Y-39673000D01*
X69303000Y-39673000D01*
X69303000Y-37822838D01*
X69557000Y-37822838D01*
X69557000Y-39673000D01*
X69577000Y-39673000D01*
X69577000Y-39927000D01*
X69557000Y-39927000D01*
X69557000Y-41777162D01*
X69771674Y-41899783D01*
X69843875Y-41885427D01*
X70321740Y-41625724D01*
X70663846Y-41202919D01*
X70686984Y-41124694D01*
X70687554Y-41127561D01*
X70988458Y-41577896D01*
X71438793Y-41878800D01*
X71970000Y-41984464D01*
X72501207Y-41878800D01*
X72951542Y-41577896D01*
X73252446Y-41127561D01*
X73358110Y-40596354D01*
X73358110Y-39003646D01*
X73252446Y-38472439D01*
X72951542Y-38022104D01*
X72501207Y-37721200D01*
X71970000Y-37615536D01*
X71438793Y-37721200D01*
X70988458Y-38022104D01*
X70687554Y-38472439D01*
X70686984Y-38475306D01*
X70663846Y-38397081D01*
X70321740Y-37974276D01*
X69843875Y-37714573D01*
X69771674Y-37700217D01*
X69557000Y-37822838D01*
X69303000Y-37822838D01*
X69088326Y-37700217D01*
X69016125Y-37714573D01*
X68538260Y-37974276D01*
X68196154Y-38397081D01*
X68041890Y-38918620D01*
X55681990Y-38918620D01*
X55398957Y-38233628D01*
X54869161Y-37702907D01*
X54176595Y-37415328D01*
X53426695Y-37414674D01*
X52733628Y-37701043D01*
X52202907Y-38230839D01*
X51915328Y-38923405D01*
X51914674Y-39673305D01*
X51495000Y-39673305D01*
X51495000Y-37005000D01*
X75673000Y-37005000D01*
X75673000Y-54100000D01*
X75673000Y-54100000D01*
G37*
X75673000Y-54100000D02*
X75683006Y-54149410D01*
X75711447Y-54191035D01*
X75753841Y-54218315D01*
X75800000Y-54227000D01*
X82490318Y-54227000D01*
X82723731Y-54460821D01*
X83097018Y-54615824D01*
X83501208Y-54616176D01*
X83874766Y-54461825D01*
X84025654Y-54311200D01*
X98183925Y-54311200D01*
X98183824Y-54427693D01*
X98338175Y-54801251D01*
X98623731Y-55087306D01*
X98997018Y-55242309D01*
X99401208Y-55242661D01*
X99774766Y-55088310D01*
X99884104Y-54979162D01*
X99883824Y-55301208D01*
X100038175Y-55674766D01*
X100323731Y-55960821D01*
X100664924Y-56102497D01*
X100584152Y-56297018D01*
X100583800Y-56701208D01*
X100738151Y-57074766D01*
X101023707Y-57360821D01*
X101396994Y-57515824D01*
X101801184Y-57516176D01*
X102174742Y-57361825D01*
X102211130Y-57325500D01*
X103052459Y-57325500D01*
X104275078Y-58548118D01*
X104275035Y-58598026D01*
X104429386Y-58971584D01*
X104714942Y-59257639D01*
X105088229Y-59412642D01*
X105492419Y-59412994D01*
X105865977Y-59258643D01*
X106083732Y-59041268D01*
X107488800Y-60446337D01*
X107488800Y-64074371D01*
X107339179Y-64223731D01*
X107184176Y-64597018D01*
X107183824Y-65001208D01*
X107338175Y-65374766D01*
X107623731Y-65660821D01*
X107997018Y-65815824D01*
X108401208Y-65816176D01*
X108774766Y-65661825D01*
X109060821Y-65376269D01*
X109215824Y-65002982D01*
X109216176Y-64598792D01*
X109061825Y-64225234D01*
X108911200Y-64074346D01*
X108911200Y-61232484D01*
X110509760Y-62831044D01*
X110509760Y-64615531D01*
X110360139Y-64764891D01*
X110205136Y-65138178D01*
X110204784Y-65542368D01*
X110359135Y-65915926D01*
X110644691Y-66201981D01*
X111017978Y-66356984D01*
X111422168Y-66357336D01*
X111795726Y-66202985D01*
X112081781Y-65917429D01*
X112236784Y-65544142D01*
X112237136Y-65139952D01*
X112082785Y-64766394D01*
X111932160Y-64615506D01*
X111932160Y-62536455D01*
X111878023Y-62264291D01*
X111878023Y-62264290D01*
X111723854Y-62033560D01*
X109391502Y-59701208D01*
X114083824Y-59701208D01*
X114238175Y-60074766D01*
X114388800Y-60225654D01*
X114388800Y-64000000D01*
X114442937Y-64272165D01*
X114484057Y-64333705D01*
X114483824Y-64601208D01*
X114638175Y-64974766D01*
X114923731Y-65260821D01*
X115297018Y-65415824D01*
X115701208Y-65416176D01*
X116074766Y-65261825D01*
X116360821Y-64976269D01*
X116515824Y-64602982D01*
X116516176Y-64198792D01*
X116361825Y-63825234D01*
X116076269Y-63539179D01*
X115811200Y-63429112D01*
X115811200Y-60225629D01*
X115960821Y-60076269D01*
X116115824Y-59702982D01*
X116116176Y-59298792D01*
X115961825Y-58925234D01*
X115676269Y-58639179D01*
X115302982Y-58484176D01*
X114898792Y-58483824D01*
X114525234Y-58638175D01*
X114239179Y-58923731D01*
X114084176Y-59297018D01*
X114083824Y-59701208D01*
X109391502Y-59701208D01*
X104001493Y-54311200D01*
X107905412Y-54311200D01*
X111384008Y-57789796D01*
X111383824Y-58001208D01*
X111538175Y-58374766D01*
X111823731Y-58660821D01*
X112197018Y-58815824D01*
X112601208Y-58816176D01*
X112974766Y-58661825D01*
X113260821Y-58376269D01*
X113415824Y-58002982D01*
X113416176Y-57598792D01*
X113261825Y-57225234D01*
X112976269Y-56939179D01*
X112602982Y-56784176D01*
X112389778Y-56783990D01*
X108702894Y-53097106D01*
X108527000Y-52979577D01*
X108527000Y-50198435D01*
X109231001Y-50198435D01*
X114383867Y-55351300D01*
X114383824Y-55401208D01*
X114538175Y-55774766D01*
X114823731Y-56060821D01*
X115197018Y-56215824D01*
X115601208Y-56216176D01*
X115974766Y-56061825D01*
X116260821Y-55776269D01*
X116415824Y-55402982D01*
X116416176Y-54998792D01*
X116261825Y-54625234D01*
X115976269Y-54339179D01*
X115602982Y-54184176D01*
X115551564Y-54184131D01*
X110156652Y-48789218D01*
X109888841Y-48610272D01*
X109572935Y-48547435D01*
X108527000Y-48547435D01*
X108527000Y-43627000D01*
X114700000Y-43627000D01*
X114749410Y-43616994D01*
X114791035Y-43588553D01*
X114818315Y-43546159D01*
X114827000Y-43500000D01*
X114827000Y-43301208D01*
X116883824Y-43301208D01*
X117038175Y-43674766D01*
X117188800Y-43825654D01*
X117188800Y-44459197D01*
X117142937Y-44527835D01*
X117116285Y-44661825D01*
X117088800Y-44800000D01*
X117088800Y-56561185D01*
X117142937Y-56833350D01*
X117287112Y-57049122D01*
X117184176Y-57297018D01*
X117183824Y-57701208D01*
X117338175Y-58074766D01*
X117623731Y-58360821D01*
X117997018Y-58515824D01*
X118401208Y-58516176D01*
X118774766Y-58361825D01*
X119060821Y-58076269D01*
X119215824Y-57702982D01*
X119216176Y-57298792D01*
X119061825Y-56925234D01*
X118864787Y-56727852D01*
X118857063Y-56689021D01*
X118771646Y-56561185D01*
X118702894Y-56458290D01*
X118511200Y-56266596D01*
X118511200Y-45040803D01*
X118557063Y-44972164D01*
X118611200Y-44700000D01*
X118611200Y-43825629D01*
X118760821Y-43676269D01*
X118915824Y-43302982D01*
X118916176Y-42898792D01*
X118761825Y-42525234D01*
X118476269Y-42239179D01*
X118102982Y-42084176D01*
X117698792Y-42083824D01*
X117325234Y-42238175D01*
X117039179Y-42523731D01*
X116884176Y-42897018D01*
X116883824Y-43301208D01*
X114827000Y-43301208D01*
X114827000Y-40516111D01*
X114901208Y-40516176D01*
X115274766Y-40361825D01*
X115311154Y-40325500D01*
X118358066Y-40325500D01*
X120674500Y-42641934D01*
X120674500Y-58888472D01*
X120639179Y-58923731D01*
X120484176Y-59297018D01*
X120483824Y-59701208D01*
X120638175Y-60074766D01*
X120923731Y-60360821D01*
X121297018Y-60515824D01*
X121701208Y-60516176D01*
X122074766Y-60361825D01*
X122360821Y-60076269D01*
X122515824Y-59702982D01*
X122516176Y-59298792D01*
X122487764Y-59230030D01*
X122540973Y-59254968D01*
X122773000Y-59134469D01*
X122773000Y-57927000D01*
X122753000Y-57927000D01*
X122753000Y-57673000D01*
X122773000Y-57673000D01*
X122773000Y-57653000D01*
X123027000Y-57653000D01*
X123027000Y-57673000D01*
X123047000Y-57673000D01*
X123047000Y-57927000D01*
X123027000Y-57927000D01*
X123027000Y-59134469D01*
X123259027Y-59254968D01*
X123788490Y-59006821D01*
X124170008Y-58588839D01*
X124350971Y-58859670D01*
X124837152Y-59184526D01*
X125410641Y-59298600D01*
X125469359Y-59298600D01*
X126042848Y-59184526D01*
X126325000Y-58995998D01*
X126325000Y-60673000D01*
X120900000Y-60673000D01*
X120850590Y-60683006D01*
X120808965Y-60711447D01*
X120781685Y-60753841D01*
X120773000Y-60800000D01*
X120773000Y-78800000D01*
X120783006Y-78849410D01*
X120811447Y-78891035D01*
X120853841Y-78918315D01*
X120900000Y-78927000D01*
X126325000Y-78927000D01*
X126325000Y-86435000D01*
X119149039Y-86435000D01*
X119238600Y-85984745D01*
X119238600Y-85615255D01*
X119124526Y-85041766D01*
X118799670Y-84555585D01*
X118676530Y-84473305D01*
X122014674Y-84473305D01*
X122301043Y-85166372D01*
X122830839Y-85697093D01*
X123523405Y-85984672D01*
X124273305Y-85985326D01*
X124966372Y-85698957D01*
X125497093Y-85169161D01*
X125784672Y-84476595D01*
X125785326Y-83726695D01*
X125498957Y-83033628D01*
X124969161Y-82502907D01*
X124276595Y-82215328D01*
X123526695Y-82214674D01*
X122833628Y-82501043D01*
X122302907Y-83030839D01*
X122015328Y-83723405D01*
X122014674Y-84473305D01*
X118676530Y-84473305D01*
X118313489Y-84230729D01*
X117740000Y-84116655D01*
X117166511Y-84230729D01*
X116680330Y-84555585D01*
X116470000Y-84870366D01*
X116259670Y-84555585D01*
X115773489Y-84230729D01*
X115200000Y-84116655D01*
X114626511Y-84230729D01*
X114140330Y-84555585D01*
X113933539Y-84865069D01*
X113562036Y-84449268D01*
X113034791Y-84195291D01*
X113019026Y-84192642D01*
X112787000Y-84313783D01*
X112787000Y-85673000D01*
X112807000Y-85673000D01*
X112807000Y-85927000D01*
X112787000Y-85927000D01*
X112787000Y-85947000D01*
X112533000Y-85947000D01*
X112533000Y-85927000D01*
X112513000Y-85927000D01*
X112513000Y-85673000D01*
X112533000Y-85673000D01*
X112533000Y-84313783D01*
X112300974Y-84192642D01*
X112285209Y-84195291D01*
X112115930Y-84276834D01*
X112116172Y-83998792D01*
X111961821Y-83625234D01*
X111676265Y-83339179D01*
X111302978Y-83184176D01*
X110898788Y-83183824D01*
X110715949Y-83259371D01*
X110716176Y-82998792D01*
X110561825Y-82625234D01*
X110525500Y-82588846D01*
X110525500Y-76995874D01*
X110525501Y-76995869D01*
X110462663Y-76679963D01*
X110283717Y-76412152D01*
X106337986Y-72466421D01*
X106338029Y-72416514D01*
X106183678Y-72042956D01*
X105898122Y-71756901D01*
X105524835Y-71601898D01*
X105120645Y-71601546D01*
X104747087Y-71755897D01*
X104461032Y-72041453D01*
X104306029Y-72414740D01*
X104305677Y-72818930D01*
X104460028Y-73192488D01*
X104745584Y-73478543D01*
X105118871Y-73633546D01*
X105170288Y-73633591D01*
X108874500Y-77337803D01*
X108874500Y-82588472D01*
X108839179Y-82623731D01*
X108684176Y-82997018D01*
X108683824Y-83401208D01*
X108749857Y-83561021D01*
X101575746Y-83561021D01*
X101760821Y-83376269D01*
X101915824Y-83002982D01*
X101916176Y-82598792D01*
X101761825Y-82225234D01*
X101476269Y-81939179D01*
X101102982Y-81784176D01*
X100952973Y-81784045D01*
X100991879Y-81745207D01*
X101146882Y-81371920D01*
X101147234Y-80967730D01*
X100992883Y-80594172D01*
X100842258Y-80443284D01*
X100842258Y-71669873D01*
X100789844Y-71406373D01*
X100915824Y-71102982D01*
X100916176Y-70698792D01*
X100761825Y-70325234D01*
X100476269Y-70039179D01*
X100102982Y-69884176D01*
X99698792Y-69883824D01*
X99642439Y-69907108D01*
X99561825Y-69712007D01*
X99546510Y-69696665D01*
X99546830Y-69696346D01*
X99701833Y-69323059D01*
X99701988Y-69145168D01*
X99838175Y-69474766D01*
X100123731Y-69760821D01*
X100497018Y-69915824D01*
X100901208Y-69916176D01*
X101274766Y-69761825D01*
X101560821Y-69476269D01*
X101715824Y-69102982D01*
X101716176Y-68698792D01*
X101561825Y-68325234D01*
X101276269Y-68039179D01*
X100902982Y-67884176D01*
X100681360Y-67883983D01*
X100475980Y-67746752D01*
X100203815Y-67692615D01*
X97771389Y-67692615D01*
X97499224Y-67746752D01*
X97466109Y-67768879D01*
X97189182Y-67768638D01*
X96815624Y-67922989D01*
X96529569Y-68208545D01*
X96374566Y-68581832D01*
X96374214Y-68986022D01*
X96528565Y-69359580D01*
X96679190Y-69510468D01*
X96679190Y-70310458D01*
X96733327Y-70582623D01*
X96887496Y-70813352D01*
X97219647Y-71145504D01*
X97219647Y-72583969D01*
X97052783Y-72583824D01*
X96679225Y-72738175D01*
X96393170Y-73023731D01*
X96238167Y-73397018D01*
X96237981Y-73610221D01*
X96201580Y-73646623D01*
X96201580Y-70490380D01*
X96147443Y-70218216D01*
X96069261Y-70101208D01*
X95993274Y-69987485D01*
X95915992Y-69910203D01*
X95916176Y-69698792D01*
X95761825Y-69325234D01*
X95476269Y-69039179D01*
X95102982Y-68884176D01*
X94698792Y-68883824D01*
X94325234Y-69038175D01*
X94039179Y-69323731D01*
X93884176Y-69697018D01*
X93883824Y-70101208D01*
X94038175Y-70474766D01*
X94323731Y-70760821D01*
X94697018Y-70915824D01*
X94779180Y-70915896D01*
X94779180Y-76650461D01*
X94629559Y-76799821D01*
X94474556Y-77173108D01*
X94474204Y-77577298D01*
X94628555Y-77950856D01*
X94779180Y-78101744D01*
X94779180Y-82603234D01*
X94582002Y-82603062D01*
X94208444Y-82757413D01*
X93922389Y-83042969D01*
X93767386Y-83416256D01*
X93767260Y-83561021D01*
X91175379Y-83561021D01*
X90903215Y-83615158D01*
X90672485Y-83769326D01*
X90305251Y-84136560D01*
X88936400Y-84136560D01*
X88701083Y-84180838D01*
X88484959Y-84319910D01*
X88339969Y-84532110D01*
X88288960Y-84784000D01*
X88288960Y-86435000D01*
X51495000Y-86435000D01*
X51495000Y-84373305D01*
X51814674Y-84373305D01*
X52101043Y-85066372D01*
X52630839Y-85597093D01*
X53323405Y-85884672D01*
X54073305Y-85885326D01*
X54766372Y-85598957D01*
X55297093Y-85069161D01*
X55584672Y-84376595D01*
X55585326Y-83626695D01*
X55298957Y-82933628D01*
X54769161Y-82402907D01*
X54076595Y-82115328D01*
X53326695Y-82114674D01*
X52633628Y-82401043D01*
X52102907Y-82930839D01*
X51815328Y-83623405D01*
X51814674Y-84373305D01*
X51495000Y-84373305D01*
X51495000Y-77701208D01*
X54983824Y-77701208D01*
X55138175Y-78074766D01*
X55423731Y-78360821D01*
X55797018Y-78515824D01*
X56201208Y-78516176D01*
X56574766Y-78361825D01*
X56725654Y-78211200D01*
X87505412Y-78211200D01*
X91584008Y-82289796D01*
X91583824Y-82501208D01*
X91738175Y-82874766D01*
X92023731Y-83160821D01*
X92397018Y-83315824D01*
X92801208Y-83316176D01*
X93174766Y-83161825D01*
X93460821Y-82876269D01*
X93615824Y-82502982D01*
X93616176Y-82098792D01*
X93461825Y-81725234D01*
X93176269Y-81439179D01*
X92802982Y-81284176D01*
X92589778Y-81283990D01*
X88302894Y-76997106D01*
X88072165Y-76842937D01*
X87800000Y-76788800D01*
X56725629Y-76788800D01*
X56576269Y-76639179D01*
X56202982Y-76484176D01*
X55798792Y-76483824D01*
X55425234Y-76638175D01*
X55139179Y-76923731D01*
X54984176Y-77297018D01*
X54983824Y-77701208D01*
X51495000Y-77701208D01*
X51495000Y-66565120D01*
X51651737Y-66621184D01*
X52211991Y-66593606D01*
X52601505Y-66432263D01*
X52639747Y-66301208D01*
X89883824Y-66301208D01*
X90038175Y-66674766D01*
X90323731Y-66960821D01*
X90697018Y-67115824D01*
X91101208Y-67116176D01*
X91474766Y-66961825D01*
X91625654Y-66811200D01*
X102412213Y-66811200D01*
X109545559Y-73944546D01*
X109545375Y-74155958D01*
X109699726Y-74529516D01*
X109985282Y-74815571D01*
X110358569Y-74970574D01*
X110762759Y-74970926D01*
X111136317Y-74816575D01*
X111422372Y-74531019D01*
X111577375Y-74157732D01*
X111577727Y-73753542D01*
X111423376Y-73379984D01*
X111137820Y-73093929D01*
X110764533Y-72938926D01*
X110551329Y-72938740D01*
X103209695Y-65597106D01*
X102978966Y-65442937D01*
X102706801Y-65388800D01*
X91625629Y-65388800D01*
X91476269Y-65239179D01*
X91102982Y-65084176D01*
X90698792Y-65083824D01*
X90325234Y-65238175D01*
X90039179Y-65523731D01*
X89884176Y-65897018D01*
X89883824Y-66301208D01*
X52639747Y-66301208D01*
X52672568Y-66188733D01*
X51862540Y-65378705D01*
X51848398Y-65392848D01*
X51668793Y-65213243D01*
X51682935Y-65199100D01*
X52042145Y-65199100D01*
X52852173Y-66009128D01*
X53095703Y-65938065D01*
X53284624Y-65409903D01*
X53268384Y-65079978D01*
X53861267Y-65079978D01*
X53913865Y-65307990D01*
X54387596Y-65471817D01*
X54887960Y-65441885D01*
X55211215Y-65307990D01*
X55263813Y-65079978D01*
X54562540Y-64378705D01*
X53861267Y-65079978D01*
X53268384Y-65079978D01*
X53257046Y-64849649D01*
X53095703Y-64460135D01*
X52852173Y-64389072D01*
X52042145Y-65199100D01*
X51682935Y-65199100D01*
X51668793Y-65184958D01*
X51848398Y-65005353D01*
X51862540Y-65019495D01*
X52672568Y-64209467D01*
X52618494Y-64024156D01*
X53289823Y-64024156D01*
X53319755Y-64524520D01*
X53453650Y-64847775D01*
X53681662Y-64900373D01*
X54382935Y-64199100D01*
X54742145Y-64199100D01*
X55443418Y-64900373D01*
X55671430Y-64847775D01*
X55835257Y-64374044D01*
X55805325Y-63873680D01*
X55671430Y-63550425D01*
X55443418Y-63497827D01*
X54742145Y-64199100D01*
X54382935Y-64199100D01*
X53681662Y-63497827D01*
X53453650Y-63550425D01*
X53289823Y-64024156D01*
X52618494Y-64024156D01*
X52601505Y-63965937D01*
X52073343Y-63777016D01*
X51513089Y-63804594D01*
X51495000Y-63812087D01*
X51495000Y-63318222D01*
X53861267Y-63318222D01*
X54562540Y-64019495D01*
X55263813Y-63318222D01*
X55211215Y-63090210D01*
X54737484Y-62926383D01*
X54237120Y-62956315D01*
X53913865Y-63090210D01*
X53861267Y-63318222D01*
X51495000Y-63318222D01*
X51495000Y-60079978D01*
X53861267Y-60079978D01*
X53913865Y-60307990D01*
X54387596Y-60471817D01*
X54887960Y-60441885D01*
X55211215Y-60307990D01*
X55263813Y-60079978D01*
X54562540Y-59378705D01*
X53861267Y-60079978D01*
X51495000Y-60079978D01*
X51495000Y-59565120D01*
X51651737Y-59621184D01*
X52211991Y-59593606D01*
X52601505Y-59432263D01*
X52672568Y-59188733D01*
X52507991Y-59024156D01*
X53289823Y-59024156D01*
X53319755Y-59524520D01*
X53453650Y-59847775D01*
X53681662Y-59900373D01*
X54382935Y-59199100D01*
X54742145Y-59199100D01*
X55443418Y-59900373D01*
X55671430Y-59847775D01*
X55835257Y-59374044D01*
X55805325Y-58873680D01*
X55671430Y-58550425D01*
X55443418Y-58497827D01*
X54742145Y-59199100D01*
X54382935Y-59199100D01*
X53681662Y-58497827D01*
X53453650Y-58550425D01*
X53289823Y-59024156D01*
X52507991Y-59024156D01*
X51862540Y-58378705D01*
X51848398Y-58392848D01*
X51668793Y-58213243D01*
X51682935Y-58199100D01*
X52042145Y-58199100D01*
X52852173Y-59009128D01*
X53095703Y-58938065D01*
X53284624Y-58409903D01*
X53280112Y-58318222D01*
X53861267Y-58318222D01*
X54562540Y-59019495D01*
X55263813Y-58318222D01*
X55211215Y-58090210D01*
X54737484Y-57926383D01*
X54237120Y-57956315D01*
X53913865Y-58090210D01*
X53861267Y-58318222D01*
X53280112Y-58318222D01*
X53257046Y-57849649D01*
X53095703Y-57460135D01*
X52852173Y-57389072D01*
X52042145Y-58199100D01*
X51682935Y-58199100D01*
X51668793Y-58184958D01*
X51848398Y-58005353D01*
X51862540Y-58019495D01*
X52672568Y-57209467D01*
X52601505Y-56965937D01*
X52073343Y-56777016D01*
X51513089Y-56804594D01*
X51495000Y-56812087D01*
X51495000Y-56001208D01*
X95083824Y-56001208D01*
X95238175Y-56374766D01*
X95523731Y-56660821D01*
X95897018Y-56815824D01*
X95948435Y-56815869D01*
X114374500Y-75241934D01*
X114374500Y-80366212D01*
X114339179Y-80401471D01*
X114184176Y-80774758D01*
X114183824Y-81178948D01*
X114338175Y-81552506D01*
X114623731Y-81838561D01*
X114997018Y-81993564D01*
X115401208Y-81993916D01*
X115774766Y-81839565D01*
X116060821Y-81554009D01*
X116215824Y-81180722D01*
X116216176Y-80776532D01*
X116061825Y-80402974D01*
X116025500Y-80366586D01*
X116025500Y-74900000D01*
X115968974Y-74615824D01*
X115962663Y-74584094D01*
X115783717Y-74316283D01*
X97116133Y-55648699D01*
X97116176Y-55598792D01*
X96961825Y-55225234D01*
X96676269Y-54939179D01*
X96302982Y-54784176D01*
X95898792Y-54783824D01*
X95525234Y-54938175D01*
X95239179Y-55223731D01*
X95084176Y-55597018D01*
X95083824Y-56001208D01*
X51495000Y-56001208D01*
X51495000Y-44280999D01*
X56493501Y-44280999D01*
X56493501Y-49919001D01*
X56556338Y-50234907D01*
X56683890Y-50425801D01*
X56683824Y-50501208D01*
X56838175Y-50874766D01*
X57123731Y-51160821D01*
X57497018Y-51315824D01*
X57548435Y-51315869D01*
X61016287Y-54783720D01*
X61016289Y-54783723D01*
X61284101Y-54962669D01*
X61600006Y-55025506D01*
X72188472Y-55025506D01*
X72223731Y-55060827D01*
X72597018Y-55215830D01*
X73001208Y-55216182D01*
X73374766Y-55061831D01*
X73660821Y-54776275D01*
X73815824Y-54402988D01*
X73816176Y-53998798D01*
X73661825Y-53625240D01*
X73376269Y-53339185D01*
X73002982Y-53184182D01*
X72598792Y-53183830D01*
X72225234Y-53338181D01*
X72188846Y-53374506D01*
X61941939Y-53374506D01*
X60668642Y-52101208D01*
X61383824Y-52101208D01*
X61538175Y-52474766D01*
X61823731Y-52760821D01*
X62197018Y-52915824D01*
X62601208Y-52916176D01*
X62974766Y-52761825D01*
X63260821Y-52476269D01*
X63415824Y-52102982D01*
X63416176Y-51698792D01*
X63261825Y-51325234D01*
X63111200Y-51174346D01*
X63111200Y-50016011D01*
X63301208Y-50016176D01*
X63674766Y-49861825D01*
X63832038Y-49704827D01*
X64072165Y-49657063D01*
X64302894Y-49502894D01*
X65489796Y-48315992D01*
X65701208Y-48316176D01*
X65821761Y-48266364D01*
X67458291Y-49902894D01*
X67689020Y-50057063D01*
X67728085Y-50064833D01*
X67923731Y-50260821D01*
X68297018Y-50415824D01*
X68701208Y-50416176D01*
X69074766Y-50261825D01*
X69360821Y-49976269D01*
X69515824Y-49602982D01*
X69516176Y-49198792D01*
X69361825Y-48825234D01*
X69076269Y-48539179D01*
X68702982Y-48384176D01*
X68298792Y-48383824D01*
X68052544Y-48485571D01*
X67451448Y-47884475D01*
X67580042Y-47756105D01*
X67735045Y-47382818D01*
X67735168Y-47241519D01*
X70414687Y-44562000D01*
X70425082Y-44562000D01*
X70523731Y-44660821D01*
X70897018Y-44815824D01*
X71301208Y-44816176D01*
X71674766Y-44661825D01*
X71960821Y-44376269D01*
X72115824Y-44002982D01*
X72116176Y-43598792D01*
X71961825Y-43225234D01*
X71676269Y-42939179D01*
X71302982Y-42784176D01*
X70898792Y-42783824D01*
X70525234Y-42938175D01*
X70425235Y-43038000D01*
X70099057Y-43038000D01*
X69807452Y-43096004D01*
X69595933Y-43237337D01*
X69560242Y-43261185D01*
X67039700Y-45781727D01*
X67052207Y-45751607D01*
X67052559Y-45347417D01*
X66898208Y-44973859D01*
X66612652Y-44687804D01*
X66239365Y-44532801D01*
X65835175Y-44532449D01*
X65461617Y-44686800D01*
X65175562Y-44972356D01*
X65020559Y-45345643D01*
X65020527Y-45382368D01*
X64920310Y-45423777D01*
X64733895Y-45609867D01*
X64640024Y-45628539D01*
X64640022Y-45628540D01*
X64640023Y-45628540D01*
X64409293Y-45782708D01*
X61897106Y-48294896D01*
X61742937Y-48525625D01*
X61708317Y-48699670D01*
X61688800Y-48797790D01*
X61688800Y-51174371D01*
X61539179Y-51323731D01*
X61384176Y-51697018D01*
X61383824Y-52101208D01*
X60668642Y-52101208D01*
X58716133Y-50148699D01*
X58716176Y-50098792D01*
X58561825Y-49725234D01*
X58276269Y-49439179D01*
X58144501Y-49384464D01*
X58144501Y-45001208D01*
X59183816Y-45001208D01*
X59338167Y-45374766D01*
X59488800Y-45525662D01*
X59488800Y-45874371D01*
X59339179Y-46023731D01*
X59184176Y-46397018D01*
X59183824Y-46801208D01*
X59338175Y-47174766D01*
X59623731Y-47460821D01*
X59997018Y-47615824D01*
X60401208Y-47616176D01*
X60774766Y-47461825D01*
X61060821Y-47176269D01*
X61215824Y-46802982D01*
X61216176Y-46398792D01*
X61061825Y-46025234D01*
X60911200Y-45874346D01*
X60911200Y-45525621D01*
X61060813Y-45376269D01*
X61215816Y-45002982D01*
X61216168Y-44598792D01*
X61061817Y-44225234D01*
X60776261Y-43939179D01*
X60402974Y-43784176D01*
X59998784Y-43783824D01*
X59625226Y-43938175D01*
X59339171Y-44223731D01*
X59184168Y-44597018D01*
X59183816Y-45001208D01*
X58144501Y-45001208D01*
X58144501Y-44874330D01*
X58174766Y-44861825D01*
X58460821Y-44576269D01*
X58615824Y-44202982D01*
X58616176Y-43798792D01*
X58461825Y-43425234D01*
X58176269Y-43139179D01*
X57802982Y-42984176D01*
X57398792Y-42983824D01*
X57025234Y-43138175D01*
X56739179Y-43423731D01*
X56584176Y-43797018D01*
X56584066Y-43923596D01*
X56556338Y-43965093D01*
X56526356Y-44115824D01*
X56493501Y-44280999D01*
X51495000Y-44280999D01*
X51495000Y-39673305D01*
X51914674Y-39673305D01*
X52201043Y-40366372D01*
X52730839Y-40897093D01*
X53423405Y-41184672D01*
X54173305Y-41185326D01*
X54866372Y-40898957D01*
X55397093Y-40369161D01*
X55580694Y-39927000D01*
X68041890Y-39927000D01*
X68041890Y-40681380D01*
X68196154Y-41202919D01*
X68538260Y-41625724D01*
X69016125Y-41885427D01*
X69088326Y-41899783D01*
X69303000Y-41777162D01*
X69303000Y-39927000D01*
X68041890Y-39927000D01*
X55580694Y-39927000D01*
X55684672Y-39676595D01*
X55685326Y-38926695D01*
X55681990Y-38918620D01*
X68041890Y-38918620D01*
X68041890Y-39673000D01*
X69303000Y-39673000D01*
X69303000Y-37822838D01*
X69557000Y-37822838D01*
X69557000Y-39673000D01*
X69577000Y-39673000D01*
X69577000Y-39927000D01*
X69557000Y-39927000D01*
X69557000Y-41777162D01*
X69771674Y-41899783D01*
X69843875Y-41885427D01*
X70321740Y-41625724D01*
X70663846Y-41202919D01*
X70686984Y-41124694D01*
X70687554Y-41127561D01*
X70988458Y-41577896D01*
X71438793Y-41878800D01*
X71970000Y-41984464D01*
X72501207Y-41878800D01*
X72951542Y-41577896D01*
X73252446Y-41127561D01*
X73358110Y-40596354D01*
X73358110Y-39003646D01*
X73252446Y-38472439D01*
X72951542Y-38022104D01*
X72501207Y-37721200D01*
X71970000Y-37615536D01*
X71438793Y-37721200D01*
X70988458Y-38022104D01*
X70687554Y-38472439D01*
X70686984Y-38475306D01*
X70663846Y-38397081D01*
X70321740Y-37974276D01*
X69843875Y-37714573D01*
X69771674Y-37700217D01*
X69557000Y-37822838D01*
X69303000Y-37822838D01*
X69088326Y-37700217D01*
X69016125Y-37714573D01*
X68538260Y-37974276D01*
X68196154Y-38397081D01*
X68041890Y-38918620D01*
X55681990Y-38918620D01*
X55398957Y-38233628D01*
X54869161Y-37702907D01*
X54176595Y-37415328D01*
X53426695Y-37414674D01*
X52733628Y-37701043D01*
X52202907Y-38230839D01*
X51915328Y-38923405D01*
X51914674Y-39673305D01*
X51495000Y-39673305D01*
X51495000Y-37005000D01*
X75673000Y-37005000D01*
X75673000Y-54100000D01*
G36*
X125567000Y-44973000D02*
X125587000Y-44973000D01*
X125587000Y-45227000D01*
X125567000Y-45227000D01*
X125567000Y-45247000D01*
X125313000Y-45247000D01*
X125313000Y-45227000D01*
X125293000Y-45227000D01*
X125293000Y-44973000D01*
X125313000Y-44973000D01*
X125313000Y-44953000D01*
X125567000Y-44953000D01*
X125567000Y-44973000D01*
X125567000Y-44973000D01*
G37*
X125567000Y-44973000D02*
X125587000Y-44973000D01*
X125587000Y-45227000D01*
X125567000Y-45227000D01*
X125567000Y-45247000D01*
X125313000Y-45247000D01*
X125313000Y-45227000D01*
X125293000Y-45227000D01*
X125293000Y-44973000D01*
X125313000Y-44973000D01*
X125313000Y-44953000D01*
X125567000Y-44953000D01*
X125567000Y-44973000D01*
G36*
X113673000Y-37783107D02*
X113584176Y-37997018D01*
X113583824Y-38401208D01*
X113673000Y-38617030D01*
X113673000Y-42573000D01*
X107600000Y-42573000D01*
X107550590Y-42583006D01*
X107508965Y-42611447D01*
X107481685Y-42653841D01*
X107473000Y-42700000D01*
X107473000Y-48547435D01*
X105237942Y-48547435D01*
X105202683Y-48512114D01*
X104829396Y-48357111D01*
X104425206Y-48356759D01*
X104051648Y-48511110D01*
X103765593Y-48796666D01*
X103610590Y-49169953D01*
X103610238Y-49574143D01*
X103764589Y-49947701D01*
X104050145Y-50233756D01*
X104423432Y-50388759D01*
X104827622Y-50389111D01*
X105201180Y-50234760D01*
X105237568Y-50198435D01*
X107473000Y-50198435D01*
X107473000Y-52888800D01*
X84025629Y-52888800D01*
X83876269Y-52739179D01*
X83502982Y-52584176D01*
X83098792Y-52583824D01*
X82725234Y-52738175D01*
X82439179Y-53023731D01*
X82418721Y-53073000D01*
X76727000Y-53073000D01*
X76727000Y-37027000D01*
X113673000Y-37027000D01*
X113673000Y-37783107D01*
X113673000Y-37783107D01*
G37*
X113673000Y-37783107D02*
X113584176Y-37997018D01*
X113583824Y-38401208D01*
X113673000Y-38617030D01*
X113673000Y-42573000D01*
X107600000Y-42573000D01*
X107550590Y-42583006D01*
X107508965Y-42611447D01*
X107481685Y-42653841D01*
X107473000Y-42700000D01*
X107473000Y-48547435D01*
X105237942Y-48547435D01*
X105202683Y-48512114D01*
X104829396Y-48357111D01*
X104425206Y-48356759D01*
X104051648Y-48511110D01*
X103765593Y-48796666D01*
X103610590Y-49169953D01*
X103610238Y-49574143D01*
X103764589Y-49947701D01*
X104050145Y-50233756D01*
X104423432Y-50388759D01*
X104827622Y-50389111D01*
X105201180Y-50234760D01*
X105237568Y-50198435D01*
X107473000Y-50198435D01*
X107473000Y-52888800D01*
X84025629Y-52888800D01*
X83876269Y-52739179D01*
X83502982Y-52584176D01*
X83098792Y-52583824D01*
X82725234Y-52738175D01*
X82439179Y-53023731D01*
X82418721Y-53073000D01*
X76727000Y-53073000D01*
X76727000Y-37027000D01*
X113673000Y-37027000D01*
X113673000Y-37783107D01*
M02*
