G04 #@! TF.FileFunction,Other,Fab,Top*
%FSLAX46Y46*%
G04 Gerber Fmt 4.6, Leading zero omitted, Abs format (unit mm)*
G04 Created by KiCad (PCBNEW 4.0.4+e1-6308~48~ubuntu16.04.1-stable) date Fri Oct  7 16:46:28 2016*
%MOMM*%
%LPD*%
G01*
G04 APERTURE LIST*
%ADD10C,0.150000*%
%ADD11C,0.300000*%
%ADD12C,0.152400*%
G04 APERTURE END LIST*
D10*
D11*
X134118571Y-56470001D02*
X134190000Y-56541430D01*
X134261429Y-56684287D01*
X134261429Y-57041430D01*
X134190000Y-57184287D01*
X134118571Y-57255716D01*
X133975714Y-57327144D01*
X133832857Y-57327144D01*
X133618571Y-57255716D01*
X132761429Y-56398573D01*
X132761429Y-57327144D01*
X132904286Y-57970001D02*
X132832857Y-58041429D01*
X132761429Y-57970001D01*
X132832857Y-57898572D01*
X132904286Y-57970001D01*
X132761429Y-57970001D01*
X134261429Y-58970001D02*
X134261429Y-59112858D01*
X134190000Y-59255715D01*
X134118571Y-59327144D01*
X133975714Y-59398573D01*
X133690000Y-59470001D01*
X133332857Y-59470001D01*
X133047143Y-59398573D01*
X132904286Y-59327144D01*
X132832857Y-59255715D01*
X132761429Y-59112858D01*
X132761429Y-58970001D01*
X132832857Y-58827144D01*
X132904286Y-58755715D01*
X133047143Y-58684287D01*
X133332857Y-58612858D01*
X133690000Y-58612858D01*
X133975714Y-58684287D01*
X134118571Y-58755715D01*
X134190000Y-58827144D01*
X134261429Y-58970001D01*
X134261429Y-60398572D02*
X134261429Y-60541429D01*
X134190000Y-60684286D01*
X134118571Y-60755715D01*
X133975714Y-60827144D01*
X133690000Y-60898572D01*
X133332857Y-60898572D01*
X133047143Y-60827144D01*
X132904286Y-60755715D01*
X132832857Y-60684286D01*
X132761429Y-60541429D01*
X132761429Y-60398572D01*
X132832857Y-60255715D01*
X132904286Y-60184286D01*
X133047143Y-60112858D01*
X133332857Y-60041429D01*
X133690000Y-60041429D01*
X133975714Y-60112858D01*
X134118571Y-60184286D01*
X134190000Y-60255715D01*
X134261429Y-60398572D01*
X134261429Y-61827143D02*
X134261429Y-61970000D01*
X134190000Y-62112857D01*
X134118571Y-62184286D01*
X133975714Y-62255715D01*
X133690000Y-62327143D01*
X133332857Y-62327143D01*
X133047143Y-62255715D01*
X132904286Y-62184286D01*
X132832857Y-62112857D01*
X132761429Y-61970000D01*
X132761429Y-61827143D01*
X132832857Y-61684286D01*
X132904286Y-61612857D01*
X133047143Y-61541429D01*
X133332857Y-61470000D01*
X133690000Y-61470000D01*
X133975714Y-61541429D01*
X134118571Y-61612857D01*
X134190000Y-61684286D01*
X134261429Y-61827143D01*
X134261429Y-63255714D02*
X134261429Y-63398571D01*
X134190000Y-63541428D01*
X134118571Y-63612857D01*
X133975714Y-63684286D01*
X133690000Y-63755714D01*
X133332857Y-63755714D01*
X133047143Y-63684286D01*
X132904286Y-63612857D01*
X132832857Y-63541428D01*
X132761429Y-63398571D01*
X132761429Y-63255714D01*
X132832857Y-63112857D01*
X132904286Y-63041428D01*
X133047143Y-62970000D01*
X133332857Y-62898571D01*
X133690000Y-62898571D01*
X133975714Y-62970000D01*
X134118571Y-63041428D01*
X134190000Y-63112857D01*
X134261429Y-63255714D01*
X132761429Y-65541428D02*
X133761429Y-65541428D01*
X134261429Y-65541428D02*
X134190000Y-65469999D01*
X134118571Y-65541428D01*
X134190000Y-65612856D01*
X134261429Y-65541428D01*
X134118571Y-65541428D01*
X133761429Y-66255714D02*
X132761429Y-66255714D01*
X133618571Y-66255714D02*
X133690000Y-66327142D01*
X133761429Y-66470000D01*
X133761429Y-66684285D01*
X133690000Y-66827142D01*
X133547143Y-66898571D01*
X132761429Y-66898571D01*
X132090000Y-36320000D02*
X132090000Y-87120000D01*
X127010000Y-36320000D02*
X134790000Y-36320000D01*
X127010000Y-87120000D02*
X134790000Y-87120000D01*
X132090000Y-87120000D02*
X131503579Y-85993496D01*
X132090000Y-87120000D02*
X132676421Y-85993496D01*
X132090000Y-36320000D02*
X131503579Y-37446504D01*
X132090000Y-36320000D02*
X132676421Y-37446504D01*
D12*
X126800000Y-78000000D02*
X102800000Y-78000000D01*
X102800000Y-78000000D02*
X102800000Y-62000000D01*
X102800000Y-62000000D02*
X126800000Y-62000000D01*
X126800000Y-62000000D02*
X126800000Y-78000000D01*
D10*
X115500000Y-48250000D02*
G75*
G03X115500000Y-48250000I-250000J0D01*
G01*
X114800000Y-54300000D02*
X114800000Y-47700000D01*
X119200000Y-54300000D02*
X114800000Y-54300000D01*
X119200000Y-47700000D02*
X119200000Y-54300000D01*
X114800000Y-47700000D02*
X119200000Y-47700000D01*
X115400000Y-41400000D02*
X115400000Y-39800000D01*
X118600000Y-41400000D02*
X115400000Y-41400000D01*
X118600000Y-39800000D02*
X118600000Y-41400000D01*
X115400000Y-39800000D02*
X118600000Y-39800000D01*
M02*
