G04 #@! TF.FileFunction,Copper,L1,Top,Signal*
%FSLAX46Y46*%
G04 Gerber Fmt 4.6, Leading zero omitted, Abs format (unit mm)*
G04 Created by KiCad (PCBNEW (2015-07-29 BZR 6016)-product) date Sat 12 Mar 2016 01:35:20 AM PST*
%MOMM*%
G01*
G04 APERTURE LIST*
%ADD10C,0.150000*%
%ADD11R,0.900000X1.700000*%
%ADD12C,2.500000*%
%ADD13R,1.143000X0.508000*%
%ADD14R,1.600000X1.000000*%
%ADD15O,1.506220X3.014980*%
%ADD16R,1.350000X0.400000*%
%ADD17C,1.250000*%
%ADD18C,1.550000*%
%ADD19R,0.600000X1.550000*%
%ADD20O,2.400000X1.100000*%
%ADD21R,1.100000X2.400000*%
%ADD22O,1.100000X2.400000*%
%ADD23R,0.590000X0.450000*%
%ADD24R,1.000000X1.600000*%
%ADD25R,1.600200X1.198880*%
%ADD26R,1.727200X2.032000*%
%ADD27O,1.727200X2.032000*%
%ADD28R,1.727200X1.727200*%
%ADD29O,1.727200X1.727200*%
%ADD30R,1.700000X0.900000*%
%ADD31R,2.100580X5.600700*%
%ADD32R,0.240000X0.900000*%
%ADD33R,0.900000X0.240000*%
%ADD34R,1.000000X2.900000*%
%ADD35R,1.800860X1.597660*%
%ADD36R,0.450000X0.590000*%
%ADD37R,0.800100X0.800100*%
%ADD38R,1.060000X0.650000*%
%ADD39R,0.700000X0.200000*%
%ADD40R,1.650000X2.500000*%
%ADD41R,0.398780X0.749300*%
%ADD42C,5.000000*%
%ADD43C,0.762000*%
%ADD44C,0.152400*%
%ADD45C,0.381000*%
%ADD46C,0.254000*%
G04 APERTURE END LIST*
D10*
D11*
X103750000Y-81200000D03*
X106650000Y-81200000D03*
D12*
X124000000Y-39100000D03*
X123900000Y-84100000D03*
X53700000Y-84000000D03*
X53800000Y-39300000D03*
D13*
X72925000Y-77045000D03*
X72925000Y-74505000D03*
X72925000Y-73235000D03*
X72925000Y-71965000D03*
X72925000Y-70695000D03*
X72925000Y-69425000D03*
X72925000Y-68155000D03*
X79275000Y-68155000D03*
X79275000Y-69425000D03*
X79275000Y-70695000D03*
X79275000Y-71965000D03*
X79275000Y-73235000D03*
X79275000Y-74505000D03*
X79275000Y-75775000D03*
X79275000Y-77045000D03*
X72925000Y-75775000D03*
D11*
X66550000Y-68800000D03*
X69450000Y-68800000D03*
D14*
X68450000Y-55850000D03*
X68450000Y-58850000D03*
D15*
X71970000Y-39800000D03*
X69430000Y-39800000D03*
D16*
X54562540Y-60399100D03*
X54562540Y-61049100D03*
X54562540Y-61699100D03*
X54562540Y-62349100D03*
X54562540Y-62999100D03*
D17*
X54562540Y-59199100D03*
X54562540Y-64199100D03*
D18*
X51862540Y-58199100D03*
X51862540Y-65199100D03*
D19*
X98605000Y-66500000D03*
X97335000Y-66500000D03*
X96065000Y-66500000D03*
X94795000Y-66500000D03*
X94795000Y-71900000D03*
X96065000Y-71900000D03*
X97335000Y-71900000D03*
X98605000Y-71900000D03*
D20*
X102650000Y-64990000D03*
X102650000Y-66990000D03*
X102650000Y-68990000D03*
X102650000Y-70990000D03*
X102650000Y-72990000D03*
X102650000Y-74990000D03*
D21*
X118400000Y-62000000D03*
D22*
X116400000Y-62000000D03*
X114400000Y-62000000D03*
X112400000Y-62000000D03*
X110400000Y-62000000D03*
X108400000Y-62000000D03*
X106400000Y-62000000D03*
X104400000Y-62000000D03*
X104400000Y-78000000D03*
X106400000Y-78000000D03*
X108400000Y-78000000D03*
X110400000Y-78000000D03*
X112400000Y-78000000D03*
X114400000Y-78000000D03*
X116400000Y-78000000D03*
X118400000Y-78000000D03*
D23*
X95455000Y-44400000D03*
X93345000Y-44400000D03*
D14*
X75450000Y-55750000D03*
X75450000Y-58750000D03*
D24*
X74600000Y-79900000D03*
X77600000Y-79900000D03*
X104400000Y-58800000D03*
X107400000Y-58800000D03*
X95600000Y-74500000D03*
X98600000Y-74500000D03*
X112000000Y-47300000D03*
X115000000Y-47300000D03*
X55400000Y-55600000D03*
X52400000Y-55600000D03*
D14*
X80800000Y-42400000D03*
X80800000Y-45400000D03*
D24*
X74600000Y-82700000D03*
X77600000Y-82700000D03*
X74600000Y-85500000D03*
X77600000Y-85500000D03*
D14*
X98100000Y-46600000D03*
X98100000Y-49600000D03*
X120100000Y-59500000D03*
X120100000Y-56500000D03*
X77900000Y-42300000D03*
X77900000Y-45300000D03*
X87500000Y-72600000D03*
X87500000Y-69600000D03*
X87600000Y-62900000D03*
X87600000Y-65900000D03*
X95200000Y-46500000D03*
X95200000Y-49500000D03*
D25*
X87899140Y-44400000D03*
X91500860Y-44400000D03*
D26*
X89800000Y-85800000D03*
D27*
X92340000Y-85800000D03*
X94880000Y-85800000D03*
X97420000Y-85800000D03*
X99960000Y-85800000D03*
X102500000Y-85800000D03*
X105040000Y-85800000D03*
X107580000Y-85800000D03*
X110120000Y-85800000D03*
X112660000Y-85800000D03*
X115200000Y-85800000D03*
X117740000Y-85800000D03*
D28*
X122900000Y-45100000D03*
D29*
X125440000Y-45100000D03*
X122900000Y-47640000D03*
X125440000Y-47640000D03*
X122900000Y-50180000D03*
X125440000Y-50180000D03*
X122900000Y-52720000D03*
X125440000Y-52720000D03*
X122900000Y-55260000D03*
X125440000Y-55260000D03*
X122900000Y-57800000D03*
X125440000Y-57800000D03*
D11*
X69550000Y-77100000D03*
X66650000Y-77100000D03*
X110850000Y-58800000D03*
X113750000Y-58800000D03*
D30*
X75000000Y-45250000D03*
X75000000Y-42350000D03*
D11*
X86550000Y-39700000D03*
X83650000Y-39700000D03*
X66550000Y-74400000D03*
X69450000Y-74400000D03*
X100850000Y-46400000D03*
X103750000Y-46400000D03*
X103750000Y-49400000D03*
X100850000Y-49400000D03*
X66550000Y-71600000D03*
X69450000Y-71600000D03*
X103850000Y-42600000D03*
X106750000Y-42600000D03*
D30*
X106600000Y-37250000D03*
X106600000Y-40150000D03*
X97300000Y-37450000D03*
X97300000Y-40350000D03*
X109500000Y-40150000D03*
X109500000Y-37250000D03*
D11*
X112150000Y-44800000D03*
X115050000Y-44800000D03*
X116750000Y-44800000D03*
X119650000Y-44800000D03*
X66550000Y-65800000D03*
X69450000Y-65800000D03*
X58050000Y-72100000D03*
X55150000Y-72100000D03*
X57550000Y-78300000D03*
X60450000Y-78300000D03*
D31*
X83400000Y-72648860D03*
X83400000Y-62951140D03*
D32*
X115650000Y-49600000D03*
X116150000Y-49600000D03*
D33*
X117200000Y-50150000D03*
X117200000Y-50650000D03*
X117200000Y-51150000D03*
X117200000Y-51650000D03*
X117200000Y-52150000D03*
X117200000Y-52650000D03*
X117200000Y-53150000D03*
X117200000Y-53650000D03*
D32*
X116150000Y-54200000D03*
X115650000Y-54200000D03*
D33*
X114600000Y-53650000D03*
X114600000Y-53150000D03*
X114600000Y-52650000D03*
X114600000Y-52150000D03*
X114600000Y-51650000D03*
X114600000Y-51150000D03*
X114600000Y-50650000D03*
X114600000Y-50150000D03*
D34*
X115900000Y-51900000D03*
D24*
X117000000Y-47300000D03*
X120000000Y-47300000D03*
X61400000Y-48900000D03*
X64400000Y-48900000D03*
X64500000Y-42500000D03*
X61500000Y-42500000D03*
D14*
X68600000Y-45200000D03*
X68600000Y-48200000D03*
X71600000Y-45200000D03*
X71600000Y-48200000D03*
D35*
X52900000Y-46419860D03*
X52900000Y-43580140D03*
X52800000Y-52219860D03*
X52800000Y-49380140D03*
D36*
X92600000Y-70845000D03*
X92600000Y-72955000D03*
D25*
X77800860Y-48300000D03*
X74199140Y-48300000D03*
D37*
X101900760Y-43050000D03*
X101900760Y-41150000D03*
X99901780Y-42100000D03*
X111499240Y-37250000D03*
X111499240Y-39150000D03*
X113498220Y-38200000D03*
X99999240Y-37450000D03*
X99999240Y-39350000D03*
X101998220Y-38400000D03*
X85750000Y-42399240D03*
X83850000Y-42399240D03*
X84800000Y-44398220D03*
X90550000Y-48400760D03*
X92450000Y-48400760D03*
X91500000Y-46401780D03*
X91350000Y-77900760D03*
X93250000Y-77900760D03*
X92300000Y-75901780D03*
X58750000Y-76100760D03*
X60650000Y-76100760D03*
X59700000Y-74101780D03*
X56950000Y-74099240D03*
X55050000Y-74099240D03*
X56000000Y-76098220D03*
D11*
X61400000Y-40000000D03*
X64300000Y-40000000D03*
X61300000Y-51800000D03*
X64200000Y-51800000D03*
X68550000Y-50700000D03*
X71450000Y-50700000D03*
D30*
X55700000Y-43850000D03*
X55700000Y-46750000D03*
X55500000Y-49700000D03*
X55500000Y-52600000D03*
D11*
X93750000Y-80300000D03*
X90850000Y-80300000D03*
D30*
X96400000Y-81050000D03*
X96400000Y-78150000D03*
D38*
X70900000Y-56350000D03*
X70900000Y-57300000D03*
X70900000Y-58250000D03*
X73100000Y-58250000D03*
X73100000Y-56350000D03*
D39*
X61400000Y-44600000D03*
X61400000Y-45000000D03*
X61400000Y-45400000D03*
X61400000Y-45800000D03*
X61400000Y-46200000D03*
X61400000Y-46600000D03*
X61400000Y-47000000D03*
X64400000Y-47000000D03*
X64400000Y-46600000D03*
X64400000Y-46200000D03*
X64400000Y-45800000D03*
X64400000Y-45400000D03*
X64400000Y-45000000D03*
X64400000Y-44600000D03*
D40*
X62900000Y-45800000D03*
D41*
X117650240Y-57050040D03*
X117000000Y-57050040D03*
X116349760Y-57050040D03*
X116349760Y-58949960D03*
X117000000Y-58949960D03*
X117650240Y-58949960D03*
D30*
X52600000Y-68850000D03*
X52600000Y-71750000D03*
D42*
X62900000Y-83100000D03*
D43*
X72800000Y-54200006D03*
X106061779Y-58381019D03*
X101599976Y-56500000D03*
X105200000Y-72352765D03*
X109700000Y-83200000D03*
X57600000Y-44000000D03*
X57700000Y-50300000D03*
X98983800Y-78300000D03*
X101800004Y-78100000D03*
X62900000Y-43019000D03*
X64400000Y-50322480D03*
X109000000Y-57000000D03*
X110475898Y-43956898D03*
X80000000Y-83000000D03*
X79500000Y-80000000D03*
X87500000Y-67546756D03*
X65100000Y-64300000D03*
X75400000Y-60000000D03*
X69529063Y-57770937D03*
X73600000Y-50700000D03*
X94152099Y-69934759D03*
X114400000Y-56300000D03*
X118700000Y-47400000D03*
X113400000Y-46000000D03*
X106763500Y-68542321D03*
X101873247Y-63935379D03*
X113800000Y-39500000D03*
X121500000Y-59500000D03*
X102822033Y-55265720D03*
X108200000Y-64800000D03*
X92600000Y-82300000D03*
X56000000Y-77500000D03*
X110268439Y-65490380D03*
X118300000Y-58900000D03*
X102900220Y-54354657D03*
X110000000Y-64400000D03*
X115400000Y-55200000D03*
X104626414Y-49372935D03*
X117800000Y-44800000D03*
X118200000Y-57500000D03*
X115200000Y-80977740D03*
X96100000Y-55800000D03*
X101031979Y-81320579D03*
X100800000Y-67500000D03*
X97600004Y-69000000D03*
X97595109Y-83252649D03*
X97300000Y-73600000D03*
X96100000Y-83400000D03*
X99900000Y-81399996D03*
X99900000Y-70900000D03*
X94783210Y-83619238D03*
X106000000Y-64500000D03*
X105600000Y-60400000D03*
X95490380Y-76100000D03*
X111099996Y-84200000D03*
X83300000Y-53600000D03*
X112400000Y-57800000D03*
X110561551Y-73954750D03*
X90900000Y-66100000D03*
X114600000Y-38200000D03*
X66719221Y-47179836D03*
X71100000Y-43800000D03*
X60199992Y-44800000D03*
X60200000Y-46600000D03*
X63100000Y-49000000D03*
X65500000Y-47300000D03*
X95725325Y-50874675D03*
X79614405Y-46687115D03*
X100459558Y-51534766D03*
X92400000Y-50300000D03*
X98100000Y-51100000D03*
X65495076Y-46285602D03*
X62400000Y-51900000D03*
X66036383Y-45548625D03*
X68500000Y-49400000D03*
D44*
X103328601Y-57771399D02*
X103300000Y-57800000D01*
X66682956Y-44634214D02*
X67248742Y-45200000D01*
X65251732Y-45000000D02*
X65617518Y-44634214D01*
D45*
X67248742Y-53767742D02*
X68450000Y-54969000D01*
X67443122Y-47527309D02*
X67248742Y-47721689D01*
X67443122Y-45394380D02*
X67443122Y-47527309D01*
D44*
X64400000Y-45000000D02*
X65251732Y-45000000D01*
D45*
X67248742Y-47721689D02*
X67248742Y-53767742D01*
X67248742Y-45200000D02*
X67443122Y-45394380D01*
D44*
X65617518Y-44634214D02*
X66682956Y-44634214D01*
D45*
X68450000Y-54969000D02*
X68450000Y-55850000D01*
D46*
X67238742Y-45190000D02*
X67248742Y-45200000D01*
D45*
X70900000Y-56350000D02*
X71422222Y-56350000D01*
X71422222Y-56350000D02*
X71772901Y-56700679D01*
X71772901Y-56700679D02*
X71772901Y-57899321D01*
X71772901Y-57899321D02*
X71422222Y-58250000D01*
X71422222Y-58250000D02*
X70900000Y-58250000D01*
X68450000Y-55850000D02*
X70400000Y-55850000D01*
X70400000Y-55850000D02*
X70900000Y-56350000D01*
X67248742Y-45200000D02*
X68600000Y-45200000D01*
X75000000Y-45250000D02*
X74600000Y-45250000D01*
X74600000Y-45250000D02*
X73807099Y-46042901D01*
X73807099Y-46042901D02*
X70623901Y-46042901D01*
X70623901Y-46042901D02*
X69781000Y-45200000D01*
X69781000Y-45200000D02*
X68600000Y-45200000D01*
D44*
X108442833Y-81980781D02*
X107513995Y-82909619D01*
X97628503Y-82338221D02*
X94492845Y-82338221D01*
X114697409Y-79453711D02*
X114528620Y-79453712D01*
X118400000Y-78000000D02*
X118400000Y-77350000D01*
X99560555Y-80406169D02*
X97628503Y-82338221D01*
X115178610Y-77470270D02*
X115178610Y-78972510D01*
X79592500Y-74505000D02*
X79275000Y-74505000D01*
X118400000Y-77350000D02*
X117621390Y-76571390D01*
X112001551Y-81980781D02*
X108442833Y-81980781D01*
X117621390Y-76571390D02*
X116077490Y-76571390D01*
X116077490Y-76571390D02*
X115178610Y-77470270D01*
X115178610Y-78972510D02*
X114697409Y-79453711D01*
X114528620Y-79453712D02*
X112001551Y-81980781D01*
X102942895Y-82909619D02*
X101946389Y-81913113D01*
X101946389Y-81913113D02*
X101946389Y-80901714D01*
X101946389Y-80901714D02*
X101450845Y-80406169D01*
X88287500Y-83200000D02*
X79592500Y-74505000D01*
X107513995Y-82909619D02*
X102942895Y-82909619D01*
X94492845Y-82338221D02*
X93631066Y-83200000D01*
X93631066Y-83200000D02*
X88287500Y-83200000D01*
X101450845Y-80406169D02*
X99560555Y-80406169D01*
X109407391Y-82590399D02*
X107580000Y-84417790D01*
X112254065Y-82590399D02*
X109407391Y-82590399D01*
X116986670Y-80063330D02*
X114781134Y-80063330D01*
X118400000Y-78650000D02*
X116986670Y-80063330D01*
X118400000Y-78000000D02*
X118400000Y-78650000D01*
X114781134Y-80063330D02*
X112254065Y-82590399D01*
X107580000Y-84631600D02*
X107580000Y-85800000D01*
X107580000Y-84417790D02*
X107580000Y-84631600D01*
X99686812Y-80710978D02*
X97754761Y-82643029D01*
X93757322Y-83504810D02*
X87322310Y-83504810D01*
X101641580Y-81027970D02*
X101324588Y-80710978D01*
X101641580Y-82339370D02*
X101641580Y-81027970D01*
X101324588Y-80710978D02*
X99686812Y-80710978D01*
X105040000Y-85647600D02*
X104949810Y-85647600D01*
X79592500Y-75775000D02*
X79275000Y-75775000D01*
X104949810Y-85647600D02*
X101641580Y-82339370D01*
X97754761Y-82643029D02*
X94619103Y-82643029D01*
X94619103Y-82643029D02*
X93757322Y-83504810D01*
X87322310Y-83504810D02*
X79592500Y-75775000D01*
X105919124Y-85647600D02*
X105040000Y-85647600D01*
X114654877Y-79758521D02*
X112127808Y-82285590D01*
X116400000Y-78650000D02*
X115291479Y-79758521D01*
X115291479Y-79758521D02*
X114654877Y-79758521D01*
X109281134Y-82285590D02*
X105919124Y-85647600D01*
X112127808Y-82285590D02*
X109281134Y-82285590D01*
X116400000Y-78000000D02*
X116400000Y-78650000D01*
X105040000Y-85647600D02*
X105040000Y-85800000D01*
D45*
X73338815Y-54200006D02*
X72800000Y-54200006D01*
X73600006Y-54200006D02*
X73338815Y-54200006D01*
X75150000Y-55750000D02*
X73600006Y-54200006D01*
X75450000Y-55750000D02*
X75150000Y-55750000D01*
X105200000Y-67757715D02*
X105011730Y-67945986D01*
X105011731Y-69130918D02*
X105200000Y-69319187D01*
X105200000Y-63450000D02*
X105200000Y-67757715D01*
X105200000Y-69319187D02*
X105200000Y-71813950D01*
X105200000Y-71813950D02*
X105200000Y-72352765D01*
X105011730Y-67945986D02*
X105011731Y-69130918D01*
X105642798Y-58800000D02*
X105680780Y-58762018D01*
X104400000Y-58800000D02*
X105642798Y-58800000D01*
X105680780Y-58762018D02*
X106061779Y-58381019D01*
X115000000Y-47300000D02*
X114119000Y-47300000D01*
X105357346Y-56061654D02*
X102038322Y-56061654D01*
X114119000Y-47300000D02*
X105357346Y-56061654D01*
X102038322Y-56061654D02*
X101980975Y-56119001D01*
X101980975Y-56119001D02*
X101599976Y-56500000D01*
X115000000Y-47300000D02*
X113883025Y-47300000D01*
X91557049Y-67802498D02*
X91557049Y-66542927D01*
X101218977Y-56880999D02*
X101599976Y-56500000D01*
X91557049Y-66542927D02*
X101218977Y-56880999D01*
X91557049Y-76304140D02*
X91557049Y-67802498D01*
X88742901Y-62125679D02*
X82367222Y-55750000D01*
X91557049Y-67802498D02*
X88742901Y-64988350D01*
X76631000Y-55750000D02*
X75450000Y-55750000D01*
X88742901Y-64988350D02*
X88742901Y-62125679D01*
X82367222Y-55750000D02*
X76631000Y-55750000D01*
X91557049Y-76576151D02*
X91557049Y-76304140D01*
X82857500Y-76500000D02*
X91361189Y-76500000D01*
X91361189Y-76500000D02*
X91557049Y-76304140D01*
X79592500Y-73235000D02*
X82857500Y-76500000D01*
X110120000Y-83620000D02*
X109700000Y-83200000D01*
X110120000Y-85800000D02*
X110120000Y-83620000D01*
X71972500Y-77680000D02*
X72607500Y-77045000D01*
X72607500Y-77045000D02*
X72925000Y-77045000D01*
X69730000Y-77680000D02*
X71972500Y-77680000D01*
X69550000Y-77500000D02*
X69730000Y-77680000D01*
X69550000Y-77100000D02*
X69550000Y-77500000D01*
X74600000Y-85500000D02*
X74600000Y-82700000D01*
X74512500Y-77045000D02*
X74600000Y-77132500D01*
X74600000Y-77132500D02*
X74600000Y-82700000D01*
X74600000Y-77132500D02*
X74600000Y-79900000D01*
X79275000Y-73235000D02*
X78322500Y-73235000D01*
X78322500Y-73235000D02*
X74512500Y-77045000D01*
X74512500Y-77045000D02*
X73877500Y-77045000D01*
X73877500Y-77045000D02*
X72925000Y-77045000D01*
X79592500Y-73235000D02*
X79275000Y-73235000D01*
X57600000Y-44000000D02*
X55850000Y-44000000D01*
X55850000Y-44000000D02*
X55700000Y-43850000D01*
X57700000Y-50300000D02*
X56100000Y-50300000D01*
X56100000Y-50300000D02*
X55500000Y-49700000D01*
X73100000Y-56350000D02*
X74850000Y-56350000D01*
X74850000Y-56350000D02*
X75450000Y-55750000D01*
X92881658Y-77900760D02*
X91557049Y-76576151D01*
X93250000Y-77900760D02*
X92881658Y-77900760D01*
X115000000Y-47300000D02*
X115000000Y-48950000D01*
X115000000Y-48950000D02*
X115650000Y-49600000D01*
X117292910Y-59783892D02*
X118635108Y-59783892D01*
X118635108Y-59783892D02*
X118919000Y-59500000D01*
X118919000Y-59500000D02*
X120100000Y-59500000D01*
X117000000Y-58949960D02*
X117000000Y-59490982D01*
X117000000Y-59490982D02*
X117292910Y-59783892D01*
X117292910Y-59783892D02*
X117292910Y-63019855D01*
X117292910Y-63019855D02*
X116769855Y-63542910D01*
X116769855Y-63542910D02*
X108769855Y-63542910D01*
X105200000Y-63450000D02*
X105292910Y-63542910D01*
X105292910Y-63542910D02*
X108769855Y-63542910D01*
X108769855Y-63542910D02*
X109292910Y-63019855D01*
X109292910Y-60757090D02*
X110850000Y-59200000D01*
X109292910Y-63019855D02*
X109292910Y-60757090D01*
X110850000Y-59200000D02*
X110850000Y-58800000D01*
X98600000Y-74500000D02*
X98600000Y-71905000D01*
X98600000Y-71905000D02*
X98605000Y-71900000D01*
X105200000Y-72352765D02*
X103455675Y-74097090D01*
X99883910Y-74097090D02*
X99481000Y-74500000D01*
X99481000Y-74500000D02*
X98600000Y-74500000D01*
X103455675Y-74097090D02*
X99883910Y-74097090D01*
X104400000Y-62650000D02*
X105200000Y-63450000D01*
X104400000Y-62000000D02*
X104400000Y-62650000D01*
X104400000Y-62000000D02*
X104400000Y-58800000D01*
X117023901Y-55816168D02*
X117000000Y-55792267D01*
X117000000Y-57050040D02*
X117023901Y-57026139D01*
X117023901Y-57026139D02*
X117023901Y-55816168D01*
X98983800Y-78300000D02*
X101600004Y-78300000D01*
X96550000Y-78300000D02*
X98983800Y-78300000D01*
X96400000Y-78150000D02*
X96550000Y-78300000D01*
X101600004Y-78300000D02*
X101800004Y-78100000D01*
X104400000Y-78000000D02*
X101900004Y-78000000D01*
X101900004Y-78000000D02*
X101800004Y-78100000D01*
X64400000Y-50322480D02*
X64400000Y-51600000D01*
X64400000Y-48900000D02*
X64400000Y-50322480D01*
X107400000Y-58800000D02*
X107400000Y-58600000D01*
X107400000Y-58600000D02*
X109000000Y-57000000D01*
X110475898Y-43956898D02*
X111319000Y-44800000D01*
X108307099Y-41788099D02*
X110475898Y-43956898D01*
X108307099Y-39939877D02*
X108307099Y-41788099D01*
X101900760Y-41150000D02*
X102681810Y-41150000D01*
X102681810Y-41150000D02*
X104474711Y-39357099D01*
X104474711Y-39357099D02*
X107724321Y-39357099D01*
X107724321Y-39357099D02*
X108307099Y-39939877D01*
X111319000Y-44800000D02*
X112150000Y-44800000D01*
X71450000Y-50700000D02*
X71450000Y-48350000D01*
X71450000Y-48350000D02*
X71600000Y-48200000D01*
X73600000Y-50700000D02*
X73600000Y-48899140D01*
X73600000Y-48899140D02*
X74199140Y-48300000D01*
X71600000Y-48200000D02*
X74099140Y-48200000D01*
X74099140Y-48200000D02*
X74199140Y-48300000D01*
X78781000Y-83000000D02*
X80000000Y-83000000D01*
X77600000Y-82700000D02*
X78481000Y-82700000D01*
X78481000Y-82700000D02*
X78781000Y-83000000D01*
X77600000Y-79900000D02*
X79400000Y-79900000D01*
X79400000Y-79900000D02*
X79500000Y-80000000D01*
X87500000Y-67546756D02*
X87500000Y-66000000D01*
X87500000Y-69600000D02*
X87500000Y-67546756D01*
X87500000Y-66000000D02*
X87600000Y-65900000D01*
X66550000Y-71600000D02*
X66550000Y-65750000D01*
X66550000Y-65750000D02*
X65100000Y-64300000D01*
X66550000Y-71600000D02*
X66550000Y-65800000D01*
X66550000Y-71600000D02*
X66550000Y-68800000D01*
X66550000Y-74400000D02*
X66550000Y-71600000D01*
X77600000Y-79900000D02*
X77600000Y-78720000D01*
X77600000Y-78720000D02*
X79275000Y-77045000D01*
X77600000Y-82700000D02*
X77600000Y-79900000D01*
X77600000Y-85500000D02*
X77600000Y-82700000D01*
X52600000Y-68850000D02*
X52600000Y-65936560D01*
X52600000Y-65936560D02*
X51862540Y-65199100D01*
X54562540Y-64199100D02*
X52862540Y-64199100D01*
X52862540Y-64199100D02*
X51862540Y-65199100D01*
X54562540Y-64199100D02*
X54562540Y-62999100D01*
X51862540Y-58199100D02*
X51862540Y-65199100D01*
X51862540Y-58199100D02*
X53562540Y-58199100D01*
X53562540Y-58199100D02*
X54562540Y-59199100D01*
X52400000Y-55600000D02*
X52400000Y-57661640D01*
X52400000Y-57661640D02*
X51862540Y-58199100D01*
D46*
X61400000Y-45800000D02*
X62900000Y-45800000D01*
D45*
X61500000Y-42500000D02*
X61500000Y-42200000D01*
X63700000Y-40000000D02*
X64300000Y-40000000D01*
X61500000Y-42200000D02*
X63700000Y-40000000D01*
X64400000Y-51600000D02*
X64200000Y-51800000D01*
X62900000Y-45800000D02*
X62900000Y-43019000D01*
X62900000Y-43019000D02*
X62381000Y-42500000D01*
X62381000Y-42500000D02*
X61500000Y-42500000D01*
X62900000Y-45800000D02*
X62900000Y-47400000D01*
X62900000Y-47400000D02*
X64400000Y-48900000D01*
X75450000Y-58750000D02*
X75450000Y-59950000D01*
X75450000Y-59950000D02*
X75400000Y-60000000D01*
X69529063Y-57770937D02*
X69529063Y-58309752D01*
X69529063Y-58309752D02*
X70850311Y-59631000D01*
X70850311Y-59631000D02*
X74269000Y-59631000D01*
X74269000Y-59631000D02*
X75150000Y-58750000D01*
X75150000Y-58750000D02*
X75450000Y-58750000D01*
X69529063Y-57770937D02*
X70000000Y-57300000D01*
X68450000Y-58850000D02*
X69529063Y-57770937D01*
X70000000Y-57300000D02*
X70900000Y-57300000D01*
X71450000Y-50700000D02*
X73600000Y-50700000D01*
X71450000Y-50300000D02*
X71450000Y-50700000D01*
X71600000Y-48200000D02*
X68600000Y-48200000D01*
X71700000Y-48100000D02*
X71600000Y-48200000D01*
X99999240Y-39350000D02*
X100100760Y-39350000D01*
X100100760Y-39350000D02*
X101900760Y-41150000D01*
X94152099Y-69934759D02*
X94152099Y-68298901D01*
X94152099Y-73933099D02*
X94152099Y-69934759D01*
X95600000Y-74500000D02*
X94719000Y-74500000D01*
X94719000Y-74500000D02*
X94152099Y-73933099D01*
X94795000Y-67656000D02*
X94795000Y-66500000D01*
X94152099Y-68298901D02*
X94795000Y-67656000D01*
X103750000Y-81200000D02*
X103750000Y-78650000D01*
X103750000Y-78650000D02*
X104400000Y-78000000D01*
X120000000Y-47300000D02*
X118800000Y-47300000D01*
X118800000Y-47300000D02*
X118700000Y-47400000D01*
X112150000Y-46011414D02*
X112150000Y-47150000D01*
X112150000Y-44800000D02*
X112150000Y-46011414D01*
X113388586Y-46011414D02*
X113400000Y-46000000D01*
X112150000Y-46011414D02*
X113388586Y-46011414D01*
X112150000Y-47150000D02*
X112000000Y-47300000D01*
X115300000Y-54200000D02*
X115650000Y-54200000D01*
X114400000Y-55100000D02*
X115300000Y-54200000D01*
X114400000Y-56300000D02*
X114400000Y-55100000D01*
X115799011Y-57699011D02*
X114400000Y-56300000D01*
X115876049Y-57767591D02*
X115807469Y-57699011D01*
X115807469Y-57699011D02*
X115799011Y-57699011D01*
X117000000Y-57050040D02*
X117000000Y-57591062D01*
X117000000Y-57591062D02*
X116823471Y-57767591D01*
X116823471Y-57767591D02*
X115876049Y-57767591D01*
X120100000Y-56500000D02*
X121400000Y-57800000D01*
X121400000Y-57800000D02*
X122900000Y-57800000D01*
X125440000Y-45100000D02*
X124233499Y-46306501D01*
X124233499Y-46306501D02*
X121674499Y-46306501D01*
X121674499Y-46306501D02*
X120681000Y-47300000D01*
X120681000Y-47300000D02*
X120000000Y-47300000D01*
X117000000Y-55792267D02*
X117000000Y-55050000D01*
X117000000Y-55792267D02*
X118211267Y-55792267D01*
X118211267Y-55792267D02*
X118919000Y-56500000D01*
X118919000Y-56500000D02*
X120100000Y-56500000D01*
X117000000Y-55050000D02*
X116150000Y-54200000D01*
X119650000Y-44800000D02*
X119650000Y-45200000D01*
X119650000Y-45200000D02*
X117550000Y-47300000D01*
X117550000Y-47300000D02*
X117000000Y-47300000D01*
X117000000Y-47300000D02*
X117000000Y-48750000D01*
X117000000Y-48750000D02*
X116183408Y-49566592D01*
X116183408Y-49566592D02*
X116183408Y-49600000D01*
X119650000Y-44800000D02*
X122600000Y-44800000D01*
X122600000Y-44800000D02*
X122900000Y-45100000D01*
X78322500Y-70695000D02*
X79275000Y-70695000D01*
X68676600Y-61049100D02*
X78322500Y-70695000D01*
X54562540Y-61049100D02*
X68676600Y-61049100D01*
X54562540Y-61699100D02*
X67911822Y-61699100D01*
X67911822Y-61699100D02*
X78177722Y-71965000D01*
X78177722Y-71965000D02*
X78322500Y-71965000D01*
X78322500Y-71965000D02*
X79275000Y-71965000D01*
D44*
X93750000Y-80300000D02*
X93750000Y-80700000D01*
X93750000Y-80700000D02*
X94778601Y-81728601D01*
X102556007Y-81660598D02*
X103174009Y-82278601D01*
X94778601Y-81728601D02*
X97364191Y-81728601D01*
X103174009Y-82278601D02*
X107282881Y-82278601D01*
X97364191Y-81728601D02*
X99296241Y-79796551D01*
X107328601Y-79122501D02*
X107178610Y-78972510D01*
X99296241Y-79796551D02*
X101703358Y-79796551D01*
X101703358Y-79796551D02*
X102556007Y-80649203D01*
X102556007Y-80649203D02*
X102556007Y-81660598D01*
X107282881Y-82278601D02*
X107328601Y-82232881D01*
X107178610Y-68957431D02*
X107144499Y-68923320D01*
X107328601Y-82232881D02*
X107328601Y-79122501D01*
X107178610Y-78972510D02*
X107178610Y-68957431D01*
X107144499Y-68923320D02*
X106763500Y-68542321D01*
X102650000Y-64287600D02*
X102297779Y-63935379D01*
X102297779Y-63935379D02*
X101873247Y-63935379D01*
X102650000Y-64990000D02*
X102650000Y-64287600D01*
X116349760Y-58949960D02*
X116349760Y-61949760D01*
X116349760Y-61949760D02*
X116400000Y-62000000D01*
X113750000Y-58800000D02*
X114352400Y-58800000D01*
X114352400Y-58800000D02*
X114400000Y-58847600D01*
X114400000Y-58847600D02*
X114400000Y-60647600D01*
X114400000Y-60647600D02*
X114400000Y-62000000D01*
X108400000Y-60647600D02*
X108400000Y-62000000D01*
X108873800Y-58429130D02*
X108873800Y-60173800D01*
X114600000Y-53150000D02*
X114152930Y-53150000D01*
X108873800Y-60173800D02*
X108400000Y-60647600D01*
X114152930Y-53150000D02*
X108873800Y-58429130D01*
X107752400Y-60647600D02*
X107102400Y-60647600D01*
X108128601Y-58743263D02*
X108128601Y-60271399D01*
X113921399Y-52726201D02*
X113921398Y-52950466D01*
X114600000Y-52650000D02*
X113997600Y-52650000D01*
X113997600Y-52650000D02*
X113921399Y-52726201D01*
X107102400Y-60647600D02*
X106400000Y-61350000D01*
X106400000Y-61350000D02*
X106400000Y-62000000D01*
X108128601Y-60271399D02*
X107752400Y-60647600D01*
X113921398Y-52950466D02*
X108128601Y-58743263D01*
X117200000Y-50150000D02*
X120390000Y-50150000D01*
X120390000Y-50150000D02*
X122900000Y-47640000D01*
X117200000Y-50650000D02*
X120813542Y-50650000D01*
X120813542Y-50650000D02*
X122731341Y-48732201D01*
X122731341Y-48732201D02*
X124347799Y-48732201D01*
X124347799Y-48732201D02*
X124576401Y-48503599D01*
X124576401Y-48503599D02*
X125440000Y-47640000D01*
X117200000Y-51150000D02*
X121930000Y-51150000D01*
X121930000Y-51150000D02*
X122900000Y-50180000D01*
X117200000Y-51650000D02*
X122550000Y-51650000D01*
X122550000Y-51650000D02*
X122927799Y-51272201D01*
X122927799Y-51272201D02*
X124347799Y-51272201D01*
X124347799Y-51272201D02*
X124576401Y-51043599D01*
X124576401Y-51043599D02*
X125440000Y-50180000D01*
X117200000Y-52150000D02*
X122330000Y-52150000D01*
X122330000Y-52150000D02*
X122900000Y-52720000D01*
X117200000Y-52650000D02*
X121213542Y-52650000D01*
X121213542Y-52650000D02*
X122375743Y-53812201D01*
X122375743Y-53812201D02*
X124347799Y-53812201D01*
X124347799Y-53812201D02*
X124576401Y-53583599D01*
X124576401Y-53583599D02*
X125440000Y-52720000D01*
X117200000Y-53150000D02*
X120790000Y-53150000D01*
X120790000Y-53150000D02*
X122900000Y-55260000D01*
D45*
X109500000Y-39319000D02*
X109500000Y-40150000D01*
X104253766Y-38823689D02*
X109004689Y-38823689D01*
X101347534Y-39166636D02*
X103910819Y-39166636D01*
X99158829Y-38773089D02*
X99731918Y-38200000D01*
X99731918Y-38200000D02*
X100380898Y-38200000D01*
X103910819Y-39166636D02*
X104253766Y-38823689D01*
X100850000Y-46400000D02*
X100850000Y-45169000D01*
X109004689Y-38823689D02*
X109500000Y-39319000D01*
X100850000Y-45169000D02*
X99158829Y-43477829D01*
X99158829Y-43477829D02*
X99158829Y-38773089D01*
X100380898Y-38200000D02*
X101347534Y-39166636D01*
X113800000Y-39500000D02*
X111849240Y-39500000D01*
X111849240Y-39500000D02*
X111499240Y-39150000D01*
X120000000Y-61000000D02*
X120517222Y-61000000D01*
X120517222Y-61000000D02*
X121500000Y-60017222D01*
X121500000Y-60017222D02*
X121500000Y-59500000D01*
X120000000Y-82143000D02*
X120000000Y-61000000D01*
X117740000Y-85800000D02*
X117740000Y-84403000D01*
X117740000Y-84403000D02*
X120000000Y-82143000D01*
X98100000Y-46600000D02*
X99281000Y-46600000D01*
X99281000Y-46600000D02*
X99481000Y-46400000D01*
X99481000Y-46400000D02*
X100850000Y-46400000D01*
X95200000Y-46500000D02*
X98000000Y-46500000D01*
X98000000Y-46500000D02*
X98100000Y-46600000D01*
X95455000Y-44400000D02*
X95455000Y-46245000D01*
X95455000Y-46245000D02*
X95200000Y-46500000D01*
X111499240Y-39150000D02*
X110500000Y-39150000D01*
X110500000Y-39150000D02*
X109500000Y-40150000D01*
D44*
X106750000Y-42600000D02*
X106750000Y-51876568D01*
X103360848Y-55265720D02*
X102822033Y-55265720D01*
X106750000Y-51876568D02*
X103360848Y-55265720D01*
X106750000Y-42600000D02*
X106750000Y-51440316D01*
X107819001Y-65180999D02*
X108200000Y-64800000D01*
X107819001Y-67552277D02*
X107819001Y-65180999D01*
X108400000Y-78000000D02*
X108400000Y-68133276D01*
X108400000Y-68133276D02*
X107819001Y-67552277D01*
X110400000Y-78650000D02*
X110400000Y-78000000D01*
X109697600Y-79352400D02*
X110400000Y-78650000D01*
X107633411Y-81895190D02*
X109697600Y-79831001D01*
X102251199Y-81786856D02*
X103069152Y-82604809D01*
X109697600Y-79831001D02*
X109697600Y-79352400D01*
X107633411Y-82359137D02*
X107633411Y-81895190D01*
X107387739Y-82604809D02*
X107633411Y-82359137D01*
X102251198Y-80775458D02*
X102251199Y-81786856D01*
X103069152Y-82604809D02*
X107387739Y-82604809D01*
X101577101Y-80101359D02*
X102251198Y-80775458D01*
X93138815Y-82300000D02*
X93405404Y-82033411D01*
X99434299Y-80101359D02*
X101577101Y-80101359D01*
X97502247Y-82033411D02*
X99434299Y-80101359D01*
X92600000Y-82300000D02*
X93138815Y-82300000D01*
X93405404Y-82033411D02*
X97502247Y-82033411D01*
X110400000Y-77350000D02*
X109697600Y-76647600D01*
X109697600Y-66061219D02*
X109887440Y-65871379D01*
X109697600Y-76647600D02*
X109697600Y-66061219D01*
X110400000Y-78000000D02*
X110400000Y-77350000D01*
X109887440Y-65871379D02*
X110268439Y-65490380D01*
X56000000Y-76098220D02*
X56000000Y-77500000D01*
X118300000Y-58900000D02*
X117700200Y-58900000D01*
X117700200Y-58900000D02*
X117650240Y-58949960D01*
X98343175Y-54354657D02*
X102361405Y-54354657D01*
X94171399Y-50182881D02*
X98343175Y-54354657D01*
X97300000Y-41376482D02*
X94171399Y-44505083D01*
X102361405Y-54354657D02*
X102900220Y-54354657D01*
X94171399Y-44505083D02*
X94171399Y-50182881D01*
X97300000Y-40350000D02*
X97300000Y-41376482D01*
X110538815Y-64400000D02*
X110000000Y-64400000D01*
X114400000Y-68261185D02*
X110538815Y-64400000D01*
X114400000Y-78000000D02*
X114400000Y-68261185D01*
X103850000Y-42600000D02*
X102350760Y-42600000D01*
X102350760Y-42600000D02*
X101900760Y-43050000D01*
X100454230Y-42100000D02*
X99901780Y-42100000D01*
X106200000Y-40150000D02*
X105597600Y-40752400D01*
X102692711Y-42100000D02*
X100454230Y-42100000D01*
X106600000Y-40150000D02*
X106200000Y-40150000D01*
X105597600Y-40752400D02*
X104040311Y-40752400D01*
X104040311Y-40752400D02*
X102692711Y-42100000D01*
X111499240Y-37250000D02*
X106600000Y-37250000D01*
X111499240Y-37250000D02*
X110946790Y-37250000D01*
X110946790Y-37250000D02*
X109500000Y-37250000D01*
X99999240Y-37450000D02*
X99446790Y-37450000D01*
X99446790Y-37450000D02*
X97300000Y-37450000D01*
D45*
X115780999Y-55580999D02*
X115400000Y-55200000D01*
X116349760Y-56149760D02*
X115780999Y-55580999D01*
X116349760Y-57050040D02*
X116349760Y-56149760D01*
X104599349Y-49400000D02*
X104626414Y-49372935D01*
X103750000Y-49400000D02*
X104599349Y-49400000D01*
X103750000Y-46400000D02*
X103750000Y-49400000D01*
X84800000Y-44398220D02*
X87897360Y-44398220D01*
X87897360Y-44398220D02*
X87899140Y-44400000D01*
D44*
X84801780Y-44400000D02*
X84800000Y-44398220D01*
X116750000Y-44800000D02*
X115050000Y-44800000D01*
X117800000Y-44800000D02*
X116750000Y-44800000D01*
X117650240Y-57050040D02*
X117750040Y-57050040D01*
X117750040Y-57050040D02*
X118200000Y-57500000D01*
X83400000Y-72648860D02*
X87451140Y-72648860D01*
X87451140Y-72648860D02*
X87500000Y-72600000D01*
X79275000Y-69425000D02*
X81926200Y-69425000D01*
X81926200Y-69425000D02*
X83400000Y-70898800D01*
X83400000Y-70898800D02*
X83400000Y-72648860D01*
X79275000Y-68155000D02*
X79946200Y-68155000D01*
X79946200Y-68155000D02*
X83400000Y-64701200D01*
X83400000Y-64701200D02*
X83400000Y-62951140D01*
X83400000Y-62951140D02*
X87548860Y-62951140D01*
X87548860Y-62951140D02*
X87600000Y-62900000D01*
D45*
X115200000Y-85800000D02*
X115200000Y-80977740D01*
X96100000Y-55800000D02*
X95561185Y-55800000D01*
X95561185Y-55800000D02*
X91500000Y-51738815D01*
X91500000Y-51738815D02*
X91500000Y-47182830D01*
X91500000Y-47182830D02*
X91500000Y-46401780D01*
X91500860Y-44400000D02*
X93345000Y-44400000D01*
X91500000Y-46401780D02*
X91500000Y-44400860D01*
X91500000Y-44400860D02*
X91500860Y-44400000D01*
D44*
X102500000Y-85800000D02*
X102500000Y-83700000D01*
X101031979Y-81859394D02*
X101031979Y-81320579D01*
X101031979Y-82231979D02*
X101031979Y-81859394D01*
X102500000Y-83700000D02*
X101031979Y-82231979D01*
X101205245Y-58170491D02*
X101205245Y-66897645D01*
X114600000Y-50150000D02*
X111861711Y-50150000D01*
X102894974Y-56480762D02*
X101205245Y-58170491D01*
X101205245Y-66897645D02*
X101297600Y-66990000D01*
X111861711Y-50150000D02*
X105530949Y-56480762D01*
X105530949Y-56480762D02*
X102894974Y-56480762D01*
X100783999Y-67503601D02*
X101205245Y-67082355D01*
X101205245Y-67082355D02*
X101297600Y-66990000D01*
X102000000Y-66990000D02*
X102650000Y-66990000D01*
X97335000Y-66500000D02*
X97335000Y-67427400D01*
X97335000Y-67427400D02*
X97411201Y-67503601D01*
X97411201Y-67503601D02*
X100783999Y-67503601D01*
X101297600Y-66990000D02*
X102650000Y-66990000D01*
X98026267Y-68990000D02*
X101297600Y-68990000D01*
X97627600Y-68990000D02*
X98026267Y-68990000D01*
X98026267Y-68990000D02*
X97610004Y-68990000D01*
X97610004Y-68990000D02*
X97600004Y-69000000D01*
X97420000Y-83427758D02*
X97595109Y-83252649D01*
X102650000Y-68852874D02*
X102650000Y-68990000D01*
X97420000Y-85800000D02*
X97420000Y-83427758D01*
X104100000Y-64700000D02*
X104100000Y-67402874D01*
X104100000Y-67402874D02*
X102650000Y-68852874D01*
X103280324Y-64211390D02*
X103622510Y-64211390D01*
X102190381Y-63121447D02*
X103280324Y-64211390D01*
X102190381Y-57616421D02*
X102190381Y-63121447D01*
X105657205Y-56785572D02*
X103021230Y-56785572D01*
X111792777Y-50650000D02*
X105657205Y-56785572D01*
X114600000Y-50650000D02*
X111792777Y-50650000D01*
X103021230Y-56785572D02*
X102190381Y-57616421D01*
X103622510Y-64211390D02*
X104087325Y-64676205D01*
X103300000Y-68990000D02*
X102650000Y-68990000D01*
X96065000Y-66500000D02*
X96065000Y-67427400D01*
X96065000Y-67427400D02*
X97627600Y-68990000D01*
X101297600Y-68990000D02*
X102650000Y-68990000D01*
X105783463Y-57090380D02*
X103147488Y-57090380D01*
X103748767Y-63906581D02*
X104476080Y-64633894D01*
X103300000Y-70990000D02*
X102650000Y-70990000D01*
X111723843Y-51150000D02*
X105783463Y-57090380D01*
X102495190Y-62995190D02*
X103406580Y-63906580D01*
X104476080Y-67457860D02*
X104251079Y-67682861D01*
X102495190Y-57742678D02*
X102495190Y-62995190D01*
X103147488Y-57090380D02*
X102495190Y-57742678D01*
X104476080Y-64633894D02*
X104476080Y-67457860D01*
X103406580Y-63906580D02*
X103748767Y-63906581D01*
X104251079Y-67682861D02*
X104251079Y-70038921D01*
X114600000Y-51150000D02*
X111723843Y-51150000D01*
X104251079Y-70038921D02*
X103300000Y-70990000D01*
X103300000Y-70990000D02*
X102650000Y-70990000D01*
X97300000Y-73600000D02*
X96065000Y-72365000D01*
X96065000Y-72365000D02*
X96065000Y-71900000D01*
X94880000Y-85800000D02*
X94880000Y-85647600D01*
X94880000Y-85647600D02*
X96100000Y-84427600D01*
X96100000Y-84427600D02*
X96100000Y-83400000D01*
X102000000Y-70990000D02*
X102650000Y-70990000D01*
X97202400Y-70287600D02*
X101297600Y-70287600D01*
X96065000Y-71425000D02*
X97202400Y-70287600D01*
X96065000Y-71900000D02*
X96065000Y-71425000D01*
X101297600Y-70287600D02*
X102000000Y-70990000D01*
X99960000Y-81459996D02*
X99900000Y-81399996D01*
X99960000Y-85800000D02*
X99960000Y-81459996D01*
X104592620Y-67772386D02*
X104592620Y-71320840D01*
X111654909Y-51650000D02*
X105838319Y-57466590D01*
X103202344Y-57466590D02*
X102995190Y-57673744D01*
X102995190Y-57673744D02*
X102995190Y-62826256D01*
X103173744Y-63004810D02*
X103304810Y-63004810D01*
X102995190Y-62826256D02*
X103173744Y-63004810D01*
X104780890Y-64456259D02*
X104780890Y-67584116D01*
X104592620Y-71320840D02*
X104780890Y-71509110D01*
X105838319Y-57466590D02*
X103202344Y-57466590D01*
X104780890Y-64480890D02*
X104780890Y-67584116D01*
X114600000Y-51650000D02*
X111654909Y-51650000D01*
X103304810Y-63004810D02*
X104780890Y-64480890D01*
X104780890Y-67584116D02*
X104592620Y-67772386D01*
X104780890Y-71509110D02*
X103300000Y-72990000D01*
X103300000Y-72990000D02*
X102650000Y-72990000D01*
X104780890Y-71509110D02*
X103300000Y-72990000D01*
X103300000Y-72990000D02*
X102650000Y-72990000D01*
X99906399Y-70896399D02*
X102000000Y-72990000D01*
X102000000Y-72990000D02*
X102650000Y-72990000D01*
X97335000Y-71900000D02*
X97787400Y-71900000D01*
X97787400Y-71900000D02*
X98076399Y-71611001D01*
X98122119Y-70896399D02*
X99906399Y-70896399D01*
X98076399Y-71611001D02*
X98076399Y-70942119D01*
X98076399Y-70942119D02*
X98122119Y-70896399D01*
X97335000Y-71900000D02*
X97335000Y-72375000D01*
X97335000Y-71425000D02*
X97335000Y-71900000D01*
X105430839Y-68119586D02*
X105430840Y-68957317D01*
X106000000Y-64500000D02*
X106000000Y-67550425D01*
X104002400Y-74990000D02*
X102650000Y-74990000D01*
X106000000Y-67550425D02*
X105430839Y-68119586D01*
X92340000Y-85647600D02*
X94368362Y-83619238D01*
X106000000Y-72992400D02*
X104002400Y-74990000D01*
X94368362Y-83619238D02*
X94783210Y-83619238D01*
X105430840Y-68957317D02*
X106000000Y-69526477D01*
X92340000Y-85800000D02*
X92340000Y-85647600D01*
X106000000Y-69526477D02*
X106000000Y-72992400D01*
X106717119Y-57771399D02*
X106671399Y-57817119D01*
X106671399Y-57817119D02*
X106671399Y-59328601D01*
X106671399Y-59328601D02*
X105600000Y-60400000D01*
X112338518Y-52150000D02*
X106717119Y-57771399D01*
X114600000Y-52150000D02*
X112338518Y-52150000D01*
X95871379Y-75719001D02*
X95490380Y-76100000D01*
X97773507Y-75700000D02*
X95890380Y-75700000D01*
X95890380Y-75700000D02*
X95871379Y-75719001D01*
X97773507Y-75700000D02*
X101290000Y-75700000D01*
X94795000Y-71900000D02*
X94795000Y-72375000D01*
X94795000Y-72375000D02*
X95323601Y-72903601D01*
X95323601Y-72903601D02*
X95715083Y-72903601D01*
X97773507Y-74962025D02*
X97773507Y-75700000D01*
X95715083Y-72903601D02*
X97773507Y-74962025D01*
X101290000Y-75700000D02*
X102000000Y-74990000D01*
X102000000Y-74990000D02*
X102650000Y-74990000D01*
X111480995Y-83819001D02*
X111099996Y-84200000D01*
X114931857Y-80368139D02*
X111480995Y-83819001D01*
X119178610Y-79060205D02*
X117870676Y-80368139D01*
X118400000Y-62000000D02*
X118400000Y-63352400D01*
X118400000Y-63352400D02*
X119178610Y-64131010D01*
X117870676Y-80368139D02*
X114931857Y-80368139D01*
X119178610Y-64131010D02*
X119178610Y-79060205D01*
X61428601Y-86528601D02*
X52600000Y-77700000D01*
X52600000Y-77700000D02*
X52600000Y-71750000D01*
X89800000Y-85800000D02*
X88784000Y-85800000D01*
X88784000Y-85800000D02*
X88055399Y-86528601D01*
X88055399Y-86528601D02*
X61428601Y-86528601D01*
D45*
X66650000Y-77100000D02*
X65819000Y-77100000D01*
X65819000Y-77100000D02*
X63678054Y-74959054D01*
X63678054Y-74959054D02*
X60707652Y-74959054D01*
X59700000Y-74882830D02*
X59700000Y-74101780D01*
X60707652Y-74959054D02*
X59776224Y-74959054D01*
X61645045Y-74021661D02*
X60707652Y-74959054D01*
X61645045Y-71514758D02*
X61645045Y-74021661D01*
X59437156Y-69306869D02*
X61645045Y-71514758D01*
X53000000Y-71750000D02*
X55443131Y-69306869D01*
X52600000Y-71750000D02*
X53000000Y-71750000D01*
X59776224Y-74959054D02*
X59700000Y-74882830D01*
X55443131Y-69306869D02*
X59437156Y-69306869D01*
D44*
X85750000Y-42399240D02*
X85750000Y-39897600D01*
X85750000Y-39897600D02*
X85947600Y-39700000D01*
X85947600Y-39700000D02*
X86550000Y-39700000D01*
X83300000Y-53061185D02*
X83300000Y-53600000D01*
X85197550Y-42399240D02*
X83300000Y-44296790D01*
X85750000Y-42399240D02*
X85197550Y-42399240D01*
X83300000Y-44296790D02*
X83300000Y-53061185D01*
X112400000Y-62000000D02*
X112400000Y-57800000D01*
X112400000Y-78000000D02*
X112400000Y-75793199D01*
X110942550Y-74335749D02*
X110561551Y-73954750D01*
X112400000Y-75793199D02*
X110942550Y-74335749D01*
X90900000Y-66100000D02*
X90900000Y-48750760D01*
X90900000Y-48750760D02*
X90550000Y-48400760D01*
X91350000Y-77900760D02*
X91350000Y-79800000D01*
X91350000Y-79800000D02*
X90850000Y-80300000D01*
D45*
X58750000Y-76100760D02*
X58750000Y-72800000D01*
X58750000Y-72800000D02*
X58050000Y-72100000D01*
X69450000Y-74400000D02*
X70281000Y-74400000D01*
X70281000Y-74400000D02*
X72716000Y-71965000D01*
X72716000Y-71965000D02*
X72925000Y-71965000D01*
X69450000Y-71600000D02*
X70281000Y-71600000D01*
X70281000Y-71600000D02*
X71186000Y-70695000D01*
X71186000Y-70695000D02*
X71972500Y-70695000D01*
X71972500Y-70695000D02*
X72925000Y-70695000D01*
X69450000Y-68800000D02*
X72300000Y-68800000D01*
X72300000Y-68800000D02*
X72925000Y-69425000D01*
X69450000Y-65800000D02*
X69450000Y-66200000D01*
X69450000Y-66200000D02*
X71405000Y-68155000D01*
X71405000Y-68155000D02*
X71972500Y-68155000D01*
X71972500Y-68155000D02*
X72925000Y-68155000D01*
D44*
X117200000Y-53650000D02*
X118961482Y-53650000D01*
X118961482Y-53650000D02*
X121663683Y-56352201D01*
X121663683Y-56352201D02*
X124347799Y-56352201D01*
X124347799Y-56352201D02*
X124576401Y-56123599D01*
X124576401Y-56123599D02*
X125440000Y-55260000D01*
X101998220Y-38400000D02*
X113298220Y-38400000D01*
X113298220Y-38400000D02*
X113498220Y-38200000D01*
X114600000Y-38200000D02*
X113498220Y-38200000D01*
D45*
X80800000Y-42400000D02*
X75050000Y-42400000D01*
X75050000Y-42400000D02*
X75000000Y-42350000D01*
X80800000Y-42400000D02*
X78000000Y-42400000D01*
X78000000Y-42400000D02*
X77900000Y-42300000D01*
X83850000Y-42399240D02*
X80800760Y-42399240D01*
X80800760Y-42399240D02*
X80800000Y-42400000D01*
X83850000Y-42399240D02*
X83850000Y-39900000D01*
X83850000Y-39900000D02*
X83650000Y-39700000D01*
D44*
X114600000Y-53650000D02*
X114600000Y-53922400D01*
X114600000Y-53922400D02*
X111528601Y-56993799D01*
X111528601Y-56993799D02*
X111528601Y-60221399D01*
X110400000Y-61350000D02*
X110400000Y-62000000D01*
X111528601Y-60221399D02*
X110400000Y-61350000D01*
X65989456Y-47909601D02*
X66338222Y-47560835D01*
X65057201Y-47909601D02*
X65989456Y-47909601D01*
X64400000Y-47000000D02*
X64400000Y-47252400D01*
X65311607Y-45371191D02*
X65743774Y-44939024D01*
X64902400Y-45400000D02*
X64931209Y-45371191D01*
X64400000Y-45400000D02*
X64902400Y-45400000D01*
X65743774Y-44939024D02*
X66328992Y-44939024D01*
X66328992Y-44939024D02*
X66719221Y-45329253D01*
X66338222Y-47560835D02*
X66719221Y-47179836D01*
X64931209Y-45371191D02*
X65311607Y-45371191D01*
X66719221Y-45329253D02*
X66719221Y-46641021D01*
X64400000Y-47252400D02*
X65057201Y-47909601D01*
X66719221Y-46641021D02*
X66719221Y-47179836D01*
D46*
X71970000Y-43742350D02*
X71970000Y-44830000D01*
X71970000Y-39800000D02*
X71970000Y-43742350D01*
X71970000Y-43742350D02*
X71157650Y-43742350D01*
X71157650Y-43742350D02*
X71100000Y-43800000D01*
X71970000Y-44830000D02*
X71600000Y-45200000D01*
D44*
X60399992Y-45000000D02*
X60199992Y-44800000D01*
X61400000Y-45000000D02*
X60399992Y-45000000D01*
X60200000Y-46600000D02*
X61400000Y-46600000D01*
D45*
X55400000Y-55600000D02*
X55400000Y-55900000D01*
X55400000Y-55900000D02*
X55530441Y-56030441D01*
X55530441Y-56030441D02*
X55530441Y-59663693D01*
X55530441Y-59663693D02*
X54795034Y-60399100D01*
X54795034Y-60399100D02*
X54562540Y-60399100D01*
X55400000Y-55600000D02*
X55400000Y-55200000D01*
X55400000Y-55200000D02*
X61400000Y-49200000D01*
X61400000Y-49200000D02*
X61400000Y-48900000D01*
D44*
X63100000Y-49000000D02*
X61500000Y-49000000D01*
X61500000Y-49000000D02*
X61400000Y-48900000D01*
X61400000Y-46600000D02*
X61400000Y-47000000D01*
X61400000Y-48900000D02*
X61400000Y-47000000D01*
X64400000Y-46600000D02*
X64800000Y-46600000D01*
X64800000Y-46600000D02*
X65500000Y-47300000D01*
X64500000Y-42500000D02*
X64500000Y-44500000D01*
X64500000Y-44500000D02*
X64400000Y-44600000D01*
D45*
X95693675Y-50874675D02*
X95725325Y-50874675D01*
X95200000Y-50381000D02*
X95693675Y-50874675D01*
X95200000Y-49500000D02*
X95200000Y-50381000D01*
X79614405Y-46687115D02*
X80800000Y-45501520D01*
X78001520Y-48300000D02*
X79614405Y-46687115D01*
X77800860Y-48300000D02*
X78001520Y-48300000D01*
X80800000Y-45501520D02*
X80800000Y-45400000D01*
X77800860Y-48300000D02*
X77800860Y-45399140D01*
X77800860Y-45399140D02*
X77900000Y-45300000D01*
X79407565Y-46507565D02*
X79692435Y-46507565D01*
X79692435Y-46507565D02*
X80800000Y-45400000D01*
X78200000Y-45300000D02*
X79407565Y-46507565D01*
X77900000Y-45300000D02*
X78200000Y-45300000D01*
X100459558Y-50995951D02*
X100459558Y-51534766D01*
X100459558Y-49790442D02*
X100459558Y-50995951D01*
X100850000Y-49400000D02*
X100459558Y-49790442D01*
X92450000Y-48400760D02*
X92450000Y-50250000D01*
X92450000Y-50250000D02*
X92400000Y-50300000D01*
X98100000Y-49600000D02*
X98100000Y-51100000D01*
D44*
X52800000Y-46400000D02*
X53150000Y-46750000D01*
X53150000Y-46750000D02*
X55700000Y-46750000D01*
X60602210Y-45400000D02*
X60492609Y-45509601D01*
X59807391Y-45509601D02*
X59683379Y-45385589D01*
X61400000Y-45400000D02*
X60602210Y-45400000D01*
X60492609Y-45509601D02*
X59807391Y-45509601D01*
X59683379Y-45385589D02*
X54807049Y-45385589D01*
X54807049Y-45385589D02*
X53001600Y-43580140D01*
X53001600Y-43580140D02*
X52900000Y-43580140D01*
X52800000Y-52219860D02*
X55119860Y-52219860D01*
X55119860Y-52219860D02*
X55500000Y-52600000D01*
X54489741Y-47690399D02*
X53066333Y-49113807D01*
X59907391Y-45990399D02*
X58207391Y-47690399D01*
X60492609Y-45990399D02*
X59907391Y-45990399D01*
X58207391Y-47690399D02*
X54489741Y-47690399D01*
X60702210Y-46200000D02*
X60492609Y-45990399D01*
X61400000Y-46200000D02*
X60702210Y-46200000D01*
X52901600Y-49380140D02*
X52800000Y-49380140D01*
X92300000Y-75901780D02*
X92462602Y-75901780D01*
X96400000Y-80447600D02*
X96400000Y-81050000D01*
X92462602Y-75901780D02*
X96400000Y-79839178D01*
X96400000Y-79839178D02*
X96400000Y-80447600D01*
X92600000Y-70845000D02*
X92222600Y-70845000D01*
X92222600Y-70845000D02*
X92146399Y-70921201D01*
X92146399Y-70921201D02*
X92146399Y-75195729D01*
X92146399Y-75195729D02*
X92300000Y-75349330D01*
X92300000Y-75349330D02*
X92300000Y-75901780D01*
X98605000Y-66500000D02*
X98605000Y-66025000D01*
X98605000Y-66025000D02*
X98076399Y-65496399D01*
X92600000Y-70397600D02*
X92600000Y-70845000D01*
X98076399Y-65496399D02*
X94312119Y-65496399D01*
X92600000Y-67208518D02*
X92600000Y-70397600D01*
X94312119Y-65496399D02*
X92600000Y-67208518D01*
X106650000Y-81200000D02*
X106650000Y-78250000D01*
X106650000Y-78250000D02*
X106400000Y-78000000D01*
X106400000Y-77350000D02*
X106400000Y-78000000D01*
X105240399Y-76190399D02*
X106400000Y-77350000D01*
X98192699Y-77471399D02*
X99473699Y-76190399D01*
X99473699Y-76190399D02*
X105240399Y-76190399D01*
X92600000Y-74111830D02*
X95959569Y-77471399D01*
X92600000Y-72955000D02*
X92600000Y-74111830D01*
X95959569Y-77471399D02*
X98192699Y-77471399D01*
X98192699Y-77471399D02*
X98309917Y-77471399D01*
X67282881Y-78178601D02*
X63280291Y-78178601D01*
X61202450Y-76100760D02*
X60650000Y-76100760D01*
X70125911Y-75716589D02*
X68790862Y-75716590D01*
X67328601Y-78132881D02*
X67282881Y-78178601D01*
X67328601Y-77178851D02*
X67328601Y-78132881D01*
X72925000Y-73235000D02*
X72607500Y-73235000D01*
X63280291Y-78178601D02*
X61202450Y-76100760D01*
X68790862Y-75716590D02*
X67328601Y-77178851D01*
X72607500Y-73235000D02*
X70125911Y-75716589D01*
D45*
X60650000Y-76100760D02*
X60650000Y-78100000D01*
X60650000Y-78100000D02*
X60450000Y-78300000D01*
X56950000Y-74099240D02*
X56950000Y-77700000D01*
X56950000Y-77700000D02*
X57550000Y-78300000D01*
D44*
X66192548Y-79700000D02*
X57238518Y-79700000D01*
X57238518Y-79700000D02*
X55050000Y-77511482D01*
X55050000Y-77511482D02*
X55050000Y-74651690D01*
X55050000Y-74651690D02*
X55050000Y-74099240D01*
X72925000Y-74505000D02*
X72607500Y-74505000D01*
X72607500Y-74505000D02*
X71091101Y-76021399D01*
X67633410Y-78259138D02*
X66192548Y-79700000D01*
X71091101Y-76021399D02*
X68917119Y-76021399D01*
X68917119Y-76021399D02*
X67633411Y-77305107D01*
X67633411Y-77305107D02*
X67633410Y-78259138D01*
D45*
X55050000Y-74099240D02*
X55050000Y-72200000D01*
X55050000Y-72200000D02*
X55150000Y-72100000D01*
D44*
X61400000Y-40000000D02*
X60797600Y-40000000D01*
X60797600Y-40000000D02*
X60771399Y-40026201D01*
X60771399Y-40026201D02*
X60771399Y-43718999D01*
X60771399Y-43718999D02*
X61400000Y-44347600D01*
X61400000Y-44347600D02*
X61400000Y-44600000D01*
X64400000Y-46200000D02*
X65409474Y-46200000D01*
X65409474Y-46200000D02*
X65495076Y-46285602D01*
X62400000Y-51900000D02*
X61400000Y-51900000D01*
X61400000Y-51900000D02*
X61300000Y-51800000D01*
X64400000Y-45800000D02*
X65078468Y-45800000D01*
X65078468Y-45800000D02*
X65202467Y-45676001D01*
X65909007Y-45676001D02*
X66036383Y-45548625D01*
X65202467Y-45676001D02*
X65909007Y-45676001D01*
X68500000Y-49400000D02*
X68500000Y-50650000D01*
X68500000Y-50650000D02*
X68550000Y-50700000D01*
M02*
