G04 #@! TF.FileFunction,Other,Fab,Top*
%FSLAX46Y46*%
G04 Gerber Fmt 4.6, Leading zero omitted, Abs format (unit mm)*
G04 Created by KiCad (PCBNEW (2015-07-29 BZR 6016)-product) date Sat 12 Mar 2016 01:35:21 AM PST*
%MOMM*%
G01*
G04 APERTURE LIST*
%ADD10C,0.150000*%
%ADD11C,0.300000*%
%ADD12C,0.152400*%
G04 APERTURE END LIST*
D10*
D11*
X83588573Y-90950571D02*
X84517144Y-90950571D01*
X84017144Y-91522000D01*
X84231430Y-91522000D01*
X84374287Y-91593429D01*
X84445716Y-91664857D01*
X84517144Y-91807714D01*
X84517144Y-92164857D01*
X84445716Y-92307714D01*
X84374287Y-92379143D01*
X84231430Y-92450571D01*
X83802858Y-92450571D01*
X83660001Y-92379143D01*
X83588573Y-92307714D01*
X85160001Y-92307714D02*
X85231429Y-92379143D01*
X85160001Y-92450571D01*
X85088572Y-92379143D01*
X85160001Y-92307714D01*
X85160001Y-92450571D01*
X86160001Y-90950571D02*
X86302858Y-90950571D01*
X86445715Y-91022000D01*
X86517144Y-91093429D01*
X86588573Y-91236286D01*
X86660001Y-91522000D01*
X86660001Y-91879143D01*
X86588573Y-92164857D01*
X86517144Y-92307714D01*
X86445715Y-92379143D01*
X86302858Y-92450571D01*
X86160001Y-92450571D01*
X86017144Y-92379143D01*
X85945715Y-92307714D01*
X85874287Y-92164857D01*
X85802858Y-91879143D01*
X85802858Y-91522000D01*
X85874287Y-91236286D01*
X85945715Y-91093429D01*
X86017144Y-91022000D01*
X86160001Y-90950571D01*
X87588572Y-90950571D02*
X87731429Y-90950571D01*
X87874286Y-91022000D01*
X87945715Y-91093429D01*
X88017144Y-91236286D01*
X88088572Y-91522000D01*
X88088572Y-91879143D01*
X88017144Y-92164857D01*
X87945715Y-92307714D01*
X87874286Y-92379143D01*
X87731429Y-92450571D01*
X87588572Y-92450571D01*
X87445715Y-92379143D01*
X87374286Y-92307714D01*
X87302858Y-92164857D01*
X87231429Y-91879143D01*
X87231429Y-91522000D01*
X87302858Y-91236286D01*
X87374286Y-91093429D01*
X87445715Y-91022000D01*
X87588572Y-90950571D01*
X89017143Y-90950571D02*
X89160000Y-90950571D01*
X89302857Y-91022000D01*
X89374286Y-91093429D01*
X89445715Y-91236286D01*
X89517143Y-91522000D01*
X89517143Y-91879143D01*
X89445715Y-92164857D01*
X89374286Y-92307714D01*
X89302857Y-92379143D01*
X89160000Y-92450571D01*
X89017143Y-92450571D01*
X88874286Y-92379143D01*
X88802857Y-92307714D01*
X88731429Y-92164857D01*
X88660000Y-91879143D01*
X88660000Y-91522000D01*
X88731429Y-91236286D01*
X88802857Y-91093429D01*
X88874286Y-91022000D01*
X89017143Y-90950571D01*
X90445714Y-90950571D02*
X90588571Y-90950571D01*
X90731428Y-91022000D01*
X90802857Y-91093429D01*
X90874286Y-91236286D01*
X90945714Y-91522000D01*
X90945714Y-91879143D01*
X90874286Y-92164857D01*
X90802857Y-92307714D01*
X90731428Y-92379143D01*
X90588571Y-92450571D01*
X90445714Y-92450571D01*
X90302857Y-92379143D01*
X90231428Y-92307714D01*
X90160000Y-92164857D01*
X90088571Y-91879143D01*
X90088571Y-91522000D01*
X90160000Y-91236286D01*
X90231428Y-91093429D01*
X90302857Y-91022000D01*
X90445714Y-90950571D01*
X92731428Y-92450571D02*
X92731428Y-91450571D01*
X92731428Y-90950571D02*
X92659999Y-91022000D01*
X92731428Y-91093429D01*
X92802856Y-91022000D01*
X92731428Y-90950571D01*
X92731428Y-91093429D01*
X93445714Y-91450571D02*
X93445714Y-92450571D01*
X93445714Y-91593429D02*
X93517142Y-91522000D01*
X93660000Y-91450571D01*
X93874285Y-91450571D01*
X94017142Y-91522000D01*
X94088571Y-91664857D01*
X94088571Y-92450571D01*
X127010000Y-90422000D02*
X50810000Y-90422000D01*
X127010000Y-87120000D02*
X127010000Y-93122000D01*
X50810000Y-87120000D02*
X50810000Y-93122000D01*
X50810000Y-90422000D02*
X51936504Y-89835579D01*
X50810000Y-90422000D02*
X51936504Y-91008421D01*
X127010000Y-90422000D02*
X125883496Y-89835579D01*
X127010000Y-90422000D02*
X125883496Y-91008421D01*
X134118571Y-56470001D02*
X134190000Y-56541430D01*
X134261429Y-56684287D01*
X134261429Y-57041430D01*
X134190000Y-57184287D01*
X134118571Y-57255716D01*
X133975714Y-57327144D01*
X133832857Y-57327144D01*
X133618571Y-57255716D01*
X132761429Y-56398573D01*
X132761429Y-57327144D01*
X132904286Y-57970001D02*
X132832857Y-58041429D01*
X132761429Y-57970001D01*
X132832857Y-57898572D01*
X132904286Y-57970001D01*
X132761429Y-57970001D01*
X134261429Y-58970001D02*
X134261429Y-59112858D01*
X134190000Y-59255715D01*
X134118571Y-59327144D01*
X133975714Y-59398573D01*
X133690000Y-59470001D01*
X133332857Y-59470001D01*
X133047143Y-59398573D01*
X132904286Y-59327144D01*
X132832857Y-59255715D01*
X132761429Y-59112858D01*
X132761429Y-58970001D01*
X132832857Y-58827144D01*
X132904286Y-58755715D01*
X133047143Y-58684287D01*
X133332857Y-58612858D01*
X133690000Y-58612858D01*
X133975714Y-58684287D01*
X134118571Y-58755715D01*
X134190000Y-58827144D01*
X134261429Y-58970001D01*
X134261429Y-60398572D02*
X134261429Y-60541429D01*
X134190000Y-60684286D01*
X134118571Y-60755715D01*
X133975714Y-60827144D01*
X133690000Y-60898572D01*
X133332857Y-60898572D01*
X133047143Y-60827144D01*
X132904286Y-60755715D01*
X132832857Y-60684286D01*
X132761429Y-60541429D01*
X132761429Y-60398572D01*
X132832857Y-60255715D01*
X132904286Y-60184286D01*
X133047143Y-60112858D01*
X133332857Y-60041429D01*
X133690000Y-60041429D01*
X133975714Y-60112858D01*
X134118571Y-60184286D01*
X134190000Y-60255715D01*
X134261429Y-60398572D01*
X134261429Y-61827143D02*
X134261429Y-61970000D01*
X134190000Y-62112857D01*
X134118571Y-62184286D01*
X133975714Y-62255715D01*
X133690000Y-62327143D01*
X133332857Y-62327143D01*
X133047143Y-62255715D01*
X132904286Y-62184286D01*
X132832857Y-62112857D01*
X132761429Y-61970000D01*
X132761429Y-61827143D01*
X132832857Y-61684286D01*
X132904286Y-61612857D01*
X133047143Y-61541429D01*
X133332857Y-61470000D01*
X133690000Y-61470000D01*
X133975714Y-61541429D01*
X134118571Y-61612857D01*
X134190000Y-61684286D01*
X134261429Y-61827143D01*
X134261429Y-63255714D02*
X134261429Y-63398571D01*
X134190000Y-63541428D01*
X134118571Y-63612857D01*
X133975714Y-63684286D01*
X133690000Y-63755714D01*
X133332857Y-63755714D01*
X133047143Y-63684286D01*
X132904286Y-63612857D01*
X132832857Y-63541428D01*
X132761429Y-63398571D01*
X132761429Y-63255714D01*
X132832857Y-63112857D01*
X132904286Y-63041428D01*
X133047143Y-62970000D01*
X133332857Y-62898571D01*
X133690000Y-62898571D01*
X133975714Y-62970000D01*
X134118571Y-63041428D01*
X134190000Y-63112857D01*
X134261429Y-63255714D01*
X132761429Y-65541428D02*
X133761429Y-65541428D01*
X134261429Y-65541428D02*
X134190000Y-65469999D01*
X134118571Y-65541428D01*
X134190000Y-65612856D01*
X134261429Y-65541428D01*
X134118571Y-65541428D01*
X133761429Y-66255714D02*
X132761429Y-66255714D01*
X133618571Y-66255714D02*
X133690000Y-66327142D01*
X133761429Y-66470000D01*
X133761429Y-66684285D01*
X133690000Y-66827142D01*
X133547143Y-66898571D01*
X132761429Y-66898571D01*
X132090000Y-36320000D02*
X132090000Y-87120000D01*
X127010000Y-36320000D02*
X134790000Y-36320000D01*
X127010000Y-87120000D02*
X134790000Y-87120000D01*
X132090000Y-87120000D02*
X131503579Y-85993496D01*
X132090000Y-87120000D02*
X132676421Y-85993496D01*
X132090000Y-36320000D02*
X131503579Y-37446504D01*
X132090000Y-36320000D02*
X132676421Y-37446504D01*
D12*
X126800000Y-78000000D02*
X102800000Y-78000000D01*
X102800000Y-78000000D02*
X102800000Y-62000000D01*
X102800000Y-62000000D02*
X126800000Y-62000000D01*
X126800000Y-62000000D02*
X126800000Y-78000000D01*
M02*
