M48
;DRILL file {KiCad (2015-07-29 BZR 6016)-product} date Sat 12 Mar 2016 01:35:29 AM PST
;FORMAT={2:4/ absolute / inch / keep zeros}
FMAT,2
INCH,TZ
T1C0.013
T2C0.033
T3C0.039
T4C0.040
T5C0.045
%
G90
G05
M72
T1
X022047Y-030512
X022677Y-017323
X022717Y-019803
X023701Y-017638
X023701Y-018346
X024567Y-020433
X024764Y-016937
X024843Y-019291
X025354Y-019812
X025630Y-025315
X025785Y-018223
X025787Y-018622
X025999Y-017933
X026267Y-018575
X026969Y-019449
X027374Y-022744
X027992Y-017244
X028661Y-021339
X028976Y-019961
X029685Y-023622
X031299Y-031496
X031344Y-018381
X031496Y-032677
X032795Y-021102
X034449Y-026593
X035787Y-026024
X036378Y-019803
X036457Y-032402
X037068Y-027533
X037316Y-032921
X037595Y-029961
X037687Y-020029
X037835Y-021969
X037835Y-032835
X038307Y-028976
X038423Y-032777
X038425Y-027165
X038622Y-020118
X038970Y-030827
X039331Y-027913
X039331Y-032047
X039551Y-020289
X039685Y-026575
X039776Y-032016
X040000Y-022244
X040079Y-030748
X040108Y-025171
X040481Y-021758
X040512Y-021399
X041192Y-019438
X041417Y-028485
X041575Y-023780
X041732Y-025394
X041757Y-022985
X042033Y-026985
X042598Y-025512
X042913Y-022441
X043189Y-032756
X043307Y-025354
X043413Y-025784
X043494Y-017306
X043528Y-029116
X043740Y-033150
X044252Y-022756
X044646Y-018110
X044803Y-015551
X045039Y-022165
X045118Y-015039
X045354Y-031881
X045433Y-021732
X046378Y-017638
X046535Y-022638
X046575Y-023189
X046732Y-018661
X047835Y-023425
T2
X021481Y-023307
X021481Y-025275
T3
X027335Y-015669
X028335Y-015669
T4
X035354Y-033780
X036354Y-033780
X037354Y-033780
X038354Y-033780
X039354Y-033780
X040354Y-033780
X041354Y-033780
X042354Y-033780
X043354Y-033780
X044354Y-033780
X045354Y-033780
X046354Y-033780
X048386Y-017756
X048386Y-018756
X048386Y-019756
X048386Y-020756
X048386Y-021756
X048386Y-022756
X049386Y-017756
X049386Y-018756
X049386Y-019756
X049386Y-020756
X049386Y-021756
X049386Y-022756
T5
X020418Y-022913
X020418Y-025669
T0
M30
